<svg width="40" height="64" viewBox="0 0 40 64" fill="none" xmlns="http://www.w3.org/2000/svg">
<path d="M20 34.9168V49.5002M2.49995 61.1668H37.5M23.0245 5.36224L26.1016 11.5718C26.5216 12.4352 27.6416 13.2635 28.5866 13.4239L34.1691 14.3572C37.7391 14.9581 38.5791 17.5685 36.0066 20.1468L31.6666 24.5218C30.9316 25.2627 30.5291 26.6918 30.7566 27.7156L31.9991 33.1289C32.9791 37.4164 30.7216 39.076 26.9591 36.8331L21.7295 33.7122C20.7845 33.1464 19.227 33.1464 18.2645 33.7122L13.032 36.8331C9.28703 39.076 7.01203 37.3989 7.99203 33.1289L9.23453 27.7127C9.46203 26.6918 9.05953 25.2627 8.32453 24.5218L3.98453 20.1468C1.42953 17.5685 2.25203 14.9581 5.82203 14.3572L11.4045 13.4239C12.332 13.2635 13.452 12.4352 13.872 11.5718L16.952 5.35933C18.632 1.99058 21.362 1.99058 23.0245 5.35933M8.33328 58.2502C8.33328 54.126 8.33328 52.0639 9.61662 50.7835C10.8941 49.5002 12.9562 49.5002 17.0833 49.5002H22.9166C27.0408 49.5002 29.1029 49.5002 30.3833 50.7835C31.6666 52.0639 31.6666 54.126 31.6666 58.2502V61.1668H8.33328V58.2502Z" stroke="#224442" stroke-width="4" stroke-linecap="round" stroke-linejoin="round"/>
</svg>
