<svg width="70" height="70" viewBox="0 0 70 70" fill="none" xmlns="http://www.w3.org/2000/svg">
<path d="M35 37.9168V52.5002M17.5 64.1668H52.5M38.0246 8.36224L41.1017 14.5718C41.5217 15.4352 42.6417 16.2635 43.5867 16.4239L49.1692 17.3572C52.7392 17.9581 53.5792 20.5685 51.0067 23.1468L46.6667 27.5218C45.9317 28.2627 45.5292 29.6918 45.7567 30.7156L46.9992 36.1289C47.9792 40.4164 45.7217 42.076 41.9592 39.8331L36.7296 36.7122C35.7846 36.1464 34.2271 36.1464 33.2646 36.7122L28.0321 39.8331C24.2871 42.076 22.0121 40.3989 22.9921 36.1289L24.2346 30.7127C24.4621 29.6918 24.0596 28.2627 23.3246 27.5218L18.9846 23.1468C16.4296 20.5685 17.2521 17.9581 20.8221 17.3572L26.4046 16.4239C27.3321 16.2635 28.4521 15.4352 28.8721 14.5718L31.9521 8.35933C33.6321 4.99058 36.3621 4.99058 38.0246 8.35933M23.3333 61.2502C23.3333 57.126 23.3333 55.0639 24.6167 53.7835C25.8942 52.5002 27.9563 52.5002 32.0833 52.5002H37.9167C42.0408 52.5002 44.1029 52.5002 45.3833 53.7835C46.6667 55.0639 46.6667 57.126 46.6667 61.2502V64.1668H23.3333V61.2502Z" stroke="#E7FB7A" stroke-width="4" stroke-linecap="round" stroke-linejoin="round"/>
</svg>
