<svg width="112" height="112" viewBox="0 0 112 112" fill="none" xmlns="http://www.w3.org/2000/svg">
<path d="M112.655 47.4773L93.6748 22.8216C92.9722 21.9097 91.6909 21.6847 90.7193 22.3025L78.465 30.096H62.4826C62.2758 30.096 62.0699 30.1401 61.8709 30.1981L49.479 33.7652L36.6208 30.2482L24.1268 22.3025C23.1717 21.6951 21.9137 21.901 21.2034 22.7818L0.209952 48.7855C-0.54448 49.7198 -0.419895 51.0842 0.490269 51.8672L11.4936 61.3365L21.3652 74.6395C18.4781 77.7152 18.5343 82.5662 21.5382 85.571C22.8697 86.9016 24.5629 87.6534 26.3045 87.8282C26.2439 88.2227 26.2128 88.6233 26.2128 89.0299C26.2128 91.1288 27.0304 93.1023 28.5141 94.5861C29.9988 96.0707 31.9722 96.8883 34.0712 96.8883C34.0997 96.8883 34.1274 96.8866 34.1551 96.8857C34.1542 96.9393 34.1516 96.9921 34.1516 97.0458C34.1516 99.1447 34.9692 101.118 36.453 102.603C37.9376 104.087 39.9111 104.904 42.01 104.904C42.4244 104.904 42.8345 104.87 43.2368 104.808C43.4073 106.556 44.1608 108.257 45.4967 109.593C47.028 111.125 49.0404 111.89 51.0528 111.89C53.0652 111.89 55.0776 111.125 56.6098 109.593L57.8115 108.391L58.3159 108.797C59.8352 110.269 61.8078 111.004 63.7804 111.004C65.7928 111.004 67.8052 110.239 69.3365 108.707C70.8999 107.143 71.6656 105.08 71.6336 103.027C73.6858 103.058 75.7501 102.293 77.3134 100.731C78.8751 99.168 79.6408 97.1063 79.6105 95.0541C81.7483 95.0879 83.7763 94.2668 85.2895 92.7536C86.8529 91.1903 87.6185 89.1268 87.5865 87.0738C89.6404 87.1049 91.703 86.3401 93.2664 84.7767C95.9346 82.1085 96.2781 77.9842 94.2994 74.9397L101.507 59.8441L112.343 50.5193C113.239 49.7484 113.376 48.4126 112.655 47.4773ZM23.4157 27.1206L32.3996 32.8334L12.8562 56.643L5.02465 49.9024L23.4157 27.1206ZM24.6831 77.6018L27.3946 74.8904C27.4768 74.8082 27.5633 74.7303 27.6516 74.6576C28.1819 74.2251 28.8239 73.9672 29.5039 73.9058C29.5229 73.9041 29.5428 73.9041 29.5619 73.9032C29.6588 73.8954 29.7557 73.8902 29.8534 73.8911C30.7826 73.9041 31.6461 74.2839 32.2863 74.9596C33.5425 76.2876 33.475 78.4575 32.1358 79.7968L29.5065 82.426C28.1767 83.7558 26.0129 83.7558 24.6831 82.426C23.3534 81.0954 23.3534 78.9316 24.6831 77.6018ZM31.659 91.4412C31.0145 90.7975 30.6598 89.9409 30.6598 89.0299C30.6598 88.1189 31.0145 87.2624 31.659 86.6178L36.9167 81.3601C37.9238 80.3531 39.507 80.0771 40.7944 80.6905C42.1216 81.3229 42.8683 82.7635 42.6736 84.2126C42.5698 84.9861 42.2099 85.7146 41.6579 86.2674L36.4833 91.4412C35.8387 92.0857 34.9822 92.4404 34.0712 92.4404C33.1601 92.4404 32.3036 92.0857 31.659 91.4412ZM39.5979 99.457C38.9533 98.8133 38.5986 97.9568 38.5986 97.0458C38.5986 96.1347 38.9533 95.2782 39.5979 94.6337L44.8547 89.376C45.9318 88.2997 47.6596 88.0678 48.9781 88.8353C50.1824 89.536 50.8131 90.9117 50.6064 92.2821C50.493 93.0357 50.1349 93.7443 49.5958 94.2833L44.4221 99.457C43.7775 100.102 42.921 100.456 42.01 100.456C41.099 100.456 40.2424 100.102 39.5979 99.457ZM48.6407 106.448C47.3109 105.118 47.3109 102.954 48.6407 101.624L51.3522 98.9128C51.4343 98.8306 51.52 98.7536 51.6082 98.6809C51.6108 98.6792 51.6126 98.6775 51.6143 98.6758C52.0555 98.3176 52.5738 98.0779 53.1266 97.9732C53.1396 97.9715 53.1526 97.9698 53.1656 97.968C53.2607 97.9507 53.3576 97.9369 53.4545 97.9282C53.4935 97.9248 53.5324 97.9248 53.5722 97.9222C53.6518 97.9179 53.7305 97.9127 53.811 97.9135C54.7393 97.9265 55.6036 98.3055 56.2439 98.982C56.3226 99.0651 56.3961 99.1516 56.4636 99.2407C57.4862 100.577 57.3487 102.563 56.0795 103.833L53.464 106.448C52.1343 107.778 49.9705 107.777 48.6407 106.448ZM90.1215 81.6318C88.7917 82.9625 86.6279 82.9616 85.2981 81.6318C85.2497 81.5834 85.1986 81.5384 85.1467 81.496L70.8489 67.0476C69.9846 66.1746 68.5769 66.1677 67.7039 67.032C66.831 67.8954 66.8241 69.3031 67.6875 70.176L82.1403 84.7793C82.142 84.781 82.1437 84.7828 82.1454 84.7845C83.4752 86.1143 83.4752 88.279 82.1454 89.6087C81.5009 90.2533 80.6444 90.608 79.7333 90.608C78.8214 90.608 77.9649 90.2533 77.3212 89.6087L67.6529 79.84C66.7895 78.9671 65.3818 78.9602 64.5089 79.8236C63.6359 80.6879 63.629 82.0955 64.4924 82.9685L74.0128 92.5875C74.0613 92.6481 74.1132 92.706 74.1685 92.7614C75.4983 94.0912 75.4983 96.2559 74.1685 97.5856C72.8379 98.9154 70.6732 98.9145 69.3435 97.5848L64.0668 92.2527C63.2024 91.3797 61.7948 91.3719 60.9218 92.2363C60.0489 93.0997 60.042 94.5073 60.9054 95.3803L66.035 100.563C66.0835 100.623 66.1354 100.682 66.1916 100.737C67.5214 102.067 67.5214 104.232 66.1916 105.562C64.8619 106.892 62.6981 106.891 61.3683 105.562C61.2151 105.409 61.0352 105.291 60.8639 105.159C60.7185 105.049 60.6805 104.972 60.7531 104.795C60.8267 104.616 60.9366 104.454 61.0101 104.274C61.0914 104.074 61.1572 103.867 61.2212 103.659C61.5621 102.56 61.6624 101.379 61.5093 100.238C61.2151 98.0502 60.0117 96.0759 58.1879 94.8266C57.2025 94.1526 56.0622 93.7105 54.8803 93.5444C55.4531 91.0181 54.7653 88.2789 52.9761 86.3885C51.5036 84.833 49.5145 83.96 47.3749 83.9306C47.2971 83.9297 47.2192 83.9297 47.1405 83.9306C47.1881 81.8888 46.4457 79.8599 45.0381 78.3727C43.5647 76.8171 41.5757 75.9442 39.437 75.9147C38.8011 75.9061 38.1591 75.9736 37.5396 76.1163C37.2749 74.2744 36.3466 72.57 34.9407 71.3509C33.5434 70.1414 31.7862 69.4701 29.9149 69.4441C27.9449 69.4155 26.0095 70.1423 24.5464 71.4634L15.9509 59.8813L36.5144 34.8293L43.0681 36.622L34.5089 51.7253C33.4742 53.5517 33.2129 55.6714 33.7727 57.6942C34.3324 59.7178 35.6458 61.4014 37.4722 62.4362C37.5864 62.5011 37.7014 62.5625 37.8182 62.6213C37.8269 62.6257 37.8355 62.63 37.845 62.6343C38.1522 62.7874 38.468 62.9189 38.7881 63.0297C40.2788 63.5462 41.8889 63.6024 43.4419 63.1733C45.4646 62.6135 47.1483 61.2993 48.183 59.4738L53.7452 49.6584L63.6766 50.3627L90.1224 76.8076C91.4513 78.1382 91.4513 80.302 90.1215 81.6318ZM91.0429 71.4392L66.234 46.6312C66.1873 46.5836 66.138 46.5386 66.0869 46.4962C65.7296 46.1986 65.2867 46.0186 64.8195 45.9858L52.6594 45.1232C51.8185 45.0652 50.9827 45.5125 50.5674 46.2453L44.314 57.2815C43.8649 58.074 43.1339 58.6441 42.2557 58.8872C41.3784 59.1304 40.4579 59.0161 39.6645 58.5671C38.872 58.1181 38.3019 57.387 38.0587 56.5089C37.8156 55.6307 37.929 54.7102 38.3789 53.9177L46.7269 39.1846L50.1098 38.2113C50.1323 38.2044 50.1539 38.1957 50.1764 38.1888L62.8019 34.543H78.0566L97.1009 58.7523L91.0429 71.4392ZM100.014 55.2622L82.4024 32.8619L91.3907 27.1457L107.847 48.5216L100.014 55.2622Z" fill="#E7FB7A"/>
<path d="M68.4175 25.9207C68.9868 25.9207 69.556 25.7035 69.9904 25.2692L85.1794 10.0802C86.048 9.21156 86.048 7.80393 85.1794 6.93529C84.3107 6.06665 82.9031 6.06665 82.0345 6.93529L66.8454 22.1243C65.9768 22.9929 65.9768 24.4006 66.8454 25.2692C67.2798 25.7035 67.849 25.9207 68.4175 25.9207Z" fill="#E7FB7A"/>
<path d="M42.8424 25.2692C43.2768 25.7035 43.846 25.9207 44.4153 25.9207C44.9837 25.9207 45.553 25.7035 45.9873 25.2692C46.856 24.4006 46.856 22.9929 45.9873 22.1243L30.7983 6.93529C29.9297 6.06665 28.5221 6.06665 27.6534 6.93529C26.7848 7.80393 26.7848 9.21156 27.6534 10.0802L42.8424 25.2692Z" fill="#E7FB7A"/>
<path d="M56.4166 25.9206C57.6443 25.9206 58.6401 24.9247 58.6401 23.6971V11.1269C58.6401 9.89926 57.6443 8.90344 56.4166 8.90344C55.1889 8.90344 54.1931 9.89926 54.1931 11.1269V23.6971C54.1931 24.9247 55.1889 25.9206 56.4166 25.9206Z" fill="#E7FB7A"/>
<path d="M54.3643 3.06789C54.7173 3.92355 55.5972 4.48504 56.5255 4.43659C57.4426 4.38901 58.2481 3.76955 58.5318 2.89658C58.8165 2.0167 58.5067 1.01397 57.7696 0.453332C57.0178 -0.119413 55.9692 -0.151425 55.1827 0.368545C54.3055 0.948212 53.9654 2.10235 54.3643 3.06789Z" fill="#E7FB7A"/>
</svg>
