<svg width="112" height="112" viewBox="0 0 112 112" fill="none" xmlns="http://www.w3.org/2000/svg">
<path d="M89.6 44.8C101.952 44.8 112 34.7521 112 22.4C112 10.0479 101.952 0 89.6 0C80.6303 0 72.8966 5.31107 69.3228 12.9436L63.3245 10.7297C63.3956 10.2703 63.4667 9.81094 63.4667 9.33333C63.4667 4.18724 59.2794 0 54.1333 0C48.9872 0 44.8 4.18724 44.8 9.33333C44.8 14.4794 48.9872 18.6667 54.1333 18.6667C57.4766 18.6667 60.3923 16.8839 62.0402 14.2352L68.0285 16.4454C67.5026 18.3458 67.2 20.3355 67.2 22.4C67.2 24.8454 67.6065 27.1934 68.3348 29.3982L47.8051 38.099C44.0462 30.9923 36.585 26.1333 28 26.1333C25.2182 26.1333 22.5641 26.6674 20.104 27.5971L14.9406 16.7462C17.1901 15.04 18.6667 12.3667 18.6667 9.33333C18.6667 4.18724 14.4794 0 9.33333 0C4.18724 0 0 4.18724 0 9.33333C0 14.4794 4.18724 18.6667 9.33333 18.6667C10.1099 18.6667 10.8546 18.5436 11.5773 18.3622L16.7344 29.2022C10.0871 33.0923 5.6 40.2901 5.6 48.5333C5.6 56.2762 9.55026 63.1103 15.5385 67.1344L12.1242 73.2721C11.2355 72.9923 10.3113 72.8 9.33333 72.8C4.18724 72.8 0 76.9872 0 82.1333C0 87.2794 4.18724 91.4667 9.33333 91.4667C14.4794 91.4667 18.6667 87.2794 18.6667 82.1333C18.6667 79.3069 17.377 76.8004 15.3872 75.0887L18.8089 68.9381C21.6161 70.2087 24.7224 70.9333 28 70.9333C33.1224 70.9333 37.8337 69.1861 41.6117 66.2812L48.959 74.3641C45.2329 78.3663 42.9333 83.7129 42.9333 89.6C42.9333 90.7421 43.0473 91.8549 43.2113 92.9505L34.5671 95.0022C33.0796 91.8212 29.8703 89.6 26.1333 89.6C20.9872 89.6 16.8 93.7872 16.8 98.9333C16.8 104.079 20.9872 108.267 26.1333 108.267C31.2794 108.267 35.4667 104.079 35.4667 98.9333C35.4667 98.8303 35.4384 98.7337 35.4366 98.6307L44.0645 96.5854C47.0066 105.524 55.4212 112 65.3333 112C77.6854 112 87.7333 101.952 87.7333 89.6C87.7333 85.7701 86.7645 82.1634 85.0619 79.0089L96.0267 71.8794C97.722 73.5966 100.07 74.6667 102.667 74.6667C107.813 74.6667 112 70.4794 112 65.3333C112 60.1872 107.813 56 102.667 56C97.5206 56 93.3333 60.1872 93.3333 65.3333C93.3333 66.5392 93.5813 67.6849 93.9996 68.744L83.0092 75.8889C80.8099 73.0616 77.9543 70.7784 74.6667 69.2626L83.7776 44.0052C85.637 44.5065 87.5839 44.8 89.6 44.8ZM54.1333 14.9333C51.0462 14.9333 48.5333 12.4204 48.5333 9.33333C48.5333 6.24622 51.0462 3.73333 54.1333 3.73333C57.2204 3.73333 59.7333 6.24622 59.7333 9.33333C59.7333 12.4204 57.2204 14.9333 54.1333 14.9333ZM3.73333 9.33333C3.73333 6.24622 6.24622 3.73333 9.33333 3.73333C12.4204 3.73333 14.9333 6.24622 14.9333 9.33333C14.9333 12.4204 12.4204 14.9333 9.33333 14.9333C6.24622 14.9333 3.73333 12.4204 3.73333 9.33333ZM9.33333 87.7333C6.24622 87.7333 3.73333 85.2204 3.73333 82.1333C3.73333 79.0462 6.24622 76.5333 9.33333 76.5333C12.4204 76.5333 14.9333 79.0462 14.9333 82.1333C14.9333 85.2204 12.4204 87.7333 9.33333 87.7333ZM26.1333 104.533C23.0462 104.533 20.5333 102.02 20.5333 98.9333C20.5333 95.8462 23.0462 93.3333 26.1333 93.3333C29.2204 93.3333 31.7333 95.8462 31.7333 98.9333C31.7333 102.02 29.2204 104.533 26.1333 104.533ZM102.667 59.7333C105.754 59.7333 108.267 62.2462 108.267 65.3333C108.267 68.4204 105.754 70.9333 102.667 70.9333C99.5796 70.9333 97.0667 68.4204 97.0667 65.3333C97.0667 62.2462 99.5796 59.7333 102.667 59.7333ZM78.6069 37.4527C79.44 33.1352 83.2462 29.8667 87.7333 29.8667H91.4667C95.9538 29.8667 99.76 33.1352 100.593 37.4527C97.5051 39.7132 93.7125 41.0667 89.6 41.0667C85.4875 41.0667 81.6949 39.7132 78.6069 37.4527ZM89.6 26.1333C86.5129 26.1333 84 23.6204 84 20.5333C84 17.4462 86.5129 14.9333 89.6 14.9333C92.6871 14.9333 95.2 17.4462 95.2 20.5333C95.2 23.6204 92.6871 26.1333 89.6 26.1333ZM89.6 3.73333C99.8931 3.73333 108.267 12.1069 108.267 22.4C108.267 27.0667 106.532 31.3305 103.689 34.6063C102.381 31.1618 99.6543 28.4129 96.2564 27.0557C97.9089 25.3714 98.9333 23.0717 98.9333 20.5333C98.9333 15.3872 94.7461 11.2 89.6 11.2C84.4539 11.2 80.2667 15.3872 80.2667 20.5333C80.2667 23.0717 81.2911 25.3714 82.9436 27.0557C79.5457 28.4129 76.8186 31.1618 75.5107 34.6063C72.6678 31.3305 70.9333 27.0667 70.9333 22.4C70.9333 12.1069 79.3069 3.73333 89.6 3.73333ZM9.33333 48.5333C9.33333 38.2402 17.7069 29.8667 28 29.8667C38.2931 29.8667 46.6667 38.2402 46.6667 48.5333C46.6667 53.2146 44.9212 57.4893 42.0638 60.7697C40.7604 57.3125 38.0279 54.5499 34.6208 53.1891C36.2715 51.5047 37.296 49.2051 37.296 46.6667C37.296 41.5206 33.1087 37.3333 27.9626 37.3333C22.8165 37.3333 18.6293 41.5206 18.6293 46.6667C18.6293 49.2051 19.6538 51.5047 21.3062 53.1891C17.9184 54.5398 15.1949 57.2788 13.8824 60.7095C11.056 57.4374 9.33333 53.1872 9.33333 48.5333ZM22.3626 46.6667C22.3626 43.5796 24.8755 41.0667 27.9626 41.0667C31.0497 41.0667 33.5626 43.5796 33.5626 46.6667C33.5626 49.7538 31.0497 52.2667 27.9626 52.2667C24.8755 52.2667 22.3626 49.7538 22.3626 46.6667ZM16.9759 63.5615C17.8172 59.2557 21.618 56 26.096 56H29.8293C34.3246 56 38.1382 59.2794 38.9594 63.6107C35.8777 65.8574 32.097 67.2 28 67.2C23.8729 67.2 20.0685 65.8374 16.9759 63.5615ZM54.3092 104.628C55.1505 100.322 58.9513 97.0667 63.4293 97.0667H67.1626C71.6579 97.0667 75.4715 100.346 76.2927 104.677C73.2111 106.924 69.4303 108.267 65.3333 108.267C61.2062 108.267 57.4018 106.904 54.3092 104.628ZM65.296 93.3333C62.2089 93.3333 59.696 90.8204 59.696 87.7333C59.696 84.6462 62.2089 82.1333 65.296 82.1333C68.3831 82.1333 70.896 84.6462 70.896 87.7333C70.896 90.8204 68.3831 93.3333 65.296 93.3333ZM84 89.6C84 94.2812 82.2546 98.556 79.3971 101.836C78.0938 98.3792 75.3612 95.6165 71.9542 94.2557C73.6048 92.5714 74.6293 90.2717 74.6293 87.7333C74.6293 82.5872 70.4421 78.4 65.296 78.4C60.1499 78.4 55.9626 82.5872 55.9626 87.7333C55.9626 90.2717 56.9871 92.5714 58.6396 94.2557C55.2517 95.6065 52.5283 98.3454 51.2158 101.776C48.3893 98.504 46.6667 94.2539 46.6667 89.6C46.6667 79.3069 55.0402 70.9333 65.3333 70.9333C75.6264 70.9333 84 79.3069 84 89.6ZM71.1557 67.9948C69.2964 67.4935 67.3495 67.2 65.3333 67.2C60.2109 67.2 55.4996 68.9473 51.7216 71.8521L44.3743 63.7693C48.1004 59.7671 50.4 54.4204 50.4 48.5333C50.4 46.0879 49.9935 43.74 49.2652 41.5352L69.7949 32.8344C72.0945 37.182 75.785 40.6711 80.2685 42.7374L71.1557 67.9948Z" fill="#E7FB7A"/>
</svg>
