<svg width="73" height="112" viewBox="0 0 73 112" fill="none" xmlns="http://www.w3.org/2000/svg">
<path d="M27.0258 21.4665L25.8157 30.6203C25.7234 31.3097 26.024 31.9972 26.5916 32.3999C26.9158 32.6298 27.2968 32.7476 27.6799 32.7476C27.9706 32.7476 28.2613 32.6789 28.5285 32.5433L36.7629 28.3731L45.0916 32.3528C45.3489 32.4765 45.6259 32.5355 45.9029 32.5355C45.9127 32.5335 45.9264 32.5355 45.9402 32.5355C46.9774 32.5355 47.8201 31.6947 47.8201 30.6556C47.8201 30.4258 47.7788 30.2058 47.7042 30.0015L46.337 21.2446L52.6975 14.5521C53.1768 14.0473 53.3378 13.3166 53.1159 12.6565C52.8919 11.9965 52.3223 11.5133 51.6328 11.4033L42.5184 9.93793L38.1202 1.82136C37.7863 1.21046 37.1656 0.762591 36.4447 0.837235C35.7473 0.845093 35.1129 1.23992 34.7927 1.86065L30.5831 10.0754L21.5041 11.751C20.8185 11.8767 20.2587 12.3737 20.0505 13.0396C19.8422 13.7055 20.021 14.4303 20.514 14.9253L27.0258 21.4665ZM32.1742 13.6034C32.7478 13.4973 33.2409 13.1319 33.5061 12.6114L36.5115 6.74591L39.6504 12.5387C39.9294 13.0514 40.4283 13.4069 41.0058 13.4992L47.5136 14.5462L42.9721 19.3254C42.5714 19.7477 42.3867 20.3331 42.4771 20.9106L43.4927 27.4223L37.5467 24.58C37.0202 24.3285 36.4054 24.3344 35.8868 24.5996L30.0076 27.5775L30.8719 21.0422C30.9485 20.4647 30.7521 19.8833 30.3396 19.4708L25.692 14.7996L32.1742 13.6034Z" fill="#224442"/>
<path d="M72.586 26.0276C72.362 25.3676 71.7924 24.8844 71.1029 24.7744L66.6262 24.0555L64.4655 20.0699C64.1335 19.455 63.4637 19.0464 62.7919 19.0857C62.0945 19.0936 61.4601 19.4884 61.1399 20.1091L59.0734 24.1419L54.6144 24.9649C53.9289 25.0907 53.369 25.5876 53.1608 26.2535C52.9526 26.9194 53.1314 27.6443 53.6244 28.1393L56.8223 31.3509L56.2271 35.8473C56.1348 36.5368 56.4353 37.2243 57.003 37.6269C57.3252 37.8568 57.7063 37.9746 58.0893 37.9746C58.38 37.9746 58.6707 37.9059 58.9398 37.7703L62.9844 35.7216L67.0741 37.6761C67.3373 37.8018 67.5868 37.8371 67.903 37.8587C68.9932 37.8273 69.8006 37.0239 69.8006 35.9789C69.8006 35.7491 69.7593 35.5291 69.6847 35.3248L69.0423 31.2095L72.1656 27.9252C72.6469 27.4203 72.8079 26.6896 72.586 26.0276ZM65.6814 29.2904C65.2787 29.7147 65.096 30.3 65.1864 30.8756L65.4791 32.7456L63.7721 31.9285C63.2456 31.677 62.6308 31.6829 62.1122 31.9481L60.4249 32.8045L60.6724 30.9267C60.749 30.3491 60.5525 29.7677 60.14 29.3552L58.8063 28.0136L60.6684 27.6698C61.242 27.5637 61.7351 27.1984 62.0003 26.6778L62.8626 24.9944L63.7642 26.6582C64.0412 27.1709 64.5421 27.5264 65.1176 27.6187L66.9857 27.9193L65.6814 29.2904Z" fill="#224442"/>
<path d="M4.2377 31.3509L3.64251 35.8473C3.55019 36.5368 3.84877 37.2243 4.41842 37.6269C4.74253 37.8568 5.12361 37.9746 5.50665 37.9746C5.79737 37.9746 6.08809 37.9059 6.3572 37.7703L10.4017 35.7216L14.4934 37.6761C14.7566 37.8018 15.0061 37.8371 15.3224 37.8587C16.3202 37.8273 17.2199 37.0239 17.2199 35.9789C17.2199 35.7491 17.1786 35.5291 17.104 35.3248L16.4617 31.2095L19.5849 27.9252C20.0662 27.4184 20.2273 26.6877 20.0033 26.0276C19.7794 25.3676 19.2098 24.8844 18.5203 24.7744L14.0436 24.0555L11.8828 20.0699C11.5509 19.455 10.9537 19.0464 10.2092 19.0857C9.5119 19.0936 8.87743 19.4884 8.55724 20.1091L6.49078 24.1439L2.03177 24.9669C1.34622 25.0926 0.786392 25.5896 0.578175 26.2555C0.369957 26.9214 0.54871 27.6462 1.04175 28.1413L4.2377 31.3509ZM8.08188 27.6718C8.65546 27.5657 9.1485 27.2003 9.41369 26.6798L10.276 24.9964L11.1776 26.6602C11.4546 27.1728 11.9555 27.5284 12.5311 27.6207L14.3991 27.9212L13.0948 29.2904C12.6921 29.7147 12.5095 30.3 12.5998 30.8756L12.8925 32.7456L11.1855 31.9285C10.661 31.677 10.0482 31.6829 9.52565 31.9481L7.83634 32.8045L8.08581 30.9267C8.16242 30.3491 7.96598 29.7677 7.55348 29.3552L6.2197 28.0136L8.08188 27.6718Z" fill="#224442"/>
<path d="M64.2081 49.7508H61.297C61.0966 48.3306 60.639 47.0518 59.8906 45.942C57.5805 42.5182 53.5438 42.0565 53.3729 42.0408C53.3081 42.033 53.2453 42.029 53.1785 42.029L19.1427 42.0094C19.0779 42.0094 19.0111 42.0133 18.9463 42.0212C18.7754 42.0369 14.7387 42.4985 12.4267 45.9223C11.6744 47.0381 11.2147 48.3247 11.0163 49.7508H7.23892C5.31389 49.7508 3.33974 49.9433 1.96472 51.3458C0.884345 52.4458 0.399158 54.0291 0.440408 56.3352C0.662377 69.0856 15.2258 73.3816 23.5133 73.9591C23.6528 74.0946 23.7922 74.2282 23.9337 74.3657L24.3698 74.788C25.0848 75.4794 25.7585 76.0923 26.3832 76.66C28.5105 78.5929 29.7166 79.7106 29.9131 81.5256C29.9131 81.5315 29.9091 81.5354 29.9091 81.5433C29.9091 81.5924 29.9327 81.6356 29.9366 81.6828C30.0191 82.8162 29.7245 84.2266 29.0154 86.2655C28.428 87.8095 26.3655 91.9346 23.8119 92.8755H23.6822C19.3156 92.8755 15.7641 96.427 15.7641 100.794V110.12C15.7641 111.159 16.6048 112 17.6439 112H55.4708C56.508 112 57.3507 111.159 57.3507 110.12V100.794C57.3507 96.4289 53.7992 92.8755 49.4325 92.8755H48.4562C45.9203 91.9031 43.8774 87.8213 43.3117 86.3323C42.5849 84.2383 42.2863 82.8005 42.3826 81.6494C42.3845 81.6121 42.4042 81.5787 42.4042 81.5413C42.4042 81.5335 42.4002 81.5276 42.4002 81.5217C42.6026 79.7126 43.8146 78.6008 45.9282 76.6796C46.5509 76.1139 47.2266 75.4991 47.9416 74.8076L48.3757 74.3873C48.523 74.2439 48.6664 74.1044 48.8138 73.963C59.368 73.2598 70.5706 67.522 70.7552 56.3332C70.7945 53.9918 70.3113 52.3928 69.2348 51.2987C67.905 49.9394 66.033 49.7508 64.2081 49.7508ZM53.5969 100.796V108.242H19.5277V100.796C19.5277 98.5032 21.3938 96.6371 23.6862 96.6371H48.0693H49.4364C51.7308 96.6391 53.5969 98.5032 53.5969 100.796ZM4.20208 56.2704C4.17458 54.7028 4.46923 54.1626 4.64798 53.9819C5.06245 53.5616 6.32747 53.5125 7.24285 53.5125H11.0831C11.2029 54.31 11.3719 55.133 11.6194 55.9954C13.3813 62.1358 15.9625 66.0212 19.1682 69.559C12.3658 68.127 4.34351 64.3378 4.20208 56.2704ZM42.7185 92.8696L29.5909 92.8578C31.3765 90.5556 32.3744 88.0216 32.5531 87.5482C33.1031 85.965 33.4272 84.6155 33.5805 83.4232H38.7427C38.8939 84.6332 39.222 86.0023 39.7818 87.615C39.9507 88.0609 40.9408 90.5752 42.7185 92.8696ZM45.7691 71.6863L45.333 72.1067C44.6474 72.7706 44.0012 73.358 43.406 73.9001C41.2551 75.8546 39.6443 77.4673 38.9804 79.6634H33.3526C32.6906 77.4595 31.074 75.8409 28.9132 73.8766C28.3161 73.3344 27.6718 72.7471 26.9862 72.0851L26.5501 71.6628C21.3113 66.5968 17.5241 62.9353 15.2357 54.9562C14.3753 51.9646 14.4755 49.6408 15.5284 48.0516C16.7128 46.268 18.8657 45.8359 19.2723 45.7671L53.0508 45.7868C53.4594 45.8536 55.5808 46.272 56.7732 48.0418C57.8457 49.631 57.9498 51.9646 57.0855 54.9778C54.7971 62.9589 51.0099 66.6184 45.7691 71.6863ZM53.2178 69.504C56.3941 65.9878 58.9496 62.1142 60.6999 56.017C60.9493 55.1448 61.1202 54.3159 61.24 53.5105H64.2081C64.6874 53.5105 66.143 53.5105 66.5614 53.9348C66.7028 54.0801 67.0309 54.5948 67.0034 56.2723C66.8698 64.2357 59.5448 68.0307 53.2178 69.504Z" fill="#224442"/>
<path d="M44.015 54.3708H28.3044C27.2673 54.3708 26.4246 55.2116 26.4246 56.2507C26.4246 57.2898 27.2653 58.1306 28.3044 58.1306H44.015C45.0522 58.1306 45.8949 57.2898 45.8949 56.2507C45.8949 55.2116 45.0542 54.3708 44.015 54.3708Z" fill="#224442"/>
<path d="M40.102 62.2067H32.2192C31.182 62.2067 30.3394 63.0474 30.3394 64.0865C30.3394 65.1256 31.1801 65.9664 32.2192 65.9664H40.102C41.1392 65.9664 41.9819 65.1256 41.9819 64.0865C41.9819 63.0474 41.1411 62.2067 40.102 62.2067Z" fill="#224442"/>
</svg>
