<svg width="112" height="112" viewBox="0 0 112 112" fill="none" xmlns="http://www.w3.org/2000/svg">
<g clip-path="url(#clip0_1_229)">
<path d="M63.0002 112H49.0002C45.7335 112 42.0002 109.2 42.0002 103.6V93.8C42.0002 89.1334 39.6668 84.9334 35.9335 81.6667C27.5335 75.1334 23.3335 65.8 23.3335 55.5334C23.8002 37.8 38.2668 23.8 55.5335 23.3334C64.4002 23.3334 72.8002 26.6 78.8668 32.6667C84.9335 38.7334 88.6668 47.1334 88.6668 56C88.6668 65.8 84.4668 75.1334 76.5335 81.2C72.3335 84.4667 70.0002 89.6001 70.0002 94.2667V105C70.0002 108.733 66.7335 112 63.0002 112ZM56.0002 28C41.0668 28 28.4668 40.6 28.0002 55.5334C28.0002 64.4 31.7335 72.8 38.7335 77.9334C43.8668 82.1334 46.6668 87.7334 46.6668 93.8V103.6C46.6668 104.533 46.6668 107.333 49.0002 107.333H63.0002C64.4002 107.333 65.3335 106.4 65.3335 105V94.2667C65.3335 88.2001 68.6002 81.6667 73.7335 77.4667C80.2668 72.3334 84.0002 64.4 84.0002 56C84.0002 48.5334 81.2002 41.5334 75.6002 35.9334C70.4668 30.8 63.4668 28 56.0002 28Z" fill="#224442"/>
<path d="M67.6667 98H44.3333C42.9333 98 42 97.0667 42 95.6667C42 94.2667 42.9333 93.3334 44.3333 93.3334H67.6667C69.0667 93.3334 70 94.2667 70 95.6667C70 97.0667 69.0667 98 67.6667 98Z" fill="#224442"/>
<path d="M55.9998 14C54.5998 14 53.6665 13.0667 53.6665 11.6667V2.33333C53.6665 0.933333 54.5998 0 55.9998 0C57.3998 0 58.3332 0.933333 58.3332 2.33333V11.6667C58.3332 13.0667 57.3998 14 55.9998 14Z" fill="#224442"/>
<path d="M87.2669 27.0666C86.8002 27.0666 85.8669 27.0666 85.4002 26.6C84.4669 25.6666 84.4669 24.2666 85.4002 23.3333L91.9335 16.8C92.8669 15.8666 94.2669 15.8666 95.2002 16.8C96.1335 17.7333 96.1335 19.1333 95.2002 20.0666L88.6669 26.6C88.6669 26.6 87.7335 27.0666 87.2669 27.0666Z" fill="#224442"/>
<path d="M109.667 58.3333H100.333C98.9333 58.3333 98 57.4 98 56C98 54.6 98.9333 53.6666 100.333 53.6666H109.667C111.067 53.6666 112 54.6 112 56C112 57.4 111.067 58.3333 109.667 58.3333Z" fill="#224442"/>
<path d="M93.8002 96.1333C93.3335 96.1333 92.4002 96.1333 91.9335 95.6666L85.4002 89.1333C84.4669 88.2 84.4669 86.8 85.4002 85.8666C86.3335 84.9333 87.7335 84.9333 88.6669 85.8666L95.2002 92.4C96.1335 93.3333 96.1335 94.7333 95.2002 95.6666C95.2002 96.1333 94.7335 96.1333 93.8002 96.1333Z" fill="#224442"/>
<path d="M18.2 96.1333C17.7333 96.1333 16.8 96.1333 16.3333 95.6666C15.4 94.7333 15.4 93.3333 16.3333 92.4L22.8666 85.8666C23.8 84.9333 25.2 84.9333 26.1333 85.8666C27.0666 86.8 27.0666 88.2 26.1333 89.1333L19.6 95.6666C19.1333 96.1333 18.6666 96.1333 18.2 96.1333Z" fill="#224442"/>
<path d="M11.6667 58.3333H2.33333C0.933333 58.3333 0 57.4 0 56C0 54.6 0.933333 53.6666 2.33333 53.6666H11.6667C13.0667 53.6666 14 54.6 14 56C14 57.4 13.0667 58.3333 11.6667 58.3333Z" fill="#224442"/>
<path d="M24.7333 27.0666C24.2666 27.0666 23.3333 27.0666 22.8666 26.6L16.3333 19.6C15.4 18.6666 15.4 17.2666 16.3333 16.3333C17.2666 15.4 18.6666 15.4 19.6 16.3333L26.1333 22.8666C27.0666 23.8 27.0666 25.2 26.1333 26.1333C25.6666 26.6 25.2 27.0666 24.7333 27.0666Z" fill="#224442"/>
<path d="M74.6665 58.3333C73.2665 58.3333 72.3332 57.4 72.3332 56C72.3332 47.1333 64.8665 39.6667 55.9998 39.6667C54.5998 39.6667 53.6665 38.7333 53.6665 37.3333C53.6665 35.9333 54.5998 35 55.9998 35C67.6665 35 76.9998 44.3333 76.9998 56C76.9998 57.4 76.0665 58.3333 74.6665 58.3333Z" fill="#224442"/>
</g>
<defs>
<clipPath id="clip0_1_229">
<rect width="112" height="112" fill="white"/>
</clipPath>
</defs>
</svg>
