<?xml version="1.0" encoding="UTF-8"?>
<svg id="Layer_1" data-name="Layer 1" xmlns="http://www.w3.org/2000/svg" viewBox="0 0 1080 357.28">
  <defs>
    <style>
      .cls-1 {
        fill: #231f20;
      }
    </style>
  </defs>
  <path class="cls-1" d="M1049.1,16.49c2.61,0,4.23.55,5.35,1.49,1.29,1.04,1.87,2.64,1.87,4.31,0,4.58-2.84,6.51-8,6.51h-2.91v-9.89c0-2.1.07-2.42,1-2.42h2.69ZM1039.46,15.02v1.17c2.87,0,3.11.15,3.11,2.99v20.31c0,2.79-.23,3.02-3.11,3.02v1.17h9.09v-1.17c-2.94,0-3.14-.15-3.14-2.99v-9.2h3.81l7.72,13.36h4.89v-1.17c-1.9,0-2.44-.32-3.96-2.76l-5.78-9.82c4.03-.62,7.22-3.31,7.22-7.53,0-2.52-.9-4.31-2.64-5.56-1.9-1.39-3.99-1.82-7.45-1.82h-9.76Z"/>
  <g>
    <path class="cls-1" d="M33.19,176.01c2.41-2.14,3.41-4.99,3.41-9.09l-.08-102.95c0-4.09-1.02-7.13-3.42-9.25v-.2h16.25c20-.02,33.34,9.61,33.36,24.07,0,14.1-12.83,24.09-30.49,24.1h-8.04v3.04l10.64-.02c24.87-.02,42.75,15.32,42.76,36.72.05,20.33-16.55,33.89-41.51,33.93l-22.89.02v-.37ZM52.15,51.29l-48.98.05v1.59h7.02c9.64-.02,10.66.89,10.66,9.47l.08,106.14c.03,8.57-1,9.44-10.62,9.45H3.27v1.62l56.41-.05c31.14-.02,55.41-14.87,55.41-37.15-.03-18.19-18.51-36.92-44.23-38.5v-.72c18.28-2.14,28.9-14.82,28.9-24.99-.02-16.15-19.04-26.91-47.54-26.91h-.07Z"/>
    <path class="cls-1" d="M210.63,72.96c-33.69.02-61.09,23.95-61.04,53.56.02,32.64,24.27,54.39,60.54,54.37,25.11-.02,44.42-10.49,53.92-27.8l-3.04-1.77c-8.84,16.5-27.11,26.34-50.88,26.36-23.94.02-43.47-24.21-43.48-54.04-.02-28.46,17.29-47.44,43.18-47.47,22.42-.02,37.35,15.67,37.37,39.22,0,1.05-.38,1.59-1.59,1.59l-43.03.03c-13.06.02-23.65,8.29-23.64,18.48,0,4.44,3.88,8.05,8.65,8.03l-.02-10.16c0-6.9,6.72-12.5,15.03-12.5l55.04.57c3.42,0,6.16-2.31,6.16-5.16v-.9c-.02-25.46-21.23-42.41-53.07-42.41h-.12Z"/>
    <path class="cls-1" d="M295.5,79.5v1.6h9.02c3.94,0,6.03,1.94,6.03,5.35l.07,71.71c.03,12.8,9.96,23.19,21.72,23.19,11.09-.03,18.48-6.31,18.44-15.74,0-2.07-.37-4.04-1.04-5.9l-1.64.72c.55,1.57.9,3.31.9,5.18,0,6.33-4.66,10.54-11.68,10.54s-12.9-4.91-12.9-10.98c0-2.19.55-4.59,1.85-7.22l-.07-73.5v-15.15h-1.62v.72c0,7.3-9.82,9.44-18.04,9.44l-11.06.03ZM309.33,44.52c0,4.99,3.83,8.02,9.04,8.02,5.6,0,8.84-3.39,8.84-8.04,0-4.99-3.64-7.85-8.84-7.85-5.65,0-9.05,3.21-9.04,7.87"/>
    <path class="cls-1" d="M403.88,67.28v.72c.03,7.3-6.8,11.61-14.83,13.03l-15.44,2.87.2,1.07,11.84-.9c.27-.03.5-.03.79-.03,3.98,0,6.63,2.54,6.65,5.73l.07,78.5c.02,8.57-1,9.45-10.66,9.47h-7v1.59l51.18-.02v-1.6h-7.02c-9.64,0-10.84-.89-10.86-9.44l-.03-48.89c-.03-26.04,15.62-43.53,36.1-43.55,14.08,0,19.68,9.39,19.69,26.91l.05,55.33c.02,12.78,9.72,23.17,21.68,23.15,11.09,0,18.49-6.3,18.46-15.7,0-8.02-5.81-14.8-11.44-17.84-4.71.02-7.82,1.09-7.82,2.69,9.24,1.07,17.44,5.53,17.46,15.15,0,6.33-4.63,10.54-11.64,10.54-7.73.02-12.9-4.39-12.9-10.99,0-2.19.55-4.59,1.85-7.2l-.07-58.17c0-16.17-12.08-26.91-33.74-26.91-16.65.02-30.92,9.82-36.72,25.01-1.17,3.06-2.81,8.39-3.19,11.59h-1.42c.22-1.59.42-15.87.42-18.73l-.05-23.37h-1.62Z"/>
    <path class="cls-1" d="M551.51,105.52c-.02-17.87,15.77-29.8,39.51-29.82,22.6,0,40.99,15.47,41.01,34.58,0,20.23-16.35,33.73-40.93,33.74h-.03c-21.82,0-39.56-17.24-39.56-38.5M647.73,63.13c-7.65,3.94-11.78,11.18-11.78,18.73,0,1.15.12,2.34.28,3.49-9.92-8-25.79-12.7-45.4-12.68-30.37.03-54.99,15.87-54.98,35.36,0,18.93,14.23,32.79,36.95,37.47v1.75c.05,24.82,26.53,25.27,47.91,25.29,14.48.03,26.61,1.1,26.61,8.9,0,9.86-24.04,17.51-51.17,17.54-31.94.02-55.23-6.95-55.23-16.57,0-6.4,7.18-11.61,16.04-11.61,4.99,0,9.04-3.44,9.04-7.67h-4.01c-13.65.03-24.69,8.65-24.67,19.28.02,16.09,24.76,28.53,58.83,28.5,29.15,0,54.83-13.7,54.79-29.47-.02-20.13-17.89-21.93-36.17-21.92h-12.45c-14.07.03-25.91-1.15-25.93-12.28v-1.1c4.56.72,9.37,1.09,14.47,1.09,31.37-.02,56.8-17.61,56.78-39.27,0-5.9-1.75-11.24-5.03-15.89-1.32-2.1-1.94-4.41-1.94-6.7,0-5.43,3.46-10.79,8.84-13.55,2.39-1.24,3.31-3.14,3.31-5.28,0-1.79-.53-3.57-1.62-5.2l-3.49,1.77Z"/>
    <path class="cls-1" d="M760.24,45.78l.62,9.45c.18,2.49.4,4.48.8,5.7l-1.4.37c-.22-.53-1.82-3.21-3.22-4.09-6.23-4.09-14.65-7.83-26.71-7.83-23.72.02-39.54,11.59-39.52,28.93.02,20.8,18.19,30.72,35.56,39.99,15.74,8.37,30.54,17.46,30.55,32.93,0,15.57-11.98,26.06-30,26.06-18.99.02-35.06-13.61-36.27-34.73l-.4-7.3-3.61.15,2.66,48.69,1.82-.08-.62-11.14c-.12-2.15-.42-5.9-.82-7.67l.8-.2c.62,1.6,3.62,4.99,5.03,5.88,10.31,6.35,19.38,9.59,31.72,9.57,26.86-.02,44.79-12.86,44.75-32.09-.02-22.38-19.09-33.64-36.92-43.15-15.64-8.32-30.2-16.12-30.2-30.85-.02-14.15,9.15-21.77,25.46-21.77,19.9-.02,29.33,13.85,30.15,27.96l.42,7.48,3.59-.15-2.22-42.11h-2.02Z"/>
    <path class="cls-1" d="M832.91,31.46h-1.6v.72c0,7.3-9.86,9.45-18.07,9.47h-11.43v1.6l9.4-.02c3.94,0,6.03,1.95,6.06,5.36l.08,119.34c.02,8.57-.99,9.47-10.61,9.47h-7.03v1.6l51.18-.03v-1.6h-7c-9.66.02-10.87-.89-10.89-9.44l-.02-48.88c-.02-26.04,15.62-43.53,36.08-43.55,14.08-.02,19.69,9.4,19.71,26.91l.05,55.31c.02,12.8,9.72,23.17,21.7,23.17,11.08-.02,18.48-6.3,18.44-15.7,0-8.03-5.83-14.82-11.44-17.84-4.71,0-7.82,1.07-7.82,2.69,9.22,1.05,17.44,5.51,17.47,15.15,0,6.3-4.66,10.52-11.63,10.52-7.78,0-12.95-4.39-12.95-10.98,0-2.19.58-4.61,1.87-7.22l-.07-58.17c0-16.15-12.06-26.91-33.74-26.89-16.65,0-30.9,9.84-36.72,24.99-1.17,3.04-2.81,8.4-3.21,11.61h-1.37c.18-1.6,3.56-29.28,3.54-46.39l-.02-31.22Z"/>
    <path class="cls-1" d="M1019.4,72.36h-.12c-33.64.02-61.04,23.95-61.01,53.57.02,32.64,24.27,54.39,60.52,54.36,25.14-.02,44.45-10.49,53.94-27.8l-3.04-1.75c-8.87,16.49-27.1,26.33-50.9,26.34-23.94.03-43.45-24.19-43.47-54.02-.05-28.48,17.27-47.46,43.18-47.49,22.38-.02,37.35,15.67,37.37,39.22,0,1.05-.4,1.6-1.62,1.6l-43.03.03c-13.01.02-23.62,8.3-23.62,18.49,0,4.43,3.89,8.02,8.65,8.02v-10.16c-.02-6.92,6.73-12.51,15.02-12.51l55.06.58c3.42,0,6.13-2.34,6.13-5.2v-.89c-.02-25.44-21.2-42.41-53.07-42.41"/>
    <polygon class="cls-1" points="1076.07 212.98 1076.07 196.88 661.29 198.28 661.3 214.37 1076.07 212.98"/>
    <polygon class="cls-1" points="0 200.52 0 216.63 522.02 214.81 522.02 198.8 0 200.52"/>
    <path class="cls-1" d="M1068.14,11.86c-4.48-4.48-10.66-7.25-17.49-7.25s-13.01,2.77-17.49,7.25c-4.48,4.48-7.25,10.66-7.25,17.49s2.77,13.01,7.25,17.49c4.48,4.48,10.66,7.25,17.49,7.25s13.01-2.77,17.49-7.25c4.48-4.48,7.25-10.66,7.25-17.49s-2.77-13.01-7.25-17.49M1050.65,0c8.1,0,15.44,3.29,20.75,8.6,5.31,5.31,8.6,12.65,8.6,20.75s-3.29,15.44-8.6,20.75c-5.31,5.31-12.65,8.6-20.75,8.6s-15.44-3.29-20.75-8.6c-5.31-5.31-8.6-12.65-8.6-20.75s3.29-15.44,8.6-20.75c5.31-5.31,12.65-8.6,20.75-8.6"/>
    <path class="cls-1" d="M123.39,261.06v24.07h-1.95c-.63-4.63-1.79-8.3-3.42-11.04-1.64-2.74-3.98-4.89-7.02-6.51-3.04-1.6-6.18-2.41-9.44-2.41-3.68,0-6.7,1.09-9.1,3.26-2.41,2.17-3.61,4.64-3.61,7.42,0,2.12.75,4.06,2.27,5.8,2.19,2.57,7.4,6,15.64,10.27,6.72,3.49,11.29,6.16,13.75,8.03,2.46,1.85,4.34,4.06,5.66,6.6,1.34,2.52,2,5.18,2,7.95,0,5.26-2.12,9.81-6.33,13.63-4.23,3.81-9.66,5.71-16.3,5.71-2.09,0-4.04-.15-5.88-.45-1.1-.17-3.36-.8-6.82-1.87-3.44-1.09-5.61-1.62-6.53-1.62s-1.59.25-2.1.77c-.5.52-.89,1.57-1.14,3.17h-1.95v-23.85h1.95c.92,4.98,2.15,8.72,3.71,11.21,1.55,2.47,3.93,4.54,7.13,6.18,3.19,1.64,6.7,2.47,10.51,2.47,4.43,0,7.92-1.14,10.47-3.39,2.56-2.26,3.84-4.93,3.84-8.02,0-1.7-.48-3.42-1.45-5.18-.99-1.74-2.49-3.37-4.54-4.88-1.37-1.02-5.13-3.21-11.28-6.55-6.15-3.32-10.52-6-13.11-7.97-2.61-1.99-4.58-4.18-5.91-6.58-1.34-2.39-2-5.03-2-7.9,0-4.99,1.97-9.3,5.93-12.91,3.96-3.61,8.99-5.41,15.1-5.41,3.81,0,7.85.9,12.13,2.72,1.99.85,3.37,1.29,4.19,1.29.92,0,1.67-.27,2.26-.8.58-.53,1.05-1.6,1.4-3.21h1.95Z"/>
    <path class="cls-1" d="M147.28,299.97h22.47c-.18-3.02-.55-5.15-1.12-6.38-.89-1.9-2.19-3.41-3.94-4.51-1.75-1.09-3.57-1.64-5.48-1.64-2.94,0-5.56,1.1-7.87,3.31-2.32,2.21-3.68,5.28-4.06,9.22M147.28,302.95c-.03,6.98,1.7,12.46,5.25,16.42,3.52,3.98,7.68,5.96,12.45,5.96,3.19,0,5.95-.85,8.3-2.56,2.34-1.69,4.31-4.58,5.9-8.69l1.65,1.02c-.75,4.69-2.91,8.95-6.46,12.81-3.57,3.84-8.03,5.76-13.41,5.76-5.83,0-10.81-2.19-14.97-6.58-4.14-4.41-6.23-10.32-6.23-17.74,0-8.03,2.14-14.32,6.4-18.81,4.26-4.51,9.59-6.75,16.02-6.75,5.45,0,9.92,1.74,13.41,5.21,3.49,3.47,5.25,8.12,5.25,13.93h-33.54Z"/>
    <path class="cls-1" d="M197.17,299.97h22.47c-.18-3.02-.55-5.15-1.12-6.38-.89-1.9-2.19-3.41-3.94-4.51-1.75-1.09-3.57-1.64-5.48-1.64-2.94,0-5.56,1.1-7.87,3.31-2.32,2.21-3.68,5.28-4.06,9.22M197.17,302.95c-.03,6.98,1.7,12.46,5.25,16.42,3.54,3.98,7.68,5.96,12.45,5.96,3.19,0,5.95-.85,8.3-2.56,2.34-1.69,4.31-4.58,5.91-8.69l1.64,1.02c-.75,4.69-2.89,8.95-6.46,12.81-3.57,3.84-8.03,5.76-13.41,5.76-5.81,0-10.81-2.19-14.97-6.58-4.14-4.41-6.21-10.32-6.21-17.74,0-8.03,2.12-14.32,6.38-18.81,4.26-4.51,9.61-6.75,16.02-6.75,5.45,0,9.92,1.74,13.41,5.21,3.49,3.47,5.25,8.12,5.25,13.93h-33.54Z"/>
    <path class="cls-1" d="M286.7,294.94h33.38v-19.91c0-3.56-.22-5.91-.68-7.03-.35-.87-1.1-1.59-2.22-2.21-1.52-.84-3.12-1.24-4.83-1.24h-2.54v-1.9h30.74v1.9h-2.56c-1.69,0-3.29.38-4.81,1.19-1.14.53-1.9,1.37-2.31,2.49-.42,1.1-.62,3.37-.62,6.8v44.92c0,3.52.23,5.85.7,6.97.35.87,1.07,1.6,2.17,2.22,1.55.82,3.17,1.22,4.86,1.22h2.56v1.9h-30.74v-1.9h2.54c2.94,0,5.08-.84,6.41-2.51.89-1.1,1.32-3.74,1.32-7.9v-21.2h-33.38v21.2c0,3.52.23,5.85.68,6.97.35.87,1.1,1.6,2.22,2.22,1.52.82,3.12,1.22,4.83,1.22h2.59v1.9h-30.77v-1.9h2.54c2.97,0,5.11-.84,6.46-2.51.85-1.1,1.27-3.74,1.27-7.9v-44.92c0-3.56-.23-5.91-.68-7.03-.35-.87-1.09-1.59-2.17-2.21-1.55-.84-3.19-1.24-4.88-1.24h-2.54v-1.9h30.77v1.9h-2.59c-1.7,0-3.31.38-4.83,1.19-1.09.53-1.85,1.37-2.27,2.49-.42,1.1-.63,3.37-.63,6.8v19.91Z"/>
    <path class="cls-1" d="M356.04,299.97h22.47c-.18-3.02-.55-5.15-1.12-6.38-.89-1.9-2.19-3.41-3.94-4.51-1.75-1.09-3.57-1.64-5.48-1.64-2.94,0-5.56,1.1-7.87,3.31-2.32,2.21-3.68,5.28-4.06,9.22M356.04,302.95c-.03,6.98,1.7,12.46,5.25,16.42,3.52,3.98,7.68,5.96,12.45,5.96,3.19,0,5.95-.85,8.3-2.56,2.34-1.69,4.31-4.58,5.9-8.69l1.65,1.02c-.75,4.69-2.91,8.95-6.46,12.81-3.57,3.84-8.03,5.76-13.41,5.76-5.83,0-10.81-2.19-14.97-6.58-4.14-4.41-6.23-10.32-6.23-17.74,0-8.03,2.14-14.32,6.4-18.81,4.26-4.51,9.59-6.75,16.02-6.75,5.45,0,9.91,1.74,13.41,5.21,3.49,3.47,5.25,8.12,5.25,13.93h-33.54Z"/>
    <path class="cls-1" d="M411.98,283.85v10.57c4.06-7.05,8.24-10.57,12.51-10.57,1.94,0,3.54.57,4.81,1.72,1.27,1.15,1.9,2.47,1.9,3.98,0,1.34-.45,2.46-1.37,3.39-.92.92-2.02,1.39-3.29,1.39s-2.62-.58-4.16-1.77c-1.54-1.19-2.67-1.77-3.41-1.77-.63,0-1.34.33-2.07,1.02-1.59,1.4-3.24,3.73-4.93,6.93v22.53c0,2.61.33,4.58,1,5.9.47.94,1.27,1.7,2.44,2.32,1.17.62,2.84.92,5.03.92v1.85h-24.84v-1.85c2.47,0,4.31-.37,5.51-1.14.89-.53,1.5-1.42,1.85-2.61.17-.58.27-2.24.27-4.98v-18.22c0-5.48-.12-8.74-.35-9.77-.23-1.05-.65-1.82-1.27-2.29-.62-.48-1.39-.72-2.31-.72-1.1,0-2.34.25-3.71.77l-.53-1.85,14.68-5.75h2.22Z"/>
    <path class="cls-1" d="M483.81,266.45v27.51h15.79c4.09,0,6.83-.6,8.22-1.79,1.84-1.59,2.86-4.36,3.07-8.32h1.95v24.22h-1.95c-.5-3.39-.99-5.56-1.49-6.51-.63-1.2-1.67-2.14-3.12-2.82-1.45-.68-3.68-1.04-6.68-1.04h-15.79v22.95c0,3.07.13,4.96.42,5.61.28.67.79,1.2,1.49,1.6.72.38,2.05.58,4.03.58h12.19c4.06,0,7.02-.27,8.84-.82,1.84-.55,3.61-1.62,5.31-3.24,2.19-2.12,4.43-5.31,6.72-9.59h2.12l-6.2,17.46h-55.36v-1.9h2.54c1.69,0,3.29-.4,4.83-1.19,1.12-.55,1.89-1.37,2.29-2.46.42-1.1.62-3.34.62-6.73v-45.22c0-4.41-.47-7.13-1.37-8.17-1.29-1.37-3.41-2.05-6.36-2.05h-2.54v-1.89h55.36l.8,15.23h-2.07c-.74-3.66-1.55-6.16-2.46-7.53-.9-1.37-2.24-2.42-4.01-3.14-1.4-.52-3.91-.77-7.47-.77h-19.71Z"/>
    <path class="cls-1" d="M546.95,293.86c3.52-3.42,5.61-5.4,6.25-5.9,1.59-1.3,3.31-2.32,5.15-3.04,1.84-.72,3.66-1.07,5.46-1.07,3.02,0,5.65.85,7.83,2.57,2.19,1.7,3.66,4.18,4.39,7.43,3.64-4.11,6.72-6.8,9.22-8.09,2.51-1.29,5.09-1.92,7.73-1.92s4.88.63,6.87,1.92c2,1.29,3.57,3.37,4.74,6.28.77,1.99,1.17,5.11,1.17,9.35v20.23c0,2.94.22,4.96.68,6.05.35.75,1,1.4,1.95,1.92.95.53,2.51.8,4.66.8v1.85h-23.94v-1.85h1c2.09,0,3.71-.4,4.88-1.19.8-.53,1.39-1.42,1.74-2.61.15-.58.22-2.26.22-4.98v-20.23c0-3.84-.47-6.55-1.44-8.12-1.37-2.19-3.57-3.27-6.62-3.27-1.87,0-3.76.45-5.65,1.35-1.89.9-4.18,2.59-6.85,5.06l-.12.57.12,2.21v22.43c0,3.21.18,5.21.55,6,.37.79,1.07,1.45,2.09,1.97,1.02.53,2.77.8,5.25.8v1.85h-24.54v-1.85c2.69,0,4.54-.32,5.55-.92,1-.62,1.7-1.55,2.09-2.77.18-.58.27-2.27.27-5.08v-20.23c0-3.84-.58-6.6-1.74-8.27-1.57-2.19-3.74-3.29-6.53-3.29-1.9,0-3.79.5-5.66,1.49-2.94,1.52-5.2,3.21-6.78,5.09v25.21c0,3.07.22,5.08.67,6,.43.92,1.09,1.62,1.95,2.09.87.45,2.62.68,5.26.68v1.85h-23.99v-1.85c2.22,0,3.78-.23,4.66-.68.89-.47,1.55-1.2,2-2.22.47-1,.7-2.96.7-5.86v-17.97c0-5.16-.17-8.5-.48-10.01-.25-1.14-.63-1.9-1.17-2.34-.52-.43-1.25-.63-2.17-.63-.99,0-2.17.25-3.54.77l-.8-1.85,14.63-5.75h2.27v10.01Z"/>
    <path class="cls-1" d="M632.14,298.07v17.56c0,3.79.17,6.3.48,7.48.48,1.99,1.69,3.73,3.62,5.25,1.92,1.5,4.34,2.26,7.28,2.26,3.52,0,6.4-1.34,8.59-4.01,2.86-3.49,4.29-8.4,4.29-14.73,0-7.18-1.64-12.71-4.88-16.57-2.26-2.67-4.94-4.01-8.05-4.01-1.7,0-3.37.42-5.04,1.24-1.27.62-3.37,2.46-6.3,5.55M615.19,289.91l14.93-5.85h2.02v10.98c2.51-4.13,5.03-7.03,7.55-8.7,2.52-1.65,5.18-2.49,7.97-2.49,4.88,0,8.94,1.85,12.19,5.55,3.99,4.53,5.98,10.41,5.98,17.66,0,8.12-2.39,14.82-7.2,20.13-3.96,4.34-8.94,6.51-14.95,6.51-2.61,0-4.86-.35-6.77-1.07-1.42-.52-3.01-1.54-4.78-3.09v14.33c0,3.21.2,5.26.62,6.13.4.87,1.1,1.57,2.1,2.07,1.02.52,2.84.77,5.5.77v1.9h-25.44v-1.9h1.32c1.95.03,3.61-.32,4.99-1.07.67-.38,1.19-.99,1.55-1.82.37-.84.55-2.97.55-6.4v-44.45c0-3.04-.13-4.98-.42-5.8-.28-.82-.73-1.44-1.35-1.85-.62-.4-1.45-.62-2.51-.62-.85,0-1.94.25-3.24.72l-.63-1.64Z"/>
    <path class="cls-1" d="M696.78,287.19c-1.89,0-3.76.53-5.65,1.62-1.89,1.07-3.42,2.96-4.59,5.66-1.15,2.71-1.74,6.18-1.74,10.42,0,6.85,1.4,12.75,4.21,17.71,2.81,4.96,6.51,7.45,11.11,7.45,3.42,0,6.25-1.37,8.47-4.11,2.22-2.74,3.34-7.45,3.34-14.12,0-8.35-1.85-14.92-5.56-19.71-2.51-3.29-5.71-4.93-9.59-4.93M698.41,283.85c7.35,0,13.25,2.71,17.69,8.1,3.79,4.63,5.68,9.94,5.68,15.92,0,4.21-1.05,8.47-3.12,12.78-2.09,4.31-4.96,7.57-8.62,9.76-3.66,2.19-7.72,3.29-12.21,3.29-7.32,0-13.11-2.82-17.42-8.47-3.64-4.76-5.46-10.09-5.46-16.02,0-4.31,1.1-8.59,3.31-12.85,2.2-4.28,5.11-7.42,8.72-9.45,3.61-2.04,7.42-3.06,11.44-3.06"/>
    <path class="cls-1" d="M727.97,285.24h20.35v1.9c-1.87.13-3.11.45-3.68.97-.58.52-.89,1.25-.89,2.21,0,1.07.3,2.36.9,3.86l10.39,27.05,10.44-22.02-2.76-6.93c-.85-2.05-1.95-3.47-3.34-4.26-.79-.48-2.22-.77-4.34-.87v-1.9h23.1v1.9c-2.54.1-4.34.53-5.41,1.32-.7.55-1.05,1.44-1.05,2.62,0,.68.13,1.39.42,2.1l11.03,27.01,10.22-26.03c.7-1.85,1.05-3.32,1.05-4.43,0-.63-.33-1.22-1.02-1.74-.7-.52-2.05-.8-4.06-.87v-1.9h15.32v1.9c-3.07.43-5.35,2.46-6.78,6.05l-16.22,40.51h-2.17l-12.13-30.04-14.15,30.04h-1.97l-15.57-39.52c-1.04-2.51-2.04-4.19-3.02-5.06-.99-.87-2.54-1.54-4.66-1.97v-1.9Z"/>
    <path class="cls-1" d="M818.93,299.97h22.47c-.18-3.02-.55-5.15-1.12-6.38-.89-1.9-2.19-3.41-3.94-4.51-1.75-1.09-3.57-1.64-5.48-1.64-2.94,0-5.56,1.1-7.87,3.31-2.32,2.21-3.68,5.28-4.06,9.22M818.93,302.95c-.03,6.98,1.7,12.46,5.25,16.42,3.52,3.98,7.68,5.96,12.45,5.96,3.19,0,5.95-.85,8.3-2.56,2.34-1.69,4.31-4.58,5.9-8.69l1.65,1.02c-.75,4.69-2.91,8.95-6.46,12.81-3.57,3.84-8.03,5.76-13.41,5.76-5.83,0-10.81-2.19-14.97-6.58-4.14-4.41-6.23-10.32-6.23-17.74,0-8.03,2.14-14.32,6.4-18.81,4.26-4.51,9.61-6.75,16.02-6.75,5.45,0,9.91,1.74,13.41,5.21,3.49,3.47,5.25,8.12,5.25,13.93h-33.54Z"/>
    <path class="cls-1" d="M874.87,283.85v10.57c4.06-7.05,8.24-10.57,12.5-10.57,1.95,0,3.56.57,4.83,1.72,1.27,1.15,1.9,2.47,1.9,3.98,0,1.34-.45,2.46-1.37,3.39-.92.92-2.02,1.39-3.29,1.39s-2.62-.58-4.16-1.77c-1.54-1.19-2.67-1.77-3.41-1.77-.63,0-1.34.33-2.07,1.02-1.59,1.4-3.22,3.73-4.93,6.93v22.53c0,2.61.33,4.58,1,5.9.47.94,1.27,1.7,2.44,2.32,1.17.62,2.84.92,5.03.92v1.85h-24.84v-1.85c2.47,0,4.31-.37,5.51-1.14.89-.53,1.5-1.42,1.85-2.61.17-.58.27-2.24.27-4.98v-18.22c0-5.48-.12-8.74-.35-9.77-.23-1.05-.65-1.82-1.27-2.29-.62-.48-1.39-.72-2.31-.72-1.1,0-2.34.25-3.71.77l-.53-1.85,14.68-5.75h2.22Z"/>
    <path class="cls-1" d="M906.7,299.97h22.47c-.18-3.02-.55-5.15-1.12-6.38-.89-1.9-2.19-3.41-3.94-4.51-1.75-1.09-3.57-1.64-5.48-1.64-2.94,0-5.56,1.1-7.87,3.31-2.32,2.21-3.68,5.28-4.06,9.22M906.7,302.95c-.03,6.98,1.7,12.46,5.25,16.42,3.54,3.98,7.68,5.96,12.46,5.96,3.17,0,5.93-.85,8.29-2.56,2.34-1.69,4.31-4.58,5.91-8.69l1.64,1.02c-.73,4.69-2.91,8.95-6.46,12.81-3.57,3.84-8.03,5.76-13.41,5.76-5.83,0-10.81-2.19-14.97-6.58-4.14-4.41-6.21-10.32-6.21-17.74,0-8.03,2.12-14.32,6.38-18.81,4.26-4.51,9.59-6.75,16.04-6.75,5.43,0,9.91,1.74,13.4,5.21,3.49,3.47,5.25,8.12,5.25,13.93h-33.54Z"/>
    <path class="cls-1" d="M982.72,323.38v-24.22c-.22-2.34-.85-4.46-1.9-6.36-1.07-1.92-2.47-3.37-4.21-4.34-1.75-.97-3.46-1.47-5.11-1.47-3.11,0-5.9,1.35-8.32,4.06-3.22,3.56-4.83,8.77-4.83,15.6s1.55,12.21,4.66,15.89c3.11,3.69,6.56,5.53,10.39,5.53,3.21,0,6.31-1.55,9.32-4.68M982.72,326.97c-2.37,2.41-4.68,4.13-6.93,5.16-2.27,1.04-4.71,1.57-7.32,1.57-5.3,0-9.92-2.15-13.88-6.45-3.96-4.29-5.95-9.81-5.95-16.55s2.2-12.91,6.58-18.51c4.38-5.6,10.02-8.39,16.91-8.39,4.28,0,7.8,1.32,10.59,3.94v-8.67c0-5.36-.13-8.67-.4-9.91-.27-1.24-.68-2.07-1.24-2.51-.57-.45-1.27-.68-2.12-.68-.92,0-2.14.28-3.66.84l-.68-1.8,14.47-5.75h2.37v54.36c0,5.51.13,8.87.4,10.09.27,1.22.7,2.05,1.27,2.54.58.48,1.27.72,2.04.72.97,0,2.24-.28,3.83-.87l.58,1.79-14.42,5.81h-2.44v-6.73Z"/>
  </g>
</svg>