<?xml version="1.0" encoding="UTF-8"?>
<svg id="Layer_1" data-name="Layer 1" xmlns="http://www.w3.org/2000/svg" xmlns:xlink="http://www.w3.org/1999/xlink" viewBox="0 0 782.07 1015.55">
  <defs>
    <style>
      .cls-1 {
        fill: url(#linear-gradient-8);
      }

      .cls-2 {
        fill: url(#linear-gradient-7);
      }

      .cls-3 {
        fill: url(#linear-gradient-5);
      }

      .cls-4 {
        fill: url(#linear-gradient-6);
      }

      .cls-5 {
        fill: url(#linear-gradient-9);
      }

      .cls-6 {
        fill: url(#linear-gradient-4);
      }

      .cls-7 {
        fill: url(#linear-gradient-3);
      }

      .cls-8 {
        fill: url(#linear-gradient-2);
      }

      .cls-9 {
        fill: #231f20;
      }

      .cls-10 {
        fill: url(#linear-gradient);
      }

      .cls-11 {
        fill: url(#linear-gradient-10);
      }

      .cls-12 {
        fill: url(#linear-gradient-11);
      }

      .cls-13 {
        fill: url(#linear-gradient-12);
      }
    </style>
    <linearGradient id="linear-gradient" x1="184.25" y1="17.94" x2="381.27" y2="202.66" gradientUnits="userSpaceOnUse">
      <stop offset="0" stop-color="#913090"/>
      <stop offset="1" stop-color="#ee4e90"/>
    </linearGradient>
    <linearGradient id="linear-gradient-2" x1="101.77" y1="277.85" x2="354.22" y2="284" gradientUnits="userSpaceOnUse">
      <stop offset="0" stop-color="#784198"/>
      <stop offset="1" stop-color="#c069a9"/>
    </linearGradient>
    <linearGradient id="linear-gradient-3" x1="303.21" y1="491.42" x2="377.1" y2="297.47" gradientUnits="userSpaceOnUse">
      <stop offset="0" stop-color="#3267b1"/>
      <stop offset="1" stop-color="#2ebec7"/>
    </linearGradient>
    <linearGradient id="linear-gradient-4" x1="465.48" y1="241.13" x2="554.76" y2="447.4" gradientUnits="userSpaceOnUse">
      <stop offset="0" stop-color="#e5e429"/>
      <stop offset="1" stop-color="#8fc740"/>
    </linearGradient>
    <linearGradient id="linear-gradient-5" x1="685.56" y1="174.65" x2="433.11" y2="196.2" gradientUnits="userSpaceOnUse">
      <stop offset="0" stop-color="#e46026"/>
      <stop offset="1" stop-color="#f7d336"/>
    </linearGradient>
    <linearGradient id="linear-gradient-6" x1="488" y1="-47.02" x2="361.78" y2="186.95" gradientUnits="userSpaceOnUse">
      <stop offset="0" stop-color="#e31d75"/>
      <stop offset="1" stop-color="#f48324"/>
    </linearGradient>
    <linearGradient id="linear-gradient-7" x1="574.01" y1="5.55" x2="470.97" y2="196.57" xlink:href="#linear-gradient-6"/>
    <linearGradient id="linear-gradient-8" x1="238.88" y1="-33.79" x2="415.81" y2="132.08" xlink:href="#linear-gradient"/>
    <linearGradient id="linear-gradient-9" x1="108.26" y1="174.84" x2="313.21" y2="179.84" xlink:href="#linear-gradient-2"/>
    <linearGradient id="linear-gradient-10" x1="221.61" y1="457.95" x2="284.06" y2="294.02" xlink:href="#linear-gradient-3"/>
    <linearGradient id="linear-gradient-11" x1="389.58" y1="322.16" x2="461.07" y2="487.33" xlink:href="#linear-gradient-4"/>
    <linearGradient id="linear-gradient-12" x1="686.55" y1="270.25" x2="479.02" y2="287.97" xlink:href="#linear-gradient-5"/>
  </defs>
  <g>
    <path class="cls-9" d="M361.36,480.31h-7.92v-3.48h19.73v3.48h-7.91v32.04h-3.9v-32.04Z"/>
    <path class="cls-9" d="M376.96,476.83h3.9v15h11.53v-15h3.9v35.52h-3.9v-17.06h-11.53v17.06h-3.9v-35.52Z"/>
    <path class="cls-9" d="M419.02,495.31h-11.85v13.61h13.16l-.54,3.44h-16.49v-35.52h16.3v3.48h-12.44v11.53h11.85v3.46Z"/>
    <path class="cls-9" d="M30.12,591.23c.74,9.59,5.35,17.25,15.58,17.25s14.7-5.35,14.7-16.1c0-9.81-3.98-15.04-16.67-21.16-14.62-6.98-21.06-13.45-21.06-26.97,0-12.81,8.21-23.07,23.42-23.07,18.02,0,22.89,12.92,23.16,23.86h-10.09c-.46-4.52-1.83-15.3-13.43-15.3-8.98,0-12.79,6.15-12.79,13.62,0,8.93,3.99,13.14,15.68,18.71,16.32,7.78,22.29,15.55,22.29,29.45,0,14.74-8.32,25.51-25.5,25.51-18.69,0-24.85-12.24-25.58-25.8h10.28Z"/>
    <path class="cls-9" d="M94.04,522.44v65.47c0,10.29,2.98,20.41,15.31,20.41s15.35-8.48,15.35-20.45v-65.43h10.24v65.61c0,16.98-6.15,29.17-25.86,29.17s-25.35-11.46-25.35-28.59v-66.19h10.32Z"/>
    <path class="cls-9" d="M156.4,591.23c.74,9.59,5.35,17.25,15.58,17.25s14.7-5.35,14.7-16.1c0-9.81-3.98-15.04-16.67-21.16-14.62-6.98-21.06-13.45-21.06-26.97,0-12.81,8.21-23.07,23.42-23.07,18.02,0,22.89,12.92,23.16,23.86h-10.09c-.46-4.52-1.83-15.3-13.43-15.3-8.98,0-12.79,6.15-12.79,13.62,0,8.93,3.99,13.14,15.68,18.71,16.32,7.78,22.29,15.55,22.29,29.45,0,14.74-8.32,25.51-25.5,25.51-18.69,0-24.85-12.24-25.58-25.8h10.28Z"/>
    <path class="cls-9" d="M223.13,531.58h-20.79v-9.15h51.83v9.15h-20.8v84.16h-10.24v-84.16Z"/>
    <path class="cls-9" d="M265.69,586.14l-6.79,29.61h-10.24s22.54-93.3,22.54-93.31h13.29l23.21,93.31h-10.89l-6.87-29.61h-24.25ZM287.84,577.04c-5.42-22.92-8.92-37.51-10.17-44.94h-.32c-1.28,8.12-5.09,24.91-9.67,44.94h20.15Z"/>
    <path class="cls-9" d="M328.22,522.44v93.31h-10.24v-93.31h10.24Z"/>
    <path class="cls-9" d="M346.84,615.75v-93.31h12.61c25.79,64.59,29.42,73.38,30.61,77.43h.13c-.64-12.54-.82-26.58-.82-41.74v-35.69h9.6v93.31h-12.05c-26.79-67.85-30.1-76.42-31.16-80.1h-.13c.68,11.67.78,26.95.78,43.75v36.36h-9.56Z"/>
    <path class="cls-9" d="M426.59,586.14l-6.79,29.61h-10.24s22.54-93.3,22.54-93.31h13.29l23.21,93.31h-10.89l-6.87-29.61h-24.25ZM448.74,577.04c-5.42-22.92-8.92-37.51-10.17-44.94h-.32c-1.28,8.12-5.09,24.91-9.67,44.94h20.15Z"/>
    <path class="cls-9" d="M478.83,522.44h24.29c13.96,0,22.54,8.36,22.54,22.7,0,12.52-6.03,17.93-11.46,19.85,7.08,2.48,14.52,9.01,14.52,23.42,0,16.8-10.13,27.34-26.31,27.34h-23.58v-93.31ZM499.63,561.34c11.71,0,16-5.22,16-15.26,0-9.34-4.92-15.12-14.7-15.12h-12v30.38h10.7ZM488.93,607.32h12.54c10.97,0,16.92-6.64,16.92-18.88s-6.36-18.68-18.89-18.68h-10.57v37.57Z"/>
    <path class="cls-9" d="M552.05,522.44v93.31h-10.24v-93.31h10.24Z"/>
    <path class="cls-9" d="M570.67,522.44h10.24v84.31h33.32l-1.47,9h-42.09v-93.31Z"/>
    <path class="cls-9" d="M633.94,522.44v93.31h-10.24v-93.31h10.24Z"/>
    <path class="cls-9" d="M664.19,531.58h-20.8v-9.15h51.83v9.15h-20.8v84.16h-10.24v-84.16Z"/>
    <path class="cls-9" d="M724.86,615.75v-35.57c0-.92-.23-1.74-.51-2.36l-23.7-55.38h11.49c6.37,15.8,15.33,37.71,18.17,46.16,3.26-9.02,12.4-31.14,18.39-46.16h10.84l-23.98,55.39c-.27.51-.46,1.34-.46,2.41v35.51h-10.24Z"/>
    <path class="cls-9" d="M59.25,698.04H21.04v34.57h42.9l-2.63,18.34H0v-119.05h61.05v18.66H21.04v28.98h38.21v18.51Z"/>
    <path class="cls-9" d="M129.21,750.95l-17.61-43.81h-.17l-17.93,43.81h-22.5l28.61-60.91-27.65-58.14h24.27l16.6,39.57.18-.16,16.38-39.42h22.52l-27.27,56.02,28.83,63.03h-24.27Z"/>
    <path class="cls-9" d="M229.32,716.29c-.53,6.02-2.81,36.71-35.84,36.71s-37.74-29.75-37.74-61.74c0-38.55,11.3-61.26,39.01-61.26,31.56,0,34.02,27.08,34.5,36.6h-21.08c-.33-4.05-.61-18.52-13.75-18.52s-16.64,16.38-16.64,43.62c0,22.45,2.24,43.52,16.05,43.52,12.71,0,13.72-14.38,14.25-18.94h21.24Z"/>
    <path class="cls-9" d="M301.86,698.04h-38.21v34.57h42.89l-2.63,18.34h-61.32v-119.05h61.06v18.66h-40.01v28.98h38.21v18.51Z"/>
    <path class="cls-9" d="M319.48,631.9h21.35v100.86h40.74l-2.07,18.19h-60.02v-119.05Z"/>
    <path class="cls-9" d="M392.13,631.9h21.35v100.86h40.74l-2.07,18.19h-60.02v-119.05Z"/>
    <path class="cls-9" d="M524.04,698.04h-38.21v34.57h42.9l-2.63,18.34h-61.32v-119.05h61.05v18.66h-40.01v28.98h38.21v18.51Z"/>
    <path class="cls-9" d="M541.67,750.95v-119.05h24.21c24.61,65.79,29.34,78.34,30.77,84.17h.18c-1.02-14.3-1.06-31.82-1.06-51.33v-32.84h19.05v119.05h-23.22c-25.42-70.15-29.93-82.79-31.48-88.26h-.17c.88,14.67.9,32.2.9,53.53v34.72h-19.18Z"/>
    <path class="cls-9" d="M704.84,716.29c-.53,6.02-2.81,36.71-35.84,36.71s-37.74-29.75-37.74-61.74c0-38.55,11.31-61.26,39.01-61.26,31.57,0,34.02,27.08,34.51,36.6h-21.09c-.33-4.05-.61-18.52-13.75-18.52s-16.64,16.38-16.64,43.62c0,22.45,2.24,43.52,16.05,43.52,12.71,0,13.72-14.38,14.25-18.94h21.24Z"/>
    <path class="cls-9" d="M777.38,698.04h-38.21v34.57h42.9l-2.63,18.34h-61.32v-119.05h61.05v18.66h-40.01v28.98h38.21v18.51Z"/>
    <path class="cls-9" d="M77.92,832.69l-6.79,29.61h-10.24l22.54-93.31h13.29l23.21,93.31h-10.89l-6.87-29.61h-24.25ZM100.08,823.59c-5.42-22.93-8.92-37.51-10.17-44.95h-.32c-1.28,8.12-5.09,24.91-9.67,44.95h20.15Z"/>
    <path class="cls-9" d="M137.41,862.29l-18.38-93.31h10.85c6.21,33.21,12.19,66.3,13.39,79.12h.14c1.69-12.97,11.41-56.94,15.78-79.12h9.82c4.27,21.31,13.95,66.48,15.41,78.69h.27c1.97-16.38,10.77-57.45,14.61-78.69h10.28l-19.92,93.31h-10.89c-4.15-21.26-13.06-63.35-14.95-77.29h-.19c-2.13,15.06-11.09,56.31-15.5,77.29h-10.71Z"/>
    <path class="cls-9" d="M225.35,832.69l-6.79,29.61h-10.24l22.54-93.31h13.29l23.21,93.31h-10.89l-6.87-29.61h-24.25ZM247.51,823.59c-5.42-22.93-8.92-37.51-10.17-44.95h-.32c-1.28,8.12-5.09,24.91-9.67,44.95h20.15Z"/>
    <path class="cls-9" d="M287.84,819.33v42.96h-10.19v-93.31h24.34c15.67,0,23.87,8.88,23.87,24.09,0,13.95-6.83,19.89-12.48,21.82,8.64,3.08,11.33,10.71,11.33,23.79v3.71c0,8.68.28,14.87,1.32,19.9h-10.17c-1.29-4.26-1.38-12.56-1.38-20.13v-3.17c0-13.29-2.71-19.66-15.31-19.66h-11.33ZM287.84,810.63h11.93c11.35,0,15.63-6.42,15.63-17.26,0-9.38-4.33-15.68-14.65-15.68h-12.92v32.94Z"/>
    <path class="cls-9" d="M340.73,768.98h20.74c21.52,0,31.17,15.03,31.17,44.2,0,31.68-8.75,49.11-32.67,49.11h-19.24v-93.31ZM351.01,853.54h8.55c17.06,0,22.47-13.54,22.47-40,0-24.78-6.36-35.7-22.33-35.7h-8.69v75.7Z"/>
    <path class="cls-9" d="M412.03,837.78c.74,9.58,5.35,17.24,15.58,17.24s14.7-5.34,14.7-16.09c0-9.8-3.98-15.04-16.67-21.16-14.62-6.98-21.06-13.44-21.06-26.97,0-12.81,8.21-23.07,23.42-23.07,18.02,0,22.89,12.92,23.16,23.86h-10.09c-.46-4.52-1.83-15.3-13.43-15.3-8.98,0-12.79,6.15-12.79,13.61,0,8.93,3.99,13.15,15.68,18.72,16.32,7.78,22.29,15.56,22.29,29.45,0,14.73-8.32,25.51-25.5,25.51-18.69,0-24.85-12.24-25.58-25.81h10.28Z"/>
    <path class="cls-9" d="M486.65,862.29v-.79c.05-12,6.86-25.31,21.01-41.21,11.08-12.54,15.89-16.8,15.89-27.51,0-7.69-2.17-16.36-12.21-16.36-8.68,0-12.95,6-13.45,18.03h-10.04c.36-14.55,6.83-26.65,23.73-26.65s22.62,10.57,22.62,24.91c0,12.26-5.27,18.55-18.1,32.64-10.54,11.53-16.1,20.97-17.62,27.99h37.82l-1.44,8.95h-48.21Z"/>
    <path class="cls-9" d="M594.17,814.7c0,33.7-6.26,49.01-24.56,48.92-18.27-.09-24.46-16.21-24.46-48.53,0-35.1,9.02-47.29,25.05-47.29,17.23,0,23.97,13.96,23.97,46.9ZM555.66,814.89c0,27.98,3.72,40.01,14.1,40.01s14.04-10.67,14.04-40.11-3.77-38.23-13.73-38.23-14.41,10.48-14.41,38.34Z"/>
    <path class="cls-9" d="M603.31,862.29v-.79c.05-12,6.86-25.31,21.01-41.21,11.08-12.54,15.89-16.8,15.89-27.51,0-7.69-2.17-16.36-12.21-16.36-8.68,0-12.95,6-13.45,18.03h-10.04c.36-14.55,6.83-26.65,23.73-26.65s22.62,10.57,22.62,24.91c0,12.26-5.27,18.55-18.1,32.64-10.54,11.53-16.1,20.97-17.62,27.99h37.82l-1.44,8.95h-48.21Z"/>
    <path class="cls-9" d="M705.81,778.04h-29.6c-.58,9.62-2.03,23.79-2.63,29.83,2.62-3.89,7.49-6.83,15.04-6.83,15.13,0,21.57,12.12,21.57,30.08,0,16.35-5.09,32.41-24.71,32.41-17.06,0-23.03-11.17-23.67-23.88h10.37c.6,7.3,3.59,15.27,13.59,15.27,10.8,0,13.86-10.75,13.86-23.01,0-12.99-3.15-22.11-13.2-22.11-8.76,0-11.84,5.33-13.92,11.82l-9.62-1.67c1.42-10.79,3.77-38.06,4.54-50.96h39.72l-1.35,9.06Z"/>
  </g>
  <g>
    <g>
      <g>
        <path class="cls-9" d="M91.86,970.51c0-3.04-1.79-3.13-3.1-3.13h-1.57v-1.96c2.47.14,5.12.28,8.12.28s5.65-.14,8.26-.28v1.96h-.81c-1.3,0-3.1.09-3.1,3.13v9.01c-2.56.75-8.62,2.05-13.38,2.05-10.41,0-18.18-6.16-18.18-17.46,0-8.73,5.39-17.46,18.36-17.46,4.53,0,9.29,1.12,13.2,2.38l-.27,9.48h-3.1c-.04-5.51-3.81-8.77-8.98-8.77-8.44,0-10.86,6.35-10.86,14.42s4.04,14.61,11.49,14.61c1.44,0,2.92-.28,3.91-.51v-7.75Z"/>
        <path class="cls-9" d="M107.25,952.16c0-1.96-.31-2.9-3.59-2.94v-1.96c2.29.14,4.94.28,7.5.28s5.21-.14,7.81-.28v1.96c-3.59.04-3.91.98-3.91,2.94v17.92c0,5.32,3.23,7.28,7.95,7.28,6.28,0,8.39-3.32,8.39-9.94v-15.27c0-1.96-.32-2.9-3.9-2.94v-1.96c1.61.14,3.41.28,5.25.28,1.53,0,3.1-.14,4.58-.28v1.96c-2.65.04-2.96.98-2.96,2.94v15.59c0,10.97-6.55,13.82-13.2,13.82-8.26,0-13.91-2.29-13.91-12.14v-17.27Z"/>
        <path class="cls-9" d="M139.52,979c3.86-.04,4.17-.98,4.17-2.94v-23.9c0-1.96-.31-2.9-3.9-2.94v-1.96c2.6.14,5.25.28,7.81.28s5.21-.14,8.62-.28v1.96c-4.4.05-4.72.98-4.72,2.94v24.37c0,1.4.05,1.92,2.65,1.92,5.43,0,10.19-1.03,11.4-7.33h2.2c-.81,3.32-1.44,6.63-1.93,9.85-3.77-.14-7.99-.28-12.7-.28-5.03,0-9.6.14-13.6.28v-1.96Z"/>
        <path class="cls-9" d="M168.61,979c3.86-.04,4.18-.98,4.18-2.94v-23.9c0-1.96-.32-2.9-3.91-2.94v-1.96c4.08.14,8.26.28,12.43.28s8.39-.14,12.61-.28c0,2.8.18,6.35.36,8.5h-2.25c-.27-5.79-3.41-5.97-8.08-5.97-2.02,0-3.37,0-3.37,1.45v11.81h3.86c3.59,0,4.85-.47,4.85-4.34h1.89c-.14,1.5-.27,3.69-.27,5.93s.13,4.44.27,5.93h-1.89v-1.4c-.04-3.31-1.48-3.87-4.49-3.87h-4.22v10.78c0,1.96.31,2.9,4.89,2.94v1.96c-2.97-.14-6.15-.28-8.67-.28s-5.38.14-8.21.28v-1.96Z"/>
        <path class="cls-9" d="M215.58,950.67c-.85-1.17-2.33-1.45-3.28-1.45h-.54v-1.96c1.93.14,3.86.28,5.75.28s3.86-.14,5.83-.28l16.61,21.43h.09v-16.53c0-1.96-.32-2.9-4.31-2.94v-1.96c2.06.14,4.18.28,5.79.28s3.73-.14,4.85-.28v1.96c-3.05.05-3.37.98-3.37,2.94v28.8h-3.68l-20.69-26.98h-.09v22.08c0,1.96.31,2.9,4.31,2.94v1.96c-2.06-.14-4.17-.28-5.79-.28s-3.73.14-5.79.28v-1.96c4-.04,4.31-.98,4.31-2.94v-25.4Z"/>
        <path class="cls-9" d="M248.3,979c4-.04,4.31-.98,4.31-2.94v-23.9c0-1.96-.31-2.9-3.9-2.94v-1.96c4.08.14,8.26.28,12.43.28s8.39-.14,12.61-.28c0,2.8.18,6.35.36,8.59h-2.25c-.27-5.88-3.41-6.07-8.08-6.07h-1.89c-1.17,0-1.48.42-1.48,1.4v11.3h3.59c3.59,0,4.84-.93,4.84-4.48h1.89c-.14,1.49-.27,3.36-.27,5.6s.13,4.44.27,5.93h-1.89c0-3.87-1.26-4.81-4.84-4.81h-3.59v11.62c0,1.35.63,1.82,1.93,1.82h1.98c5.2,0,9.02-.75,10.1-6.4h2.15c-.81,3.04-1.3,6.12-1.75,9.2-4.35-.14-8.66-.28-13.02-.28s-9.02.14-13.51.28v-1.96Z"/>
        <path class="cls-9" d="M275.68,947.26c2.29.14,4.58.28,6.87.28s4.35-.14,6.55-.28v1.96h-.9c-1.21.19-1.26.75-1.26,1.36,0,.51.23,1.58.54,2.66l5.43,19.14h.09l4.94-15.92-1.17-4.62c-.58-2.33-.94-2.61-2.92-2.61h-1.03v-1.96c2.34.14,4.72.28,7.05.28,2.56,0,5.17-.14,7.73-.28v1.96h-.81c-1.57,0-2.42.42-2.42,1.26,0,.75.23,1.64.58,3.36l4.22,19.28h.09l6.33-19.7c.36-1.17.63-2.01.63-2.94,0-1.03-.99-1.26-2.47-1.26h-1.07v-1.96c1.79.14,3.9.28,5.34.28,1.53,0,3.01-.14,4.53-.28v1.96c-2.11,0-3.05,1.59-3.81,3.87l-9.25,28.15h-5.03l-5.07-19.37h-.09l-6.33,19.37h-5.03l-8.57-28.33c-.99-3.18-1.21-3.59-3.68-3.59v-2.06Z"/>
        <path class="cls-9" d="M343.57,957.2h-2.74c-.14-4.76-1.53-7.75-6.87-7.75-2.6,0-5.16,1.12-5.16,4.48,0,6.77,16.92,4.29,16.92,16.53,0,7.84-5.93,11.11-12.8,11.11-3.5,0-7.99-1.12-11.04-2.94.18-2.71.22-6.68.22-9.38h3.23c0,5.09,2.02,9.24,7.32,9.24,3.32,0,6.33-1.31,6.33-4.44,0-7.94-16.65-5.41-16.65-17.41,0-6.35,4.72-9.99,11.77-9.99,3.32,0,6.64.7,9.87,1.36l-.41,9.2Z"/>
        <path class="cls-9" d="M380.74,962.68s.02,0,.03.01c.05.02.16.04.32.05.16,0,.17.12.17.12l.08.24s.22.08.32.18c.1.11-.08.1-.13.14-.04.04-.22.01-.22.01l.13.21-.22.14-.33-.11.13.17-.13.13s-.51-.15-.51-.21-.14-.14-.14-.14l-.38.03.06-.16.41-.13s.3-.13.35-.14c.05-.01-.27-.13-.3-.17-.03-.03-.14-.11-.14-.11,0,0-.05,0-.13,0-.13.06-.25.12-.38.19l.14.03s-.21.19-.23.21c-.02.02-.04.08-.19.11-.15.03-.31.03-.39.03-.02,0-.04,0-.06,0-.06.03-.12.07-.18.11l.15-.05s.15-.02.15,0c0,.02.13.12.13.12,0,0,.13.07.09.08-.04.01-.05.03-.15.03-.1,0-.22.01-.26.02-.04.01-.23.06-.23.06l.03-.14s-.05-.02-.09-.01c-.49.31-.95.64-1.37.99,0,.05-.01.09-.01.09h.24s.36.11.36.11l.13.07h.29s-.08.1-.08.1l-.06.2v.17s.14.04.14.04l.24-.19.02-.25s.26-.04.38-.1c.12-.07.27-.21.27-.25,0-.04-.08-.19-.08-.19,0,0,.2-.13.23-.17.03-.04.06-.23.06-.23,0,0-.05-.14.13-.16.18-.01.35-.01.39-.01s.13-.03.23-.01c.09.02.12.11.12.11h.2s-.11.17-.11.17l-.15.14.2.04.13.04.28-.18.15-.13s.01.03.02.07c.63-.73,1.36-1.36,2.16-1.86l-.19-.3h-.58c-.55.18-1.09.38-1.6.59"/>
      </g>
      <polygon class="cls-9" points="377.72 966.63 377.63 966.76 377.57 966.75 377.17 966.8 377 966.89 377.09 966.93 377.52 966.88 377.87 966.74 377.99 966.57 377.72 966.63"/>
      <path class="cls-9" d="M377.12,965.99l-.16-.03s-.17,0-.2.04c-.03.03-.14.09-.18.09-.05,0-.32.14-.32.14l.05.06.2-.04.29-.05.12.1.21-.04.17-.07-.06-.1-.12-.1Z"/>
      <polygon class="cls-9" points="376.92 966.36 376.64 966.51 376.47 966.87 376.65 966.89 376.75 966.66 377 966.42 377.15 966.42 376.93 966.6 377.12 966.62 377.26 966.55 377.26 966.68 377.43 966.64 377.55 966.44 377.46 966.35 377.09 966.34 376.92 966.36"/>
      <g>
        <path class="cls-9" d="M379.98,965.58s-.03,0-.04,0c-.08.03-.1,0-.16.06-.06.07-.12.09-.12.09l-.2.11.06.02.33-.07c.04-.07.08-.15.13-.22"/>
        <path class="cls-9" d="M378.74,979.18h0c0-.1-.05-.27-.1-.35s-.09-.21-.09-.21l-.04-.1s-.01.04-.06,0c-.04-.04-.16-.16-.16-.16v-.14s-.08-.31-.08-.31l.03-.12v-.5s-.16-.35-.16-.35c0,0,0-.16,0-.18,0-.02,0-.16,0-.16l.09-.24-.06-.09v-.2s-.01-.1-.01-.17c0-.03,0-.07-.01-.11-1.13-.12-2.2-.26-3.21-.42.86,1.47,2.19,2.77,3.86,3.79"/>
        <path class="cls-9" d="M373.78,971.45c0,1.27.32,2.49.92,3.61,1.05.17,2.16.32,3.33.45l-.03-.25s-.06-.06-.11-.11c-.06-.04,0,.02-.06-.04-.06-.06-.28-.19-.28-.19,0,0-.21-.12-.29-.16-.07-.04-.18-.08-.21-.12-.03-.04-.05-.09-.05-.09,0,0-.27-.47-.33-.54-.06-.08-.1-.14-.13-.18-.03-.04-.2-.2-.21-.23,0-.02-.16-.13-.16-.13,0,0-.07-.11-.04-.18.04-.07.06-.12.09-.16.03-.04,0-.11-.01-.15-.02-.04-.03-.03-.02-.08,0-.06-.02-.07,0-.11.03-.04.27-.28.28-.32.01-.03.14-.13.19-.17.04-.04.09-.16.11-.2.02-.04.06-.22,0-.28-.06-.06-.19-.28-.19-.28l-.1-.09s-.11,0-.12.03c0,.02-.06.03-.06.06-.01.03-.02.06-.02.06l-.04.04-.12-.03-.13-.06-.14-.04-.14-.14-.17-.08-.05-.19-.2-.2-.07-.03-.11-.03h-.13s-.18-.05-.18-.05h-.12s-.14-.16-.14-.16l-.26-.17-.16.03s-.13.04-.16.04c-.02,0-.08-.01-.13-.02-.04.32-.07.65-.07.98"/>
        <path class="cls-9" d="M378.72,966.85s-.01.03-.04.05c.21-.02.42-.04.63-.06.08-.18.16-.35.25-.52l-.59.27-.25.26Z"/>
        <path class="cls-9" d="M390.23,963.67c.1,0,.13.03.13.03l.02-.1h.19s0-.04,0-.04l.2-.08c-.04-.07-.08-.13-.12-.2l-.18.13s-.27-.05-.3-.04c-.02.01-.18.03-.18.03l.06.14s.08.11.18.12"/>
        <path class="cls-9" d="M391.52,966.86v-.03c-.16,0-.33-.01-.51-.02l.26.07.25-.02Z"/>
        <path class="cls-9" d="M390.2,966.82s.07-.01.13-.03c-.12,0-.24,0-.37,0l.02.04h.21"/>
        <path class="cls-9" d="M391.06,968.72v-.03c-.11-.02-.14.08-.14.08l.28.49.07.2.16.21s.07.15.08.19c.01.04.1.21.1.21,0,0,.03.12.06.17.03.05.29.4.33.44.04.05.12.07.27.16.15.09.15.19.15.19l-.02.07.19.11c0-.1,0-.2,0-.29-.01,0-.03,0-.04,0-.13.01-.14-.06-.14-.11,0-.04-.11-.18-.12-.3-.01-.11-.12-.3-.12-.3,0,0-.11-.08-.12-.17-.02-.08-.1-.15-.16-.2s-.12-.08-.15-.17c-.03-.09-.03-.19-.1-.29-.07-.1-.16-.12-.16-.12,0,0-.03-.04-.06-.08-.02-.05-.27-.42-.29-.45-.03-.03-.08-.03-.08-.03"/>
        <path class="cls-9" d="M393.14,967.02l.06-.04-.05-.06v-.02c-.23-.01-.44-.02-.66-.03l.08.09.13.04-.13.04v.21s.03.14.03.16c0,.01.07.02.1.02.03,0,.07.05.07.05,0,0,.13.07.18.08.06.01.09,0,.1,0,.01,0,.19-.03.19-.03,0,0-.05-.14-.06-.15,0-.01,0-.1,0-.1l-.03-.04s-.06-.04-.07-.04-.02-.03-.02-.03v-.08s-.08,0-.08,0c0,0-.01-.03-.01-.03,0,0,0-.07,0-.07l.16.04Z"/>
        <path class="cls-9" d="M402.09,969.35l.05-.04h.09s.01.08.01.08l-.04.25-.04.08-.11-.14-.02-.08.06-.15ZM402.33,970.11l.12.1v.03s.07.11.07.11l-.03.1-.06.04v.08s.07.07.07.07v.1l-.09.03-.03-.11-.06-.03h-.06s-.06-.2-.06-.2l.08.02-.02-.25-.03-.05.1-.05ZM402.61,970.69l.14.04.1.12-.04.05h-.05s-.06-.11-.06-.11h-.1s-.04-.06-.04-.06l.05-.04ZM402.9,968.25l.14.06.06.1v.16s-.12-.03-.12-.03l-.02-.15-.09-.03-.09-.06.13-.05ZM403,971.16h-.06s-.06-.07-.06-.07l.06-.08-.08-.05.05-.05.08.04.02.09-.06.04.03.08ZM403.17,971.38l-.02.04.06.04v.11s-.03.06-.03.06l-.07-.07-.04.07.04.08-.04.08h-.05l-.13-.11v-.09s-.02-.06-.02-.06h-.07s-.1-.01-.1-.01l-.05.09h-.07l.07-.12.07-.03v-.05s.12,0,.12,0v.04s.11-.04.11-.04v-.07s.1-.04.1-.04l-.03-.06.14.06.02.08ZM402.92,973.79l-.07-.04.31-.18.02-.02.08.04-.34.2ZM402.74,971.14l.04.02v.11s-.03.09-.03.09h-.06s-.02-.12-.02-.12l.07-.1ZM402.68,971.12l-.1.06v-.16l-.02-.06.16.08-.04.07ZM402.34,970.8l.13.03.02.06-.04.06-.05-.06-.06-.09ZM402.58,972.7l.14-.1.08.02-.13.16.06.17.09.07v.1s-.18-.09-.18-.09l-.06-.18s-.11.05-.1.06c0,.01,0,.17,0,.17v.16s-.11-.02-.11-.02v-.18s-.08-.16-.08-.16l.08-.22.14-.21.21-.07.19-.04h.09s-.18.11-.18.11h-.25s-.08.19-.08.19l.08.07ZM404.01,972.52l.26.09v.08s.08.13.08.13l.04.05.18-.14.16-.1.08.05.35.04.39.17.18.1v.09s.28.03.28.03v.11s-.13.04-.13.04h.07s.15.22.15.22l.12.08.07.12-.14-.03-.22-.04-.14-.24-.18-.04-.2.11.03.06-.12.07-.24-.05h-.19s-.19-.04-.19-.04h-.01s.17-.08.17-.08l-.06-.13-.1-.19-.2-.06-.27-.1-.14.04-.02-.1.15-.09h-.13s-.09-.09-.09-.09h-.14l-.02-.1.18-.06ZM406.09,973.08l.2-.02.25-.13v.02s-.06.13-.06.13l-.14.08-.27-.04.03-.04h-.03ZM402.45,973.83l-.14-.07.1-.06.11.1-.07.04ZM401.45,968.09s.12.05.12.05c0,0,.08.1.11.13.03.03.15.1.15.1l.07.07h-.15s.07.03.07.03l.08.11.02.08.07.02s0,.03-.04.15c-.05.13,0,.27-.11.44h0c.18.64.29,1.3.3,1.98l.06-.08.03-.07.04-.03v.08l-.05.12-.08.07s0,.06,0,.08c0,.11,0,.23-.01.34h.06s.1.07.1.07l-.11.02.03.08-.07.02h-.01c0,.07-.01.13-.02.2l.03.08.12.08v.08s-.1,0-.1,0l-.06.12v.1s-.06.06-.06.06c-.04.28-.11.57-.19.85.06.01.13.02.18.02.13,0,.17.03.24.01.08-.01.24-.01.31-.01.07,0,.06.04.06.04l-.25.03-.5.05h-.08c-.13.44-.31.88-.52,1.31.45-.07.88-.16,1.3-.24,0-.01.02-.03.02-.03.01-.03.11-.08.11-.08,0,0,.05-.13.17-.19.13-.06.16-.13.22-.16.07-.03.17-.06.22-.04.04.02.08.09.08.09l.15-.04s-.06,0,0-.08c.06-.07.16-.24.16-.24h.23s.02-.14.02-.14l.55.11-.1.16-.09.13.08.1s0,0,.01,0c.22-.06.44-.11.65-.17v-.16l.16-.28.08.07.12.27c.3-.08.58-.17.85-.26.35-.77.53-1.57.53-2.39,0-.88-.21-1.72-.6-2.54-.77-.25-1.66-.48-2.64-.7v.04s-.09.03-.09.03l-.04-.1s-.06-.01-.09-.02h-.2s-.11.07-.11.07l-.11-.06.08-.08c-.13-.03-.26-.06-.4-.08-.01.02-.02.04-.03.06-.03.04-.25.08-.25.08l-.07-.09s.01-.06,0-.1c0,0,0-.01,0-.02-.23-.04-.45-.08-.68-.12-.01.01-.05.06-.14.13-.1.09-.03.11,0,.14"/>
        <path class="cls-9" d="M391.14,966.4l-.2-.14s.23-.25.17-.25c-.07,0-.52.03-.52.03l.06.18-.16.03-.05-.07v-.07h-.31s-.07.11-.07.11l-.18.17v.11c.5,0,.98.02,1.46.04l-.2-.14Z"/>
        <path class="cls-9" d="M404.84,974.56s-.07.02-.1.03c0,0,.02,0,.03,0,.01,0,.04-.01.07-.03"/>
        <path class="cls-9" d="M379.77,962.25s.1-.01.12-.01c.03,0,.05-.02.08-.04-.07.02-.14.03-.2.05"/>
        <path class="cls-9" d="M380.31,962.23l.65-.04v.1c.4-.16.81-.3,1.23-.44v-.02s.36-.14.36-.14c-.36.06-.72.12-1.07.18l-.28.23-.21-.13c-.14.03-.27.06-.4.08l-.27.16Z"/>
        <path class="cls-9" d="M371.97,965.52s0-.03,0-.04c0-.02-.07-.33-.07-.33l-.16-.14s-.23-.13-.25-.13c-.03,0-.23-.01-.23-.01h-.1c-2.66,1.49-4.44,3.35-4.94,5.39.59-.58,1.64-1.11,3.04-1.58.58-1.14,1.51-2.2,2.73-3.14"/>
        <path class="cls-9" d="M369.17,974.07c-1.4-.48-2.43-1.02-3-1.6.86,4.08,6.8,7.46,14.78,8.72-5.76-1.2-10.2-3.85-11.78-7.12"/>
        <path class="cls-9" d="M371.83,965.98l.13.03s.14-.01.09-.04c-.05-.03-.1-.06-.1-.06l.04-.06c-.05.04-.1.09-.16.13"/>
        <path class="cls-9" d="M379.88,980.17s.16.15.18.17c.03.03.23.17.23.17,0,0-.26,0-.35-.04s-.57-.34-.63-.38c-.07-.03-.38-.36-.44-.45-.03-.04-.05-.07-.07-.09-1.88-1.11-3.36-2.56-4.28-4.22-1.93-.32-3.62-.7-4.98-1.14,1.81,3.44,6.95,6.15,13.43,7.07-1.1-.29-2.14-.68-3.1-1.14v.05Z"/>
        <path class="cls-9" d="M405.59,974.68c.02.06.08.1.15.13.13-.2.26-.41.37-.62-.17.06-.36.11-.55.17,0,.01,0,.02.01.03.01.08-.04.17.02.28"/>
        <path class="cls-9" d="M371.87,966.18l-.09-.15c-.91.78-1.64,1.61-2.15,2.51.5-.16,1.05-.31,1.62-.45-.07-.02-.09-.04-.09-.04l-.05-.34s.01-.16.01-.17c0-.02.08-.37.22-.48.14-.11.42-.41.52-.52.1-.12.09-.24.09-.24h.07s-.17-.12-.17-.12Z"/>
        <path class="cls-9" d="M371.99,968.52s-.13-.09-.13-.09c0,0-.1.1-.1.13,0,.03.13.21.13.21l.03.14.11.22.03.17s.06.06.07.07c0,.02.07.1.07.1l.03.06-.12.03-.15-.17-.07-.06.04-.09s-.04-.08-.06-.1c-.03-.02-.06-.06-.13-.1-.08-.04-.16-.08-.16-.08l.13-.08-.02-.08s-.06-.03-.06-.06c0-.03,0-.1,0-.1l-.09-.25v-.05c-.77.18-1.47.37-2.09.58-.4.81-.6,1.67-.6,2.54,0,.82.18,1.62.53,2.39,1.34.44,3.04.83,4.98,1.16-.55-1.11-.85-2.3-.85-3.55,0-.36.03-.72.08-1.08-.1-.04-.1-.04-.15-.06-.06-.02-.18-.08-.18-.08,0,0-.05-.03-.08-.03s-.15-.03-.17-.05c-.02-.01-.14-.07-.14-.07l-.13-.14-.04-.07.1-.13-.03-.18s-.22-.18-.25-.21c-.04-.04-.07-.08-.09-.1-.03-.01-.1-.04-.1-.08,0-.04.03-.03,0-.08-.02-.05-.11-.19-.11-.19,0,0-.14-.17-.17-.23-.03-.05,0-.1-.05-.15"/>
        <path class="cls-9" d="M373.89,963.7l.47-.14s.53-.09.56-.1c.03,0,.04.07.04.07l.27-.03.14-.07h.14c.2-.1.4-.18.6-.27-.06,0-.11.05-.27.09-.2.06.08-.1-.22-.14-.05,0,.11-.09.3-.15.19-.06.11-.03.44-.1.33-.07.33.04.33.04,0,0,.03,0,.06,0,1.14-.43,2.37-.8,3.66-1.1.03,0,.04-.01.04-.01,0,0,.06-.02.12-.04-2.57.43-4.93,1.08-6.95,1.9.01,0,.03,0,.05.01.1.03.2.02.2.02"/>
        <path class="cls-9" d="M386.68,965.08l-.1.06.11.04s.01.04,0,.05c-.01,0-.28.03-.3.03-.01,0-.17.01-.19.01-.01,0-.13.02-.13.02l-.19.02.05-.04s.06-.04.07-.05c0-.02.05-.05.05-.05h.1s.06-.05.04-.05-.1-.02-.12-.02c-.03,0-.13,0-.13,0v-.07s.08-.05.1-.05c.01,0,0-.05,0-.05l-.04-.04.05-.04.09.03.04-.1-.07-.07.02-.08s-.07.05-.1.03c-.04-.02-.08-.05-.08-.05l.06-.05s-.03-.05-.04-.06c-.02,0-.11,0-.11,0l.06-.1-.08-.04-.02-.1.07-.05.04.04.07-.13h.07s.12,0,.12,0v.03s-.11.09-.11.09h.03s.11.02.11.02l.13.03s-.06.08-.06.1c0,.01-.11.06-.13.07-.02.01-.01.04-.01.04h.11s.06,0,.07.03c.01.04-.01.06.04.09s.06.1.06.1c0,0,.07.03.07.05s.04.08.04.08l.03.06-.03.05.06.03.06-.04.07.05-.03.1ZM385.85,964.73s-.06.04-.06.04l.04.15-.02.06-.14.03s-.08.04-.1.04c-.01,0-.1.03-.11.02-.01,0-.11-.04-.11-.04v-.05s.12-.08.12-.08v-.08s-.06-.03-.06-.03l.04-.13.12.02v-.09s.1-.07.1-.07l.08.06.08-.02v.07s.04.08,0,.08M387.15,961.53s-.43.27-.48.3c-.04.04-.14.33-.14.41s-.06.24-.06.24c0,0-.4.15-.59.2-.19.05-.36.21-.55.32-.05.03-.14.06-.24.07-.61.9-1.12,2.09-1.49,3.48.63-.03,1.27-.05,1.92-.06h0s-.07-.17-.07-.17l.11.02.06-.11.1.03h.1s.14.03.14.03l.29.03c.14.01.13-.06.13-.06l.03-.23-.05-.16-.12-.14-.24-.14v-.07s.15-.02.15-.02l.07.05.18-.04-.03-.13.2-.03.13-.08.17-.12s.11-.05.17-.16c.06-.11.31-.13.31-.13l.16-.07-.03-.13-.06-.1-.05-.08.22-.14.06.18-.06.2.09.02v-.53l-.03-.04-.2.04s-.19.01-.27,0c-.07-.01-.1-.14-.1-.14,0,0,0-.16-.03-.25-.02-.09.05-.13.14-.19.08-.06.12-.07.21-.12.09-.04.2-.19.23-.23,0-.01.02-.03.04-.04v-1.94c-.1,0-.2.02-.3.04l-.23.2Z"/>
        <path class="cls-9" d="M404.09,965.35l.09.03.11.08.1.05-.03.06.02.07.13.08-.02.06-.06.03.04.08-.07.06.08.13-.05.08c.84.77,1.5,1.61,1.95,2.49,1.4.47,2.44,1,3.04,1.58-.49-1.98-2.18-3.78-4.7-5.25-.06.05-.11.1-.11.1v.07s-.09-.05-.14-.08c-.05-.04-.25,0-.25,0v.05s-.12-.07-.12-.07l-.06.06h-.13s.05.09.07.13c.02.04.08.09.08.09"/>
        <path class="cls-9" d="M387.39,966.43l-.25-.07-.21.04v.08c.26,0,.51,0,.76,0v-.17l-.1-.07-.19.2Z"/>
        <path class="cls-9" d="M381.99,976.12c-.08.02-.17.04-.21.06-.07.04-.33.2-.38.27-.05.07.04.24.03.3-.02.05-.05.13-.08.16-.03.03-.11.08-.11.08,0,0,.04,0-.04.08-.07.08-.09.07-.1.13,0,.06-.13.21-.13.21,0,0,0,.06-.05.1-.04.04-.05.12-.12.15-.06.03-.14.03-.17.03-.01,0-.04,0-.07-.01.99,1.42,2.31,2.53,3.83,3.21.25-.14.47-.14.69-.14.13,0,.27-.03.37-.06-.93-1-1.69-2.58-2.16-4.5-.44-.02-.87-.04-1.29-.07"/>
        <path class="cls-9" d="M386.55,966.89l.04.16-.06.04-.1.11-.1.12h-.25s-.14.1-.14.1l-.11-.08-.09-.1-.1.02-.14-.05v-.1l-.07-.11.07-.21c-.66.01-1.32.04-1.97.07-.33,1.38-.52,2.94-.52,4.59,0,.74.04,1.46.11,2.16.05.06.11.16.12.23,0,.06-.02.16-.06.25.08.64.19,1.25.32,1.82,1.36.06,2.76.09,4.19.1v-3.79s0,0-.01,0c-.04-.03-.11-.24-.24-.29-.13-.05-.48.15-.48.15,0,0-.19.1-.32.11-.14,0-.18-.02-.18-.02h-.3s-.18.12-.24.12c-.07,0-.17-.08-.21-.16-.04-.08-.38-.3-.38-.3,0,0-.18-.15-.16-.22.02-.07-.19-.24-.2-.3-.01-.06-.18-.11-.25-.19-.06-.09-.05-.13-.04-.23.02-.11-.12-.22-.12-.22l.1-.16s.04-.28.04-.41c0-.13-.06-.1-.04-.19.02-.08-.09-.14-.1-.33,0-.18.12-.31.12-.31,0,0,.1-.23.15-.28.04-.05.19-.35.23-.38.04-.02.32-.08.37-.27.02-.06.03-.09.03-.1l-.03-.14.04-.09c.04-.09,0-.05.03-.09.04-.05.14-.12.19-.14.05-.02.18-.16.18-.16v-.1s.08-.02.08-.02l.13.07h.24s.17-.07.17-.07l.13-.05s.11-.08.2-.1c.08-.02.25.1.48.01.23-.08.18-.01.18-.01l.21.02v-.6c-.35,0-.69,0-1.03,0l-.1.13Z"/>
        <path class="cls-9" d="M380.49,978.06c-.02.07-.07.14-.12.15-.08,0-.23.03-.28.03s-.2-.01-.2-.01c0,0,.02.13.02.16s.06.08.03.12c-.03.04-.11.06-.11.06l-.17-.07s-.05.01-.05.05.06.13.06.13l.11.04-.04.08-.08.04.04.1v.1s-.14.05-.14.07c-.01.03,0,.14.07.17.07.03.16.07.16.07l.03.09-.02.1s-.06.07-.06.1c0,.02,0,.07-.01.1,1.23.63,2.61,1.12,4.1,1.44.07-.04.16-.09.25-.14-1.41-.66-2.64-1.69-3.6-2.98"/>
        <path class="cls-9" d="M385.78,980.64l.73.03.61.3.56.07v-4.76c-1.41,0-2.78-.03-4.12-.08.49,1.94,1.27,3.51,2.21,4.45"/>
        <path class="cls-9" d="M369.01,973.71c-.3-.73-.46-1.49-.46-2.27,0-.83.18-1.64.52-2.42-1.53.53-2.57,1.13-2.97,1.76-.03.22-.04.44-.04.66,0,.17,0,.33.03.49.38.64,1.4,1.24,2.92,1.77"/>
        <path class="cls-9" d="M388.75,975.67s-.03-.21-.03-.25.01-.34,0-.43c0-.09.14-.25.14-.33,0-.07,0-.15-.04-.26-.05-.11.01-.14-.04-.28-.05-.14-.59-.95-.59-.95l-.1-.13s.09-.13.14-.18c.05-.06-.07-.12-.06-.17,0-.06.04-.12.07-.2.04-.08-.08-.18-.17-.24-.05-.03-.08-.03-.1-.02v3.8c.33,0,.66,0,.99,0-.07-.14-.18-.31-.21-.33"/>
        <path class="cls-9" d="M389.51,967.59l.25.05.04.03h.04s0,.03,0,.03h-.18s-.16-.07-.16-.07v-.05ZM390.81,967.63s.06,0,.06,0l-.05.05v.03s-.07.08-.07.08c0,0-.07,0-.07,0s-.08-.07-.08-.07c0,0,.2-.08.2-.08M388.34,967.97l.2.07.07.17.2.05.21.1.14-.14v-.11s.08-.05.08-.05l.21-.06.21.12.2.07s.1,0,.17.03c.07.02.21.04.26.04.04,0,.1,0,.1,0l.13-.05.16.07h.16s.09-.06.1-.06c.02,0,.04-.13.04-.13l.04-.17s.05-.07.06-.09c.01-.01,0-.1,0-.1l-.05-.08s.03-.07.03-.09c0-.01-.01-.08-.01-.08l-.06.03-.09-.06-.12.12s-.13,0-.16,0c-.03-.02-.04-.06-.07-.09-.03-.04-.16-.03-.16-.03l-.04.08h-.12l-.05-.08h-.16s-.21-.21-.21-.21v-.18s-.05-.07-.05-.11c0-.04-.03-.1-.03-.1,0,0-.1-.02-.11-.02-.01,0-.03.04-.03.04l-.11.02s-.1-.03-.1-.01c0,.01,0,.12,0,.12l.16.2-.07.1s0,.14,0,.15c0,.01-.05.02-.05.02l-.1-.09-.12-.13v-.06l-.14-.11-.11-.21v-.08c-.09,0-.18,0-.28,0,.05.03.18.14.18.14v.06s-.08-.06-.08-.06c0,0-.06-.03-.09-.04-.03-.01-.04.04-.05.05-.01.01,0,.06.02.06.01,0,.07.04.07.04v.06s-.04.01-.05.02,0,.07,0,.07l-.06.07h-.05s0-.04,0-.04l.05-.05h-.02s0-.03,0-.03l-.04-.17-.23-.16h-.03c-.09-.02-.18-.02-.27-.02v.79l.02.05-.02.03v.17c.08.07.19.16.21.17.03,0,.16,0,.16,0"/>
        <path class="cls-9" d="M388.97,980.23l.11.2-.45.2-.1-.27.44-.14ZM388.49,981.04c.17-.14.99-.4.99-.4,0,0,.12.02.3.05.96-.93,1.76-2.51,2.26-4.49-.12,0-.24,0-.36.01-.01.07.01.07-.03.12-.04.06-.09.05-.16.08-.07.03-.11.18-.11.18,0,0,.04.2.03.25,0,.06-.04.13-.13.22s-.33.37-.46.51c-.13.15-.3.21-.55.22-.25.01-.47.2-.47.2l-.16-.29s-.01-.16-.02-.21-.2-.26-.24-.39c-.04-.13-.25-.37-.27-.4-.01-.03-.04-.26-.04-.33,0-.04-.01-.07-.04-.1-.36,0-.72,0-1.09,0v4.8c.11.02.4.06.53-.04"/>
        <path class="cls-9" d="M388.33,966.26s-.18-.17-.2-.22c-.02-.05-.1.02-.12.04-.03.02-.01.11-.01.13,0,.02.09.08.17.13.07.06.04.03.07.07.02.02.03.04.04.06h.34c-.07-.05-.28-.2-.28-.21"/>
        <path class="cls-9" d="M382.72,974.67s-.06.13-.06.14-.02.29-.02.33c0,.04-.14.57-.2.71.25.01.51.03.77.04-.11-.48-.21-.97-.28-1.48-.05.06-.1.1-.11.12-.02.04-.08.13-.11.14"/>
        <path class="cls-9" d="M392.42,962.31l.11.09h-.04c.43.28.83.59,1.22.94,0-.02,0-.04,0-.04,0,0,.03-.34.03-.46-.01-.13.16-.08.35-.13.12-.03.35-.09.59-.12-1.26-.51-2.62-.88-4.08-1.1.61.21,1.19.49,1.74.83h.07Z"/>
        <path class="cls-9" d="M388.73,962.79h.73s.04.13.13.14c.09,0,.9.29.9.29l.13.04c-.75-1.17-1.67-1.88-2.67-1.95v1.67c.05-.04.08-.03.21-.05.17-.03.56-.13.56-.13"/>
        <path class="cls-9" d="M388.35,964.82h.23s.19-.04.19-.04l.03-.1v-.14s.1-.11.1-.11c0,0,.08,0,.05-.01-.03-.02,0-.17,0-.17h.55c.07,0,.27-.14.37-.16.09-.02-.04-.17-.04-.17l-.3.11-.5.1-.23-.1-.02-.15s-.11-.14.03-.2c.13-.06.22-.23.22-.23l-.24-.11-.16.06.07.11-.14.09-.22.17v.21s.24.16.24.16l-.2.22-.26.24-.15-.02v.25l.11.04.27-.04Z"/>
        <path class="cls-9" d="M390.99,963.33l.28-.04s.52,0,.83-.04c.31-.04.17-.17.17-.17l.58.04v-.12c-.24-.17-.48-.33-.73-.48h-.03s-.28.31-.28.31l.14.17-.18.04-.34-.28.34-.37h.1c-.83-.47-1.74-.8-2.68-.96.66.39,1.27,1.05,1.79,1.92"/>
        <path class="cls-9" d="M381.49,965.84s-.01.09-.06.11c-.05.03-.29.03-.29.03l-.08-.06h-.32s-.01-.09-.01-.09l.24-.16.17-.21.2-.12.03.19-.14.07.18-.03s.11.03.11.06-.03.21-.03.21M382.85,963.65s0-.27,0-.35.11-.21.11-.21c0,0,.06-.19.11-.2.04-.01-.02-.07-.06-.1-.72.48-1.37,1.08-1.94,1.76,0,.06-.02.13-.06.16-.06.04.17.12.2.13.03,0,.11.08.11.08l-.23.07h.06s.18,0,.18,0l.14.06.06.06-.04.1-.06.04-.28.11s-.24.13-.27.13c-.03,0-.15.06-.15.06h-.39c-.12.18-.24.38-.35.57h.27s.22-.11.22-.11l.07.06-.21.16-.32.04-.17.11c-.07.14-.14.27-.21.42,1.18-.1,2.41-.18,3.68-.24.35-1.34.84-2.51,1.42-3.43-.14.02-.24.03-.24.03l-.62.38-.37.39-.19-.06-.3-.05-.18-.18Z"/>
        <path class="cls-9" d="M404.68,977.59s-.31.27-.31.27l-.14.03.1-.39h.11s.25-.03.25-.03c0,0,.02.11-.01.12M405.92,975.04s0,.01,0,.02c.04.08.18.28.24.37.06.09.12.02.07.19-.04.17.03.21-.17.36-.19.15-.58.62-.72.8-.13.17-.16.24-.26.26-.11.02-.31.08-.39.1-.08.02-.2.03-.3.04-.1,0-.14.06-.26.02-.1-.03-.13-.04-.15-.08-2.2,1.84-5.44,3.28-9.27,4.08,3.19-.51,6.11-1.36,8.56-2.53,3.54-1.69,5.69-3.86,6.19-6.18-.58.58-1.6,1.12-3,1.6-.16.33-.35.65-.56.96"/>
        <path class="cls-9" d="M406.58,969.03c.34.78.52,1.59.52,2.42,0,.78-.16,1.54-.46,2.27,1.52-.54,2.54-1.14,2.92-1.78.01-.16.02-.32.02-.49,0-.22-.01-.44-.04-.66-.4-.63-1.44-1.23-2.97-1.76"/>
        <path class="cls-9" d="M395.99,975.96c-1.17.1-2.4.18-3.66.23-.49,1.96-1.27,3.56-2.23,4.56.36.06.78.14.97.17,2.15-.92,3.9-2.7,4.92-4.97"/>
        <path class="cls-9" d="M379.5,967.12c-.54,1.27-.85,2.67-.87,4.16.01,0,.01,0,.02,0,.06-.02.25-.06.25-.06,0,0,.07.04.18.08.11.04.16.07.16.07v.07l.12.03s.03.05.11.08c.08.03.16.12.16.14s.03.05.03.05c0,0,.03-.03.09.04.07.06.07.12.16.11.08-.01.2-.06.3-.03.1.03.33.13.37.16.05.03.13.14.14.17,0,.03.07.13.07.13l.09.19s0,.08,0,.11c-.01.03.06.1.09.11.04.01.16.04.16.04l.08.09s.25,0,.28.02c.03.03.3.13.3.16,0,.03.08.05.12.04.04,0,.25.1.29.1.04,0,.11-.04.2,0,.08.03.13.04.2.1.04.04.14.1.22.15-.06-.65-.1-1.31-.1-2,0-1.64.19-3.2.52-4.58-1.29.06-2.54.15-3.74.25"/>
        <path class="cls-9" d="M400.77,975.39c-1.37.21-2.87.4-4.46.54-.98,2.27-2.68,4.08-4.77,5.09.16.03.35.07.53.1,3.93-.9,7.11-3.02,8.7-5.73"/>
        <path class="cls-9" d="M403.97,976.7s-.13.06-.18.08-.16.06-.17.03c-.02-.03,0-.18-.12-.25-.12-.06-.4-.04-.43-.04-.04,0-.25.05-.39.07-.14.03-.12-.02-.27.1-.16.12-.1.13-.21.15-.12.02-.18-.02-.3.01-.12.03-.16.05-.28.09-.13.04-.28.13-.32.07-.04-.06-.13-.12-.13-.12,0,0,.27-.18.26-.3,0-.11,0-.52-.02-.62-.01-.1-.04-.07-.03-.18.02-.11.13-.41.17-.46.02-.02.08-.06.15-.1-.19.03-.38.06-.58.1-1.51,2.74-4.59,4.91-8.41,5.92,0,0,0,0,.01,0,4.72-.68,8.73-2.3,11.25-4.48,0-.05,0-.08,0-.08"/>
        <path class="cls-9" d="M399.25,971.85l.08.04h.17s.06.12.06.12l.21.14.16.11.17.15.13.07.1.05-.04.11.05.03.11.11.16.09-.03.39h-.13s-.23-.21-.31-.24c-.08-.03-.14-.12-.16-.17,0-.05-.12-.14-.12-.14l-.13-.13s-.06-.21-.06-.23c0-.02-.14-.11-.14-.11l-.14-.1s-.21-.25-.23-.28c0-.02.08-.01.08-.01M400.86,970.2s-.08-.01-.12-.03c-.04-.01-.04-.1-.04-.1l.08-.11h.13s.07.02.07.02l-.04.16-.08.05ZM397.3,971.84l-.06-.03-.02-.06c-.04,1.37-.31,2.68-.79,3.88,1.61-.15,3.13-.34,4.52-.57.24-.45.43-.93.58-1.41l-.24-.06h-.32s-.25-.07-.25-.07v-.05s-.12-.05-.12-.05v-.08s.13-.01.17-.01c.04,0,.1.03.1.03,0,0,.14.07.19.06.05,0,.12.02.12.02l.07-.07.24.07.1.03c.05-.17.1-.35.13-.52h-.17s-.1.02-.1.02l-.07-.04h-.19s-.04-.21-.04-.21l-.12-.12v-.16s.06-.13.06-.13l.18.06.1-.17.21-.08.13-.18.15-.04v-.05c.02-.13.03-.25.03-.38,0-.66-.09-1.31-.25-1.93-.09.06-.18.1-.23.12-.11.03-.4.13-.4.13l-.12.04v.12h-.08s-.07-.16-.07-.16c0,0-.12-.04-.26.03-.14.08-.18.31-.18.31l.12.12s.07.06.13.11c.07.04.23.19.23.19,0,0,.12.17.11.24s0,.3,0,.3l-.18.11-.24.24h-.06s-.02-.13-.02-.13l.03-.08s-.14-.02-.16-.02c-.01,0-.13-.07-.13-.1,0-.04-.18-.17-.18-.17h-.07s-.09-.02-.09-.02v-.1s-.09.01-.09.01v.17s-.06.25-.06.25l.02.13h.06s.06.06.06.06c0,0,.1.16.11.18,0,.02.07.06.07.06,0,0,.06.02.13.08.07.05.14.17.17.2.03.03.04.26.05.3,0,.03.08.13.08.13l-.06.03-.34-.21s-.17-.3-.18-.38c0-.08-.23-.32-.28-.35-.06-.03.02-.31.01-.43,0-.13-.17-.35-.18-.43,0-.08-.17-.29-.17-.29,0,0,.01.04-.01.1-.02.06-.15.11-.15.11l-.15-.03s.02-.26-.02-.28c-.03-.02-.12-.21-.23-.26-.1-.04-.16-.21-.17-.26,0-.05-.15-.09-.15-.09l-.04.06-.16.04h-.11l-.19.07v.1s0,.06-.06.09-.23.21-.23.21c-.09.07-.18.18-.19.22-.01.04-.16.12-.16.12,0,0-.01,0-.02.01.02.27.03.53.04.81.01.01.19.21.21.23.02.02.03.13.03.13l-.03.07-.13.07Z"/>
        <path class="cls-9" d="M403.86,967.1l-.06.14-.17-.06-.08.02.03.07-.06.02-.15-.11s0-.09.06-.1c.07,0,.01-.07.01-.07l-.11-.16v-.04s.31.16.31.16l.27.06.06.09h-.1ZM403.21,966.59l-.14-.18-.13-.12-.16-.19-.24-.21-.03-.09.34.24.31.22.03.18.15.2-.07.05-.08-.09ZM403.94,967.81l.06.18c.73.17,1.41.35,2.02.55-.72-1.29-1.9-2.46-3.44-3.47h-.04s-.09.01-.09.01c0,0-.03,0-.13,0-.09,0-.24-.04-.39-.04-.14,0-.14.02-.14.02l-.13.33-.12.17.04.02.18.03.07.09h.13s.02-.05.02-.05c0,0,.25.1.31.13.06.03.16.08.16.08,0,0,.05.07.06.09.01.02.08.16.12.2.04.04.16.28.16.28v.07s0,.11.01.13c0,.02-.05.1-.07.16-.02.07-.07.19-.08.21,0,.01-.13.1-.13.1l-.12-.03-.07-.06s-.04.03-.04.08-.13.11-.13.11l.09.12-.11.1h-.07s.06.11.06.11c0,0,.14.07.22.11.39.07.76.15,1.13.23l.13-.04.06-.24-.1-.12v-.14s.09.02.09.02l.07.07.19.14-.07.16.08.09Z"/>
        <path class="cls-9" d="M392.8,966.13l-.07-.03-.07.02-.12-.03-.11.03-.1.06-.11.09h-.01c.03.11.06.21.08.31.12,0,.24.01.36.02l-.11-.1v-.08s.07.05.07.05l.07-.02-.06-.05.04-.05.23.02v-.04s-.08-.04-.08-.04v-.15Z"/>
        <path class="cls-9" d="M401.89,967.56s0,0,0,0c0-.05-.07-.1-.07-.1,0,0-.15-.02-.22-.01-.04,0-.09.03-.13.05.14.02.28.05.42.07"/>
        <path class="cls-9" d="M375.88,963.63l.35-.02.24-.03.15.03s-.07.05-.07.07c0,.02.02.08.05.07.02,0,.12-.1.12-.1v-.08l.34-.07.27-.02h.03s0-.04,0-.06c0-.06-.22,0-.22,0,0,0-.66.1-.71.08-.05-.02-.15-.04-.11-.1.03-.06.21-.08.25-.08.01,0,0-.01-.03-.03-.17.07-.34.14-.5.21h.1s0,.07,0,.07l-.24.06Z"/>
        <path class="cls-9" d="M401.26,967.76s-.02,0-.03,0c0,0,0,.01,0,.02h.02Z"/>
        <path class="cls-9" d="M396.07,962.66c.25.04.51.14.32.19-.2.04.24.2.24.2l.65.14s.51-.07.71-.05c.2.02.59.23.59.23l.65.12.33.03.03-.04c-2.02-.85-4.36-1.49-6.91-1.85.98.26,1.92.59,2.79,1,.22.01.44,0,.6.04"/>
        <path class="cls-9" d="M376.21,969.47l.26.02h.14s.11.06.11.06l.2.08.17.07.11.06.18.03v.07s-.07.04-.07.04h-.15s-.24.01-.24.01h-.07s.14-.06.14-.06v-.03s-.08,0-.08,0l-.11-.06-.04-.1h-.08s-.18-.03-.18-.03l-.14-.03-.08-.03-.13.06-.18.05-.04-.03.31-.18ZM377.6,969.96l-.04-.03.03-.05.2.04.18-.03s.11.08.14.1c.03.01.16.05.16.05l.02.06-.18-.02-.14.05-.04-.03-.14.13-.06-.08h-.37s0-.06,0-.06l.17-.02.1-.06-.02-.06ZM377.04,970.2h-.18s-.06-.08-.06-.08l.03-.03.23.07v.04ZM375.13,968.64c-.07-.01-.24-.02-.24-.02,0,0-.22.06-.39.08-.09.01-.19.09-.27.18-.11.3-.2.6-.27.91.05.18.25.36.49.33.28-.03.49-.15.49-.19,0-.04.15-.17.15-.17l.3-.03h.13s.04.06,0,.14c-.04.09-.21.25-.21.25,0,0-.08.1-.11.17-.02.07-.11.13-.15.18-.04.06.24.04.24.04l.41-.03s.24.04.24.08c0,.04-.11.39-.11.52s.16.26.26.31c0,0,.05.07.16.03.11-.04.29-.06.29-.06l.18.06.11.16.04-.12.12-.07s.06-.05.06-.08-.06-.07.04-.13c.09-.05,0-.04.09-.05.1,0,.12-.02.26-.08.14-.06.18-.07.18-.07l.04.07-.08.1v.08s-.03.1,0,.12c.03.01.14,0,.14,0l-.07-.14.02-.05.31-.09.17.07s-.02.07.01.08c.03,0,.01,0,.18,0,.01-.35.03-.7.07-1.04h-.01v-.07h.02c.12-1.04.38-2.03.76-2.95-.4.04-.8.08-1.19.12,0,.01-.02.05-.05.07-.03.02-.2.18-.2.18v.13s-.38.29-.44.31c-.06.01-.27.11-.31.14-.04.03-.21.17-.26.23s-.07.32-.08.37.06.19.06.22c0,.03.04.07,0,.13-.05.06-.16.14-.16.14l-.07-.03s-.05-.17-.07-.21c-.02-.04-.06-.1-.06-.12,0-.03,0-.13,0-.13l-.03-.08s-.08-.08-.15-.04c-.07.04-.15.05-.15.05,0,0-.13-.13-.26-.12-.13,0-.39-.1-.39,0,0,.11.2.1,0,.11-.19.02-.19.03-.26.02"/>
        <path class="cls-9" d="M402.97,965c.24.16.46.32.68.49-.03-.03-.05-.04-.05-.04l-.02-.1s.09.02.11-.04c.02-.05,0-.11,0-.15s0-.11,0-.11l.08-.05-.02-.06-.11-.08-.03-.06h-.1s.04.07.04.07l-.03.03-.09.09s-.1-.05-.13-.09c-.03-.04-.06-.05-.24-.05-.17,0-.09.12-.09.12,0,.01-.01.02-.01.03"/>
        <path class="cls-9" d="M395.68,969.51s-.12.03-.14,0c-.02-.03-.2-.11-.2-.11l-.18-.23h-.14s-.39.05-.44.03-.3-.07-.45-.09c-.16-.02-.13-.07-.15-.12-.02-.05-.05-.09-.13-.09s-.16.08-.19.07c-.04,0-.24-.08-.28-.1-.04-.01-.17-.08-.2-.13-.03-.05-.15-.3-.22-.3-.07,0-.17,0-.21.02s-.01.09.04.16c.05.07.15.2.2.25.05.06.09.09.09.16,0,.06.07.12.07.12l.05.02-.02-.11.06-.04.04.06.04.2s.06.04.08.03c.03,0,.07,0,.13,0,.06,0,.11,0,.14-.05.04-.04.21-.24.21-.24,0,0,0,.07.03.18.01.1.2.16.24.18.04.02.06,0,.1.03.04.02.07.08.1.12.03.04.06.04.06.04,0,0-.02.12-.13.25-.11.13-.08.23-.08.23,0,0-.08.02-.1.06-.02.03,0,.07-.06.08-.07.01-.1.08-.16.11-.06.03-.12.03-.25.08-.13.05-.07.16-.07.16-.17.04-.43.16-.64.26,0,.12,0,.24,0,.37.03-.01.07-.02.1-.01.07.02.06-.02.13-.03.07,0,.09,0,.09,0l.18-.1h.07s.03.2-.04.32c-.06.12-.07.43-.16.57-.09.14-.22.29-.32.4-.02.02-.05.05-.07.08-.06,1.23-.22,2.41-.47,3.49,1.29-.06,2.53-.14,3.72-.25.52-1.26.82-2.66.82-4.14l-.06.04s-.13-.11-.17-.21c-.05-.11-.12-.18-.26-.44-.14-.26-.21-.37-.25-.48-.04-.11-.16-.48-.16-.48,0,0,.02-.08,0-.14-.02-.07-.01-.08-.01-.08l-.04-.05-.04.1s-.12.08-.17.07c-.05-.01-.21-.21-.21-.21,0,0,.04-.01.08-.04.04-.03.04-.06.04-.06"/>
        <path class="cls-9" d="M401.25,967.28l-.06.16c.06,0,.12.02.18.03l-.03-.04.03-.12-.12-.03Z"/>
        <path class="cls-9" d="M400.97,963.59c.4.03.24.02.7.16.18.05.58.13,1.02.2-2.26-1-4.97-1.77-7.97-2.25,2.06.43,3.95,1.05,5.6,1.81.18.03.43.06.65.08"/>
        <path class="cls-9" d="M392.11,975.91c.23-.99.39-2.07.45-3.21-.06.06-.12.13-.18.19-.18.21-.35.76-.35.76l.09.12s.05.11.04.17c-.01.06,0,.24,0,.24,0,0,.1.08.11.16.02.07,0,.07.01.24.02.16,0,.2.01.35,0,.15-.3.38-.43.42-.13.04-.11.13-.17.18-.06.06-.08.17-.08.17,0,0,.04.07.06.23.14,0,.28,0,.42-.01"/>
        <path class="cls-9" d="M378.3,962.97l-.17-.16.38-.12.14.04-.35.24ZM379.6,962.41c.09-.07-.11-.03-.11-.03l-.35.13-.06-.07c-.62.17-1.23.37-1.81.58.04.01.07.03.07.03,0,0,.13-.08.21-.11.08-.03.25-.03.25-.03l-.19.18.11.07-.12.33h.13s.21-.03.23,0c.02.03-.02-.09-.02-.09l.28-.04.14.03.16-.13-.07-.03-.11-.05.22-.13s.16-.16.18-.15c.03,0,.18-.16.18-.16,0,0,.22-.04.24-.04.03,0,.03.07.03.07l-.26.16-.11.14-.08.08.11.13s.08-.07.1-.07c.01,0,.05,0,.08,0,.11-.06.22-.12.34-.18-.32.03-.03-.11-.03-.11l.22-.15.3-.16.48-.05c.08-.04.16-.07.24-.11l-.82.08s-.27-.03-.17-.11"/>
        <path class="cls-9" d="M377.01,954.08c-.06.03-.07.09-.05.14.03.06.09.08.15.05.05-.03.19-.17.21-.23,0-.01-.26,0-.31.03"/>
        <path class="cls-9" d="M413,935.76c-.17.25-5.07,4.58-10.22,6.83,0-.1,0-.2,0-.29,0-.11,0-.21,0-.3,5.37-2.22,10.01-6.4,10.06-6.45t0,0c.1-.07.17-.09.22-.04.06.06,0,.16-.07.26M411.96,938.75c-.08.25-4.62,3.53-9.35,5.51.05-.27.08-.54.11-.78,2.36-.88,5.56-2.38,8.88-4.82.15-.12.26-.16.32-.11.08.06.04.17.03.2M410.89,941.33c0,.24-2.51,1.68-4.76,2.81l-1.58.76c-.82.37-1.61.71-2.37,1.02.1-.26.17-.51.24-.76,2.29-.81,5.24-2.06,8.25-3.93.02-.02.08-.07.16-.04.03.01.07.05.07.14h0ZM408.25,944.1h0s0,.01,0,.01c0,0,0,0,0-.01,0,0,0,.01,0,.02,0,0,0,.01-.01.02,0,0,0-.01.01-.01-.01.03-.03.08-.03.08-.04.05-.27.2-.67.42l-1.2.62-.46.23c-.79.38-1.6.75-2.43,1.1-.56.24-1.23.51-1.95.78.1-.18.2-.37.28-.55.43-.15.89-.31,1.36-.49,1.21-.47,2.54-1.1,4.15-1.92.19-.09.74-.37.87-.38.03,0,.07.01.08.04,0,0,0,.02,0,.03,0,0,0,0,0,.01M406.66,946.07s-.32.2-.74.41c-.23.11-.51.25-.84.4-.13.06-.26.11-.41.18-.8.35-1.8.76-2.94,1.17-.35.13-.72.25-1.09.38.09-.1.17-.21.25-.31.33-.11.67-.22,1.02-.35,1.85-.69,2.55-.88,3.96-1.55.25-.12.49-.24.75-.36,0,0,.14-.1.04.03M403.36,948.53s-.04.03-.06.04c-.17.07-1.69.81-4.28,1.53.18-.13.36-.26.53-.4,1.09-.3,2.3-.68,3.7-1.19.04-.02.1-.04.14-.05,0,0,.01.03-.04.07M395.49,950.01c-.06,0-.03-.05-.03-.05,0,0,.22-.17.35-.26.12-.09.22-.14.22-.14.48-.08,1.95-.37,4-1,0,0,.03.02,0,.06-.01.01-.02.03-.04.04-.12.09-.56.31-1.27.55-1.05.3-2.14.58-3.24.8M398.01,950.19s-.02.01-.03.02c-.03.02-.07.03-.1.05-.2.09-.58.24-1,.35-.28.06-.57.11-.86.16-.11.01-.21.03-.29.05-.44.07-.89.13-1.3.16-.41.04-.09-.19-.04-.23.03-.03.09-.03.09-.03.41-.04,1.62-.17,3.5-.62.03,0,.07.03.02.09M394.77,951.91c-.58.03-1.53.01-1.54.01-.06,0-.11-.06-.11-.11,0-.06.05-.11.11-.11.01,0,.96.01,1.53-.01.06,0,.11.04.12.11,0,.06-.05.11-.11.12M392.94,950.73c-1.82,1.3-5.47,1.79-6.23,1.77-.75-.02-1.32.92-2.44,1.74-1.12.81-2.29.59-2.29.59.3-.4.24-.99.24-.99-.38.69-.97,1-1.41,1.12-.44.11-.68.1-1.3.1-.62-.01-1.05.24-1.36.28-.31.04-.75-.06-.75-.06.2-.12.52-.24.72-.25.2-.01.75-.16.75-.16-.66-.2-1.53.2-1.53.2-.48.19-.73.01-.73.01-.65.18-.56.71-.56.71,0,0-.21-.36-.23-.92-.02-.56,1.32-1.22,1.32-1.22.73-.14,1.04.23,1.04.23.18.32.49.5.73.31.24-.18.3-.45.49-.47.2-.01.38,0,.38,0,0,0,.25-.16.25-.2,0-.04-.06-.03-.06-.03,0,0-.36.09-1.35.14-1,.04-1.34-.58-1.34-.58,1.83-.58,3.63-2.31,5.58-2.72,1.94-.4,3.98-.06,3.98-.06-.54.62-.68,1.14-.68,1.14,4.47-2.95,7.22-3.83,7.22-3.83,1.9-3.39,3.97-4.91,5.56-5.96,1.59-1.05,3.56-3.5,3.73-3.83.18-.35.27-.34.27-.34-.07,1.22-1.26,2.54-2.24,3.49-.98.95-2.46,2.01-2.46,2.01-.1.11-.02.15-.02.15,0,0,.31.04.35.04s.04.09.04.09c-.32.48-.89.86-.96.95-.08.1.02.12.02.12,0,0,.13.01.21.04.09.03,0,.2,0,.2l-.91.89c-.08.08-.04.13-.04.13,0,0,.43-.06.47-.04s.06.11.06.11c-.18.45-.78.97-.86,1.06s-.04.12-.04.12c0,0,.41-.02.44-.02.03,0,.02.06.02.06-.77,1.12-2.32,1.99-2.32,1.99,0,0,.45.2.49.24.04.03,0,.07,0,.07-1.01.71-2.59,1.22-2.59,1.22,0,0,.35.17.39.24.03.06-.03.16-.03.16M399.23,956.82h0c.06,0,.14.08.17.16.02.06.01.11-.03.15-.1.11-.28.07-.3.07,0,0-6.74-2.51-6.75-2.51l-.13-.07s-.03-.03-.02-.05c0-.01.03-.03.04-.02,0,0,.11.03.11.03l6.91,2.25ZM398.76,957.93c-.08.13-.2.2-.35.2h-.04s-.01,0-.02,0l-6.55-3.05s-.03-.03-.02-.05c.01-.02.03-.03.05-.02l5.6,2.14,1.39.54s.03.02.03.04c-.01.07-.04.14-.07.2M397.64,958.6s-.03.06-.04.07c-.07.11-.19.16-.34.17h-.03l-.1-.03s-.09-.03-.1-.04c0,0-3.38-1.94-3.38-1.94l-1.96-1.15-.07-.05s-.02-.03-.01-.05c0-.01.03-.02.04-.02,0,0,.14.04.14.04l5.86,2.87s.03.03.02.04c0,0-.02.08-.03.08M396.07,959.48c-.05.05-.2.16-.51-.04,0,0-4.35-3.21-4.35-3.21l-.11-.11s-.01-.03,0-.05c.01-.01.03-.01.05,0,0,0,.22.11.22.12l4.45,2.81s.25.18.29.27t0,.01v.08c.01.06,0,.11-.04.14M392.22,960.12c.26-.07.4-.22.4-.23,0,0,.03-.01.07.02l.17.11.29.2c-.31-.04-.62-.07-.94-.1M404.67,964.32c.22.12.43.24.64.37,3.14,1.91,4.85,4.26,4.85,6.76,0,2.93-2.35,5.67-6.62,7.71-4.2,2.01-9.78,3.12-15.71,3.12s-11.51-1.11-15.72-3.12c-4.27-2.04-6.62-4.78-6.62-7.71,0-2.24,1.38-4.37,3.93-6.16.79-.55,1.68-1.07,2.68-1.55.1-.05.21-.1.31-.15,4.17-1.92,9.62-2.97,15.41-2.97s11.51,1.11,15.71,3.12c.4.19.77.38,1.13.58M377.71,961.04s-.01,0-.01,0c-.03-.04-.06-.09-.09-.13l-.26-.36s0,0,0,0c0,0,0,0-.01-.01-.01,0-.03-.02-.04-.04h0s0-.04-.01-.06c0-.03,0-.05.03-.08.07-.11.14-.18.18-.23.15.1.58.39,1.31.51.03,0,.05,0,.07-.02.01-.01.02-.03.02-.05h0s-.01-.16-.03-.26c.14.02.43.05.77.05,0,0,.07,0,.1-.04,0-.01.03-.05,0-.11l-.07-.08c-.12-.13-.41-.45-.41-.75,0-.17.2-.38.44-.44.15-.04.42-.06.61.25.34.57.14.82.13.83-.02.03-.02.06,0,.09.01.03.05.04.08.03,0,0,.59-.16.6-.75v-.35c-.02-.3-.03-.44.18-.65,0,0,.16-.09.29.05.05.09.3.39,1.46.21h0s0,.01,0,.01c-.03.1-.19.3-.25.37,0,.01-.04.06-.04.11,0,.01,0,.03.01.04.01.03.04.07.13.08.19.03,1.45.03,2.57-.49-.01.07-.07.24-.11.34-.02.03-.04.08-.01.13.01.03.05.07.13.07.11,0,1.23-.32,2.37-1.64,0,0,.03-.01.03-.01.02.03.14.25.21.39.04.05.11.13.19.09.01-.01.05-.03.57-.69,0,0,.02,0,.05.03.07.09.58,1.09.9,1.75.01.03.28.47.65.47h.24c.16-.02.23-.03.37.06l.15.09c.11.07.24.16.4.21-1.23-.1-2.49-.15-3.77-.15-3.57,0-7.01.4-10.12,1.15v-.03ZM376.9,961.22s0,0,.02,0c0,0-.01,0-.03,0,0,0,0,0,0-.01M377.33,958.8c.23-.32,1-1.15,1-1.15,0,0,1.07-.11,1.68-.23.61-.12,1.75-.29,1.75-.29l.02.12c-.02.14-.23.14-.23.14-.61.07-.78.36-.8.63-.02.28-.16.65-.16.65,0-.13-.11-.55-.44-.65-.33-.1-1.08.1-1.39.55-.31.45-.01,1.1-.01,1.1-.57-.25-.62-.62-.61-.77.02-.16.17-.44.19-.51.02-.07-.04-.05-.04-.05,0,0-.47.41-.5.61-.04.19.17.72.17.72,0,0-.48-.32-.62-.51-.14-.19-.01-.36-.01-.36M389.95,954.67c.02.06,0,.12-.06.15-.06.02-.13,0-.15-.06-.35-.85-.9-1.21-.91-1.22-.05-.03-.06-.1-.03-.16.03-.05.1-.07.16-.03.03.01.62.4,1,1.32M390.49,954.12s-.06.02-.08,0c-.41-.49-.93-.78-.93-.78-.03-.01-.04-.05-.03-.08.02-.03.05-.04.08-.02.02.01.54.3.97.81.02.02.02.06,0,.08M390.33,958.67s-.06,0-.08-.02l-.5-1.05s0-.05.02-.06c.03-.01.06,0,.07.02l.52,1.04s0,.06-.03.07M390.81,956.68s.04-.01.06,0l3.07,2.75s.02.03.01.04c-.03.06-.08.11-.14.14-.08.04-.19.04-.31,0,0,0-.09-.04-.1-.05l-1.32-1.45-.95-1.03-.32-.35s-.01-.04,0-.05M391.9,959.37s.02.02,0,.03l-.06.06s-.11.03-.27-.07l-1.35-2.01s0-.04,0-.05c.01-.01.04,0,.05,0l1.61,2.03ZM387.51,954.97c-.04-.11-.24-.55-1.12-.73,0,0-.04-.04.06-.08.1-.05.75-.18,1.68.14,0,0,.06.03.05-.03s-.2-.41-.61-.55c0,0-.04-.05.01-.06.06,0,1.65-.21,1.66,2.05,0,0-.03.08-.1.02-.07-.07-.4-.56-.61-.77-.22-.21-.25.03-.22.37.03.35-.17,1.62-.3,1.39-.13-.23-.23-.68-.39-.45-.16.24-.38.73-1.2,1.26,0,0-.08.03-.07-.07.01-.1.1-.73.1-.73,0,0,0-.11-.03-.11-.02,0-.84.71-1.75,1.14,0,0-.13.06-.1-.04.03-.1.37-.89.37-.89,0,0-.75.48-2.19.54,0,0-.05,0-.05-.05s-.08-.5-.3-.68c0,0,.75-.28,1.49-.76.35-.23.69-.49.95-.71.6-.15,1.38-.27,2.58-.15,0,0,.11.06.08-.05M380.59,956.73l1.41-1.09c.14-.1.2-.1.2-.1l.89-.02s-1.31.77-1.71.95c-.4.18-.75.31-.75.31-.07,0-.04-.04-.04-.04M380.3,948.91s-.03-.01-.05-.03c-.05-.03-.04-.06-.04-.06h.07s.26,0,.26,0c0,0,.01,0,.02,0,.02.01.08.06.08.1,0,.02-.01.03-.03.04-.06.01-.23-.03-.31-.06M380.11,948.18c-.1.02-.39-.05-.54-.11-.03-.01-.06-.03-.08-.04-.08-.06-.07-.1-.07-.11h.58s.02,0,.03.01c.03.02.14.1.15.18,0,.03-.02.06-.06.07M378.78,947.21c-.76-.03-1.39-.29-1.45-.35-.06-.05-.03-.07-.03-.08.56.06,1.12.1,1.68.12,0,0,.01,0,.01,0,0,0,.06.03.12.06.1.07.3.27-.33.25M378.16,948.11c-.37-.04-.79-.11-1.28-.2-.03,0-.05-.04-.04-.06,0-.03.03-.05.06-.05.38.04.8.07,1.24.09h0s.11,0,.21.06c.09.06.35.18.36.22-.18-.01-.36-.04-.55-.06M373.49,946.2s-.04-.04-.03-.07c0-.03.03-.05.07-.04.62.16,1.56.37,2.71.55.04.01.12.04.18.07.1.05.4.22.41.29-.82-.14-1.97-.38-3.33-.8M371.21,944.78s0,0,0,0c-.02,0-.04-.03-.04-.05h0s.04-.06.07-.06c.97.29,2.03.54,3.15.74.09.04.29.17.35.21.05.03.06.07.06.1-.08-.02-.17-.03-.26-.05-1.16-.23-2.29-.53-3.35-.89M368.64,943.16h0s-.03-.03-.03-.06c0,0,0-.01,0-.02,0-.03.04-.05.06-.04.55.2,2,.68,4.17,1.12.14.08.48.35.52.4.03.03.03.06.03.07-.04,0-.08-.02-.12-.03-1.78-.38-3.33-.87-4.63-1.45M366.9,941.8s.01,0,.01,0c-.02,0-.11-.05-.63-.29l-.14-.08s-.03-.03-.03-.05c0-.01,0-.01,0-.03.01-.03.04-.04.07-.03.33.13,1.02.39,2.02.69.97.3,2,.55,3.05.78.09.06.35.31.39.37.02.04.01.08,0,.1-.62-.14-1.22-.28-1.8-.44-.62-.17-1.21-.37-1.77-.56-.41-.15-.81-.31-1.18-.47M366.45,942.15s.01.01.03.01c-.01,0-.02,0-.03-.01M366.15,941.53s0,0,0,0h0s.01,0,.02.01c0,0,0,0-.02,0M364.61,939.76s-.19-.13-.21-.14h-.01s-.02-.03-.02-.05c0-.01,0-.02,0-.03.01-.03.05-.03.08-.02l.35.19c.37.19.99.49,1.85.84,1.09.44,2.27.83,3.52,1.16l.24.06c.07.06.23.21.26.28.02.06,0,.09,0,.1-.03,0-.11-.03-.33-.09l-.62-.17-1.09-.35-.06-.02-.4-.14-.55-.2c-1.19-.45-2.2-.93-2.98-1.43M363.81,938.14l-.19-.14h0s-.02-.03-.02-.05c0-.01,0-.02.01-.03.02-.03.05-.03.08-.01.28.2,1.37.91,3.33,1.72.48.2.97.39,1.48.56.37.13.75.25,1.15.38.11.04.21.16.27.25,0,.02.02.04.03.06,0,.01,0,.02,0,.03.01.08-.01.11-.01.11-.59-.19-1.17-.38-1.71-.59-1.74-.66-3.14-1.37-4.17-2.1l-.26-.2ZM363.31,936.53h0s0,0-.01-.01c0,0,0-.02,0-.03,0-.01,0-.03.02-.04.02-.01.05-.01.07,0,.08.08.27.26.61.52.57.42,1.69,1.14,3.59,1.92.12.16.25.32.41.47-1.37-.56-2.92-1.34-4.17-2.34l-.27-.23c-.11-.1-.2-.2-.25-.27M363.67,934.74s.06,0,.07.02c.11.18.47.67,1.23,1.33l.08.07c.25.21.54.43.83.65.32.23.66.45,1.03.67.03.11.06.23.1.36-.44-.27-.89-.58-1.34-.93-.48-.38-.92-.78-1.3-1.19l-.39-.44-.14-.17c-.07-.08-.15-.19-.2-.28h0s0-.01,0-.01c0,0,0-.01,0-.02,0-.02,0-.04.03-.05M367.53,937.81c.52.28,1.07.56,1.67.82l.47.42s.03.05.01.07c-.02.02-.04.03-.07.02l-.47-.2s0,0,.01,0c-.02-.01-.08-.04-.32-.15-.19-.09-.41-.2-.64-.31-.35-.22-.53-.34-.61-.45-.01-.04-.03-.07-.05-.11-.01-.06,0-.1,0-.12M367.77,935.37c1.16,2.14,2.49,2.88,2.56,2.92.28.18.5.7.58.91,0,.01.01.04.02.07-.14-.05-2.03-1.24-2.61-2.33-.44-.82-.55-1.35-.56-1.58,0,0,0,0,0,.01M371.01,940.36s-.04.03-.07.03c-.27-.08-.71-.21-1.24-.38-.41-.19-.75-.4-1.03-.62-.04-.04-.04-.07-.04-.08.56.21,1.16.41,1.83.62l.53.37s.03.04.02.07M371.55,941.12h.08s.12.05.12.05c0,0,.01,0,.02,0l.62.44s.03.04.02.07c-.01.02-.04.04-.07.03,0,0-.6-.15-.61-.15-.12-.03-.24-.07-.36-.1-.67-.25-.82-.42-.89-.53-.02-.03-.03-.05-.04-.07,0-.02,0-.03,0-.03.36.1.73.2,1.1.3M375.4,945.57c.2.03.4.06.61.08.58.07,1.17.13,1.78.18,0,0,.02,0,.03,0l.25.17s.03.04.02.06c0,.02-.03.04-.05.04-.01,0-.03,0-.04,0-.23-.03-.59-.05-.96-.08-.83-.06-1.53-.29-1.6-.36-.05-.06-.03-.09-.02-.1M373.72,944.34h0c.53.09,1.07.17,1.61.24l1.05.13s.01,0,.02,0l.64.37s.04.04.03.07c0,.03-.03.04-.06.04l-1.36-.16c-.23-.03-.45-.07-.68-.1-.94-.19-1.22-.48-1.24-.53-.03-.06,0-.06,0-.06M371.31,942.1c-.04-.07-.05-.11-.05-.13l.68.15,1.27.25s.01,0,.02,0l.65.39s.03.04.03.07c-.01.03-.04.04-.07.04-.27-.05-.65-.13-1.12-.22-.8-.24-1.35-.44-1.41-.55M372.25,943c.73.14,1.47.25,2.22.34h.05s.01.01.02.02l.63.4s.03.04.02.07c-.01.02-.03.04-.06.04,0,0-.35-.04-.35-.04-.33-.04-.76-.1-1.26-.18-.68-.17-1.24-.44-1.27-.54-.02-.07,0-.09,0-.1M371.85,938.43c.08.08.24.34.24.34.58.95,1.99,2.67,4.29,4.14,2.3,1.47,2.71,1.55,5,3.29,2.29,1.74,2.11,2.89,2.12,3.04.01.15-.15.19-.15.19-.49.1-1.51.47-1.68.56-.18.1-.12-.11-.12-.11.27-.44.32-.96.32-.96.04-2.18-3.5-3.36-6.63-5.95-3.14-2.59-3.25-3.75-3.42-4.15-.17-.4-.06-.48.03-.4M400.93,942.07s-.07,0-.08-.03c-.02-.03-.02-.07,0-.09l.3-.35s.02-.01.03-.02c.42-.16,1.26-.52,2.41-1.16-.25.35-.57.68-.97.95-.55.26-1.12.5-1.68.7M402.11,942.88c-.77.3-1.54.55-2.29.73-.03,0-.06,0-.07-.03-.02-.02-.03-.05-.01-.07l.21-.53s.03-.04.06-.04c.76-.19,1.53-.44,2.29-.73,0,0,.04.02.05.07v.14c-.01.14-.07.34-.23.47M401.63,944.64c-.9.34-1.79.62-2.66.81-.03,0-.06,0-.08-.03-.02-.02-.02-.05,0-.08l.37-.76s.03-.04.05-.04c.52-.12,1.53-.39,2.86-.86.02,0,.04.02.05.06v.02c-.01.06-.02.11-.03.17-.05.19-.19.48-.56.71M401.13,947.12s0,0,0,.01c-.02.03-.03.06-.06.09-.11.16-.41.44-.97.64-1.05.36-2.17.69-3.28.94-.03,0-.06-.01-.08-.04-.01-.03-.01-.06,0-.08l.47-.57s.03-.03.04-.03c.47-.09,1.88-.4,3.84-1.04.02,0,.04.02.03.07M401.13,946.31c-1.13.41-2.19.73-3.16.95-.03,0-.06,0-.08-.03-.02-.02-.02-.06,0-.08l.47-.77s.03-.03.05-.04c.6-.14,1.82-.44,3.42-.97.01,0,.03.03.03.08,0,0,0,.02,0,.03,0,.04-.02.07-.03.11-.07.19-.27.51-.68.73M404.33,938.87s-.12.26-.62.64c-.52.32-1.08.64-1.65.94.06-.1.13-.2.18-.31.13-.06.95-.52,2.09-1.28M411.59,934.4s.05-.02.07-.01c.03.01.04.03.05.06,0,0,0,.01,0,.03,0,.07-.04.28-.37.66-.33.38-3.57,3.44-7.39,5.56.17-.24.32-.49.44-.73,1.88-1.12,4.38-2.88,7.2-5.56M404.89,938.49c1.42-.97,3.18-2.33,4.72-3.94,0,0,0,0,0,0,0,.04-.03.13-.11.25-.31.44-2.09,2.23-4.68,4,.03-.12.05-.22.07-.31M414.05,934.34s-.11-.05-.22,0c-.23.11-1.07.75-1.33.95,0-.03.02-.06.05-.12l.05-.1c.2-.41.74-1.51.74-2.24,0-.16-.03-.3-.08-.41,0-.02-.03-.1-.12-.13-.1-.03-.23.03-.38.18-.32.32-2.2,2.03-2.22,2.05-.02.02-.04.04-.06.05v-.02s0-.06.01-.11l.1-.41c.08-.3.17-.62.17-.88,0-.12-.02-.23-.07-.32-.01-.05-.04-.11-.11-.12-.11-.03-.21.08-.28.17-.2.26-2.67,2.86-3.11,3.22-.04.03-.07.05-.09.06.01-.1.11-.32.25-.58.08-.15.59-1.33.59-1.87,0-.09-.01-.16-.04-.21-.03-.06-.09-.08-.16-.08-.34.01-1.05.79-2.74,2.7,0,0-1.34,1.5-1.4,1.56,0-.01,0-.03,0-.03,0-.04,0-.09,0-.16,0-.32-.04-.89-.24-1.19-.09-.14-.19-.21-.3-.2-.17.01-.32.2-.54.64-.25.52-2.12,2.48-4.2,4.12l-.07.05c-1.93,1.53-3.21,2.54-4.7,4.75-1.14,1.69-3.18,2.6-4.66,3.27-.44.2-.85.38-1.18.56-.13-.01-1.55-.15-3.14-.1-.09-.63-.52-2.48-2.62-3.79-2.13-1.33-5.21-3.32-7.4-5.23-1.35-1.19-2.24-2.3-2.78-2.97-.34-.42-.46-.57-.55-.6-.14-.04-.23,0-.27.04-.04.04-.09.12-.09.29,0,.18.05.48.21.95,0,0,0,.01,0,.03-.02,0-.05-.02-.09-.04-.32-.17-1.06-.55-1.92-1.77-.86-1.21-1.53-3.02-1.54-3.04-.01-.06-.06-.12-.13-.13-.1,0-.15.11-.19.21-.08.21-.15.52-.15.99s.06,1.02.23,1.78h0c-.15-.08-1.3-1.2-2.45-3.14-.03-.04-.18-.25-.35-.2-.03.01-.08.04-.11.11-.02.05-.03.12-.03.21,0,.47.34,1.39.96,2.66-.28-.27-1.28-1.28-2.05-2.28-.04-.05-.24-.34-.43-.35-.07,0-.12.02-.17.07-.03.04-.05.12-.05.23,0,.4.22,1.26.75,2.37-.21-.14-.79-.59-1.17-.88-.01-.01-.17-.12-.3-.06-.09.04-.13.15-.13.32,0,.37.3.99.42,1.23-.04-.01-.13-.05-.13-.05-.15-.07-.34-.15-.5-.15-.06,0-.11.03-.14.08-.02.03-.03.07-.03.11,0,.22.18.58.32.79.2.3,1.02,1.06,1.31,1.33-.3-.09-.89-.26-.92-.27-.03,0-.24-.06-.35.06-.03.03-.05.07-.05.14,0,.03,0,.05.01.09.08.32,1.09,1.04,2.98,2.14-.32-.03-.5,0-.56.08-.01.02-.03.05-.03.09,0,.03,0,.05.02.08.13.28,1.23.87,2.19,1.19h-.1c-.23,0-.38.01-.44.09-.02.02-.03.04-.03.07,0,.01,0,.02,0,.03.05.17.12.4,2.22,1.22-.27-.01-.47,0-.53.09,0,.02-.02.04-.02.08,0,.02,0,.04.01.07.11.25,1.14.86,3.08,1.45-.16.03-.3.07-.34.14-.01.02-.02.04-.02.06,0,0,0,.02,0,.03.14.4,2.06,1.1,3.83,1.66-.15.01-.28.04-.34.1-.03.03-.04.06-.04.09v.02c.03.19.53.76,4.59,1.84.04,0,.07.02.1.03-.03.01-.07.03-.07.03-.08.03-.19.08-.2.18h0c0,.13.11.24.4.42.59.36,1.57.71,1.88.81-1.83.94-3.62,2.11-3.64,2.12-.02.01-.03.03-.03.06h0v.04c0,.13-.03.58-.54.85-.27.14-.73.47-.82,1.05,0,.06-.01.12-.01.19,0,.49.29,1.03.85,1.61.12.1.21.12.26.07.07-.07.09-.15.04-.26-.01-.03-.09-.27,0-.44.04-.1.13-.17.26-.2.37-.09.68-.01.91.04l.18.04c.2.03.68.04,1.06-.17.29-.16,1.26-.11,1.77-.08h.15s.11.01.19.02c-.09.14-.22.3-.43.45l-.28.21c-.3.22-.46.35-.71.64-.05.01-1.62.27-1.62.27-.02,0-.04.02-.06.04,0,0-.41.78-.98,1.3-.56.52-1.25.76-1.26.76-.01,0-.03.02-.04.03,0,.01-.21.36-.25,1.08,0,.07,0,.14,0,.22v.08s0,.03.01.04c0,0,.1.17.23.23.05.03.26.16.47.29,0,0,.17.06.36.11h.01s.03.01.05.01c0,0,0,0,0,0l.06.02c-1.71.47-3.3,1.05-4.73,1.74-4.53,2.16-7.02,5.13-7.02,8.34s2.49,6.17,7.02,8.34c4.29,2.06,9.98,3.19,16.02,3.19s11.73-1.13,16.02-3.19c4.52-2.17,7.02-5.13,7.02-8.34s-2.49-6.17-7.02-8.34c-2.69-1.29-5.92-2.21-9.44-2.73h0s.02,0,.04-.01c.16-.08.26-.2.29-.36.23.14.8.44,1.32.31.62-.16.81-.72.83-.81.02-.03.07-.08.1-.08l.09.03c.19.07.54.21.88.04.25-.13.38-.34.47-.49.06-.09.1-.17.15-.2.05-.03.14-.04.24-.06.2-.03.45-.07.59-.27,0-.01.13-.2.13-.38,0-.07.01-.25.11-.29,0,0,.94-.35,1.13-1.02,0,0,.07-.17-.02-.34-.08-.15-.23-.25-.47-.31l-7.32-1.95s-.26-.12-.47-.41c.62.01,3.04.02,4.57-.47.04-.02.15-.1.15-.2,0-.04-.02-.1-.1-.16-.09-.06-.18-.1-.24-.13.01,0,.02,0,.04-.01.28-.06,2.35-.54,2.83-.76.21-.1.31-.2.31-.31,0-.01,0-.03,0-.04-.03-.12-.18-.18-.27-.18-.07,0-.22-.02-.33-.04.07-.01.16-.04.16-.04.59-.13,2.17-.47,3.11-.89.05-.03.21-.13.21-.26,0-.04-.02-.1-.1-.15-.2-.11-1-.14-1.12-.15.02-.01.04-.03.08-.04.06-.03.27-.1.54-.2,1.05-.35,2.98-1,3.52-1.72.01-.02.07-.1.07-.18,0-.03,0-.05-.01-.07-.02-.03-.06-.08-.14-.08-.14-.01-.55,0-.7,0,.01,0,.02-.01.05-.03l.16-.08c.64-.32,2.57-1.31,3.56-2.17.04-.04.2-.22.2-.37h0s-.07-.14-.07-.14c0,0-.13-.12-.41-.08-.02,0-.04,0-.05,0,.02-.02.05-.04.1-.07l.08-.04c1.28-.66,2.16-1.27,2.62-1.82.01-.02.07-.11.07-.2,0-.03,0-.05-.02-.07-.02-.05-.07-.1-.19-.11-.24-.02-.84.08-.95.1h0s.01-.04.1-.1l.17-.11c.44-.3,1.48-.99,2-1.85.01-.01.01-.03.01-.04,0-.03,0-.2-.1-.28-.04-.03-.09-.04-.14-.03,0,0-.48.12-.55.14,0-.01.01-.03.04-.05.01-.02,1.72-1.77,2.07-2.74.11-.32.16-.5.16-.61,0-.07-.02-.12-.06-.14-.09-.07-.21,0-.35.09l-.05.03-1.21.71s0,0-.01,0c.01-.03.03-.07.09-.15l.22-.27c.49-.57,1.39-1.63,1.54-2.51h0s0-.05,0-.09c0-.08-.01-.2-.1-.26"/>
      </g>
    </g>
    <g>
      <g>
        <path class="cls-9" d="M475.27,976.04c.53-.47.75-1.1.75-2.01l-.02-22.76c0-.9-.23-1.58-.76-2.05v-.04h3.59c4.42,0,7.37,2.12,7.37,5.32,0,3.12-2.84,5.33-6.74,5.33h-1.78v.67h2.35c5.5,0,9.45,3.38,9.45,8.11.01,4.49-3.66,7.49-9.18,7.5h-5.06s0-.08,0-.08ZM479.46,948.47h-10.83v.36h1.55c2.13,0,2.36.2,2.36,2.09l.02,23.46c0,1.89-.22,2.09-2.35,2.09h-1.55v.36h12.47c6.88-.01,12.25-3.3,12.25-8.22,0-4.02-4.09-8.16-9.78-8.51v-.16c4.04-.47,6.39-3.28,6.39-5.52,0-3.57-4.21-5.95-10.51-5.95h-.01Z"/>
        <path class="cls-9" d="M514.49,953.26c-7.45,0-13.5,5.3-13.49,11.84,0,7.22,5.37,12.02,13.38,12.02,5.55,0,9.82-2.32,11.92-6.14l-.67-.39c-1.95,3.65-5.99,5.82-11.25,5.83-5.29,0-9.61-5.35-9.61-11.95,0-6.29,3.82-10.49,9.55-10.49,4.96,0,8.26,3.46,8.26,8.67,0,.23-.08.35-.35.35h-9.51c-2.89.01-5.23,1.84-5.23,4.09,0,.98.86,1.78,1.91,1.78v-2.25c0-1.53,1.48-2.76,3.32-2.76l12.17.13c.76,0,1.36-.51,1.36-1.14v-.2c0-5.63-4.69-9.38-11.73-9.38h-.03Z"/>
        <path class="cls-9" d="M533.26,954.71v.35h1.99c.87,0,1.33.43,1.33,1.18v15.85c.02,2.83,2.22,5.13,4.82,5.13,2.45,0,4.08-1.4,4.08-3.48,0-.46-.08-.89-.23-1.3l-.36.16c.12.35.2.73.2,1.14,0,1.4-1.03,2.33-2.58,2.33s-2.85-1.09-2.85-2.43c0-.48.12-1.02.41-1.6v-16.25s-.01-3.35-.01-3.35h-.36v.16c0,1.61-2.17,2.09-3.99,2.09h-2.44ZM536.31,946.98c0,1.1.85,1.77,2,1.77,1.24,0,1.95-.75,1.95-1.78,0-1.1-.81-1.74-1.95-1.74-1.25,0-2,.71-2,1.74"/>
        <path class="cls-9" d="M557.22,952.01v.16c0,1.61-1.5,2.57-3.28,2.88l-3.41.64.04.24,2.62-.2c.06,0,.11,0,.17,0,.88,0,1.47.56,1.47,1.27v17.35c.02,1.89-.21,2.09-2.34,2.09h-1.55v.35h11.31v-.36h-1.55c-2.13,0-2.4-.2-2.4-2.09v-10.81c-.01-5.76,3.45-9.62,7.97-9.63,3.11,0,4.35,2.08,4.35,5.95v12.23c.01,2.82,2.16,5.12,4.8,5.12,2.45,0,4.09-1.39,4.08-3.47,0-1.77-1.29-3.27-2.53-3.94-1.04,0-1.73.24-1.73.59,2.04.24,3.86,1.22,3.86,3.35,0,1.4-1.02,2.33-2.57,2.33-1.71,0-2.85-.97-2.85-2.43,0-.48.12-1.02.41-1.59v-12.86c-.01-3.57-2.68-5.95-7.47-5.95-3.68,0-6.84,2.17-8.12,5.53-.26.68-.62,1.85-.71,2.56h-.31c.05-.35.09-3.51.09-4.14v-5.17h-.37Z"/>
        <path class="cls-9" d="M589.85,960.46c0-3.95,3.49-6.59,8.73-6.59,5,0,9.06,3.42,9.07,7.64,0,4.47-3.62,7.46-9.05,7.46h0c-4.82,0-8.74-3.81-8.74-8.51M611.12,951.09c-1.69.87-2.6,2.47-2.6,4.14,0,.25.03.52.06.77-2.19-1.77-5.7-2.81-10.04-2.8-6.71,0-12.16,3.51-12.15,7.82,0,4.18,3.15,7.25,8.17,8.28v.39c.01,5.49,5.86,5.59,10.59,5.59,3.2,0,5.88.24,5.88,1.97,0,2.18-5.31,3.87-11.31,3.88-7.06,0-12.21-1.54-12.21-3.66,0-1.41,1.59-2.57,3.55-2.57,1.1,0,2-.76,2-1.69h-.89c-3.02,0-5.46,1.91-5.45,4.26,0,3.56,5.47,6.31,13.01,6.3,6.44,0,12.12-3.03,12.11-6.51,0-4.45-3.95-4.85-7.99-4.84h-2.75c-3.11,0-5.73-.25-5.73-2.71v-.24c1.01.16,2.07.24,3.2.24,6.94,0,12.56-3.89,12.55-8.68,0-1.3-.39-2.49-1.11-3.51-.29-.47-.43-.97-.43-1.48,0-1.2.76-2.39,1.95-2.99.53-.27.73-.69.73-1.17,0-.4-.12-.79-.36-1.15l-.77.39Z"/>
        <path class="cls-9" d="M635.99,947.25l.14,2.09c.04.55.09.99.18,1.26l-.31.08c-.05-.12-.4-.71-.71-.9-1.38-.9-3.24-1.73-5.9-1.73-5.24,0-8.74,2.56-8.74,6.4,0,4.6,4.02,6.79,7.86,8.84,3.48,1.85,6.75,3.86,6.75,7.28,0,3.44-2.65,5.76-6.63,5.76-4.2,0-7.75-3.01-8.02-7.68l-.09-1.61-.8.03.59,10.76.4-.02-.14-2.46c-.03-.48-.09-1.3-.18-1.69l.18-.04c.14.35.8,1.1,1.11,1.3,2.28,1.4,4.28,2.12,7.01,2.12,5.94,0,9.9-2.84,9.89-7.09,0-4.95-4.22-7.44-8.16-9.54-3.46-1.84-6.68-3.56-6.68-6.82,0-3.13,2.02-4.81,5.63-4.81,4.4,0,6.48,3.06,6.67,6.18l.09,1.65.79-.03-.49-9.31h-.45Z"/>
        <path class="cls-9" d="M652.06,944.09h-.35v.16c0,1.61-2.18,2.09-4,2.09h-2.53v.35h2.08c.87,0,1.33.43,1.34,1.18l.02,26.38c0,1.89-.22,2.09-2.34,2.09h-1.55v.35h11.31v-.36h-1.55c-2.13,0-2.4-.2-2.41-2.09v-10.81c0-5.76,3.45-9.62,7.97-9.63,3.11,0,4.35,2.08,4.36,5.95v12.23c.01,2.83,2.16,5.12,4.81,5.12,2.45,0,4.08-1.39,4.08-3.47,0-1.78-1.29-3.28-2.53-3.94-1.04,0-1.73.24-1.73.59,2.04.23,3.86,1.22,3.86,3.35,0,1.39-1.03,2.33-2.57,2.33-1.72,0-2.86-.97-2.86-2.43,0-.48.13-1.02.41-1.6v-12.86c-.01-3.57-2.68-5.95-7.47-5.95-3.68,0-6.83,2.18-8.12,5.52-.26.67-.62,1.86-.71,2.57h-.3c.04-.35.79-6.47.78-10.25v-6.9Z"/>
        <path class="cls-9" d="M693.28,953.13h-.03c-7.44,0-13.49,5.3-13.49,11.84,0,7.22,5.37,12.02,13.38,12.02,5.56,0,9.83-2.32,11.92-6.14l-.67-.39c-1.96,3.64-5.99,5.82-11.25,5.82-5.29,0-9.6-5.35-9.61-11.94-.01-6.3,3.82-10.49,9.55-10.5,4.95,0,8.26,3.46,8.26,8.67,0,.23-.09.35-.36.35h-9.51c-2.88.01-5.22,1.84-5.22,4.1,0,.98.86,1.77,1.91,1.77v-2.25c0-1.53,1.49-2.77,3.32-2.77l12.17.13c.76,0,1.36-.52,1.36-1.15v-.2c0-5.62-4.69-9.38-11.73-9.38"/>
      </g>
      <polygon class="cls-9" points="705.81 984.22 705.81 980.66 614.12 980.97 614.12 984.52 705.81 984.22"/>
      <polygon class="cls-9" points="467.93 981.46 467.93 985.02 583.33 984.62 583.33 981.08 467.93 981.46"/>
      <g>
        <path class="cls-9" d="M699.85,940.78c.58,0,.93.12,1.18.33.28.23.41.58.41.95,0,1.01-.63,1.44-1.77,1.44h-.64v-2.19c0-.47.01-.54.22-.54h.59ZM697.72,940.45v.26c.64,0,.69.03.69.66v4.49c0,.62-.05.67-.69.67v.26h2.01v-.26c-.65,0-.69-.03-.69-.66v-2.03h.84l1.71,2.95h1.08v-.26c-.42,0-.54-.07-.88-.61l-1.28-2.17c.89-.14,1.6-.73,1.6-1.67,0-.56-.2-.95-.58-1.23-.42-.31-.88-.4-1.65-.4h-2.16Z"/>
        <path class="cls-9" d="M704.06,939.76c-.99-.99-2.36-1.6-3.87-1.6s-2.88.61-3.87,1.6c-.99.99-1.6,2.36-1.6,3.87s.61,2.88,1.6,3.87c.99.99,2.36,1.6,3.87,1.6s2.88-.61,3.87-1.6,1.6-2.36,1.6-3.87-.61-2.88-1.6-3.87M700.19,937.13c1.79,0,3.41.73,4.59,1.9,1.17,1.17,1.9,2.8,1.9,4.59s-.73,3.41-1.9,4.59c-1.17,1.17-2.8,1.9-4.59,1.9s-3.41-.73-4.59-1.9c-1.17-1.17-1.9-2.8-1.9-4.59s.73-3.41,1.9-4.59c1.17-1.17,2.8-1.9,4.59-1.9"/>
        <path class="cls-9" d="M495.21,994.84v5.32h-.43c-.14-1.02-.4-1.84-.76-2.44-.36-.61-.88-1.08-1.55-1.44-.67-.35-1.37-.53-2.09-.53-.81,0-1.48.24-2.01.72-.53.48-.8,1.03-.8,1.64,0,.47.17.9.5,1.28.48.57,1.64,1.33,3.46,2.27,1.48.77,2.5,1.36,3.04,1.78.54.41.96.9,1.25,1.46.3.56.44,1.14.44,1.76,0,1.16-.47,2.17-1.4,3.01-.93.84-2.13,1.26-3.6,1.26-.46,0-.89-.03-1.3-.1-.24-.04-.74-.18-1.51-.41-.76-.24-1.24-.36-1.44-.36s-.35.06-.47.17c-.11.11-.2.35-.25.7h-.43v-5.27h.43c.2,1.1.48,1.93.82,2.48.34.55.87,1,1.58,1.37.71.36,1.48.55,2.32.55.98,0,1.75-.25,2.32-.75.56-.5.85-1.09.85-1.77,0-.38-.11-.76-.32-1.14-.22-.38-.55-.75-1-1.08-.3-.23-1.13-.71-2.49-1.45-1.36-.73-2.33-1.33-2.9-1.76-.58-.44-1.01-.92-1.31-1.45-.3-.53-.44-1.11-.44-1.75,0-1.1.44-2.06,1.31-2.85.88-.8,1.99-1.2,3.34-1.2.84,0,1.74.2,2.68.6.44.19.75.28.93.28.2,0,.37-.06.5-.18s.23-.35.31-.71h.43Z"/>
        <path class="cls-9" d="M500.49,1003.45h4.97c-.04-.67-.12-1.14-.25-1.41-.2-.42-.48-.75-.87-1-.39-.24-.79-.36-1.21-.36-.65,0-1.23.24-1.74.73-.51.49-.81,1.17-.9,2.04M500.49,1004.1c0,1.54.38,2.75,1.16,3.63.78.88,1.7,1.32,2.75,1.32.71,0,1.31-.19,1.84-.56.52-.37.95-1.01,1.3-1.92l.37.23c-.17,1.04-.64,1.98-1.43,2.83-.79.85-1.78,1.27-2.97,1.27-1.29,0-2.39-.48-3.31-1.45-.92-.97-1.38-2.28-1.38-3.92,0-1.78.47-3.16,1.41-4.16.94-1,2.12-1.49,3.54-1.49,1.2,0,2.19.38,2.97,1.15.77.77,1.16,1.79,1.16,3.08h-7.42Z"/>
        <path class="cls-9" d="M511.52,1003.45h4.97c-.04-.67-.12-1.14-.25-1.41-.2-.42-.48-.75-.87-1-.39-.24-.79-.36-1.21-.36-.65,0-1.23.24-1.74.73-.51.49-.81,1.17-.9,2.04M511.52,1004.1c0,1.54.38,2.75,1.16,3.63.78.88,1.7,1.32,2.75,1.32.71,0,1.31-.19,1.84-.56.52-.37.95-1.01,1.31-1.92l.36.23c-.17,1.04-.64,1.98-1.43,2.83-.79.85-1.78,1.27-2.97,1.27-1.29,0-2.39-.48-3.31-1.45-.92-.97-1.37-2.28-1.37-3.92,0-1.78.47-3.16,1.41-4.16.94-1,2.12-1.49,3.54-1.49,1.2,0,2.19.38,2.97,1.15.77.77,1.16,1.79,1.16,3.08h-7.42Z"/>
        <path class="cls-9" d="M531.31,1002.33h7.38v-4.4c0-.79-.05-1.31-.15-1.55-.08-.19-.24-.35-.49-.49-.34-.18-.69-.27-1.07-.27h-.56v-.42h6.79v.42h-.56c-.37,0-.73.08-1.06.26-.25.12-.42.3-.51.55-.09.24-.14.75-.14,1.5v9.93c0,.78.05,1.29.16,1.54.08.19.24.35.48.49.34.18.7.27,1.07.27h.56v.42h-6.79v-.42h.56c.65,0,1.12-.18,1.42-.55.2-.24.29-.83.29-1.75v-4.69h-7.38v4.69c0,.78.05,1.29.15,1.54.08.19.24.35.49.49.34.18.69.27,1.07.27h.57v.42h-6.8v-.42h.56c.66,0,1.13-.18,1.43-.55.19-.24.28-.83.28-1.75v-9.93c0-.79-.05-1.31-.15-1.55-.08-.19-.24-.35-.48-.49-.34-.18-.71-.27-1.08-.27h-.56v-.42h6.8v.42h-.57c-.38,0-.73.08-1.07.26-.24.12-.41.3-.5.55-.09.24-.14.75-.14,1.5v4.4Z"/>
        <path class="cls-9" d="M546.64,1003.45h4.97c-.04-.67-.12-1.14-.25-1.41-.2-.42-.48-.75-.87-1-.39-.24-.79-.36-1.21-.36-.65,0-1.23.24-1.74.73-.51.49-.81,1.17-.9,2.04M546.64,1004.1c0,1.54.38,2.75,1.16,3.63.78.88,1.7,1.32,2.75,1.32.71,0,1.31-.19,1.84-.56.52-.37.95-1.01,1.3-1.92l.37.23c-.17,1.04-.64,1.98-1.43,2.83-.79.85-1.78,1.27-2.97,1.27-1.29,0-2.39-.48-3.31-1.45-.92-.97-1.38-2.28-1.38-3.92,0-1.78.47-3.16,1.41-4.16.94-1,2.12-1.49,3.54-1.49,1.2,0,2.19.38,2.97,1.15.77.77,1.16,1.79,1.16,3.08h-7.42Z"/>
        <path class="cls-9" d="M559.01,999.88v2.34c.9-1.56,1.82-2.34,2.77-2.34.43,0,.78.13,1.06.38.28.25.42.55.42.88,0,.3-.1.54-.3.75-.2.2-.45.31-.73.31s-.58-.13-.92-.39c-.34-.26-.59-.39-.75-.39-.14,0-.3.07-.46.23-.35.31-.72.82-1.09,1.53v4.98c0,.58.07,1.01.22,1.3.1.21.28.38.54.51.26.14.63.2,1.11.2v.41h-5.49v-.41c.55,0,.95-.08,1.22-.25.2-.12.33-.31.41-.58.04-.13.06-.49.06-1.1v-4.03c0-1.21-.03-1.93-.08-2.16-.05-.23-.14-.4-.28-.51-.14-.11-.31-.16-.51-.16-.24,0-.52.06-.82.17l-.12-.41,3.25-1.27h.49Z"/>
        <path class="cls-9" d="M574.88,996.04v6.08h3.49c.9,0,1.51-.13,1.82-.4.41-.35.63-.96.68-1.84h.43v5.35h-.43c-.11-.75-.22-1.23-.33-1.44-.14-.27-.37-.47-.69-.62-.32-.15-.81-.23-1.48-.23h-3.49v5.07c0,.68.03,1.1.09,1.24.06.15.17.27.33.35.16.08.45.13.89.13h2.7c.9,0,1.55-.06,1.95-.18.41-.12.8-.36,1.17-.72.48-.47.98-1.17,1.48-2.12h.47l-1.37,3.86h-12.24v-.42h.56c.37,0,.73-.09,1.07-.26.25-.12.42-.3.51-.54.09-.24.14-.74.14-1.49v-10c0-.97-.1-1.58-.3-1.81-.28-.3-.75-.45-1.41-.45h-.56v-.42h12.24l.18,3.37h-.46c-.16-.81-.34-1.36-.54-1.67-.2-.3-.49-.54-.89-.69-.31-.11-.86-.17-1.65-.17h-4.36Z"/>
        <path class="cls-9" d="M588.84,1002.1c.78-.76,1.24-1.19,1.38-1.3.35-.29.73-.51,1.14-.67.41-.16.81-.24,1.21-.24.67,0,1.25.19,1.73.57.48.38.81.92.97,1.64.81-.91,1.48-1.5,2.04-1.79.55-.28,1.13-.42,1.71-.42s1.08.14,1.52.42c.44.28.79.75,1.05,1.39.17.44.26,1.13.26,2.07v4.47c0,.65.05,1.1.15,1.34.08.17.22.31.43.42.21.12.55.18,1.03.18v.41h-5.29v-.41h.22c.46,0,.82-.09,1.08-.26.18-.12.31-.31.38-.58.03-.13.05-.5.05-1.1v-4.47c0-.85-.1-1.45-.32-1.79-.3-.48-.79-.72-1.46-.72-.41,0-.83.1-1.25.3-.42.2-.92.57-1.51,1.12l-.03.13.03.49v4.96c0,.71.04,1.15.12,1.33.08.17.24.32.46.44.23.12.61.18,1.16.18v.41h-5.42v-.41c.59,0,1-.07,1.23-.2.22-.14.38-.34.46-.61.04-.13.06-.5.06-1.12v-4.47c0-.85-.13-1.46-.38-1.83-.35-.48-.83-.73-1.44-.73-.42,0-.84.11-1.25.33-.65.34-1.15.71-1.5,1.13v5.57c0,.68.05,1.12.15,1.33.1.2.24.36.43.46.19.1.58.15,1.16.15v.41h-5.3v-.41c.49,0,.83-.05,1.03-.15.2-.1.34-.27.44-.49.1-.22.16-.65.16-1.3v-3.97c0-1.14-.04-1.88-.11-2.21-.06-.25-.14-.42-.26-.52-.11-.1-.28-.14-.48-.14-.22,0-.48.06-.78.17l-.18-.41,3.23-1.27h.5v2.21Z"/>
        <path class="cls-9" d="M607.68,1003.03v3.88c0,.84.04,1.39.11,1.65.11.44.37.82.8,1.16.42.33.96.5,1.61.5.78,0,1.41-.3,1.9-.89.63-.77.95-1.86.95-3.26,0-1.59-.36-2.81-1.08-3.66-.5-.59-1.09-.89-1.78-.89-.38,0-.75.09-1.12.27-.28.14-.75.54-1.39,1.23M603.93,1001.22l3.3-1.29h.45v2.43c.55-.91,1.11-1.55,1.67-1.92.56-.37,1.14-.55,1.76-.55,1.08,0,1.98.41,2.7,1.23.88,1,1.32,2.3,1.32,3.9,0,1.79-.53,3.28-1.59,4.45-.88.96-1.98,1.44-3.31,1.44-.58,0-1.07-.08-1.5-.24-.31-.11-.66-.34-1.06-.68v3.17c0,.71.04,1.16.14,1.36.09.19.24.35.47.46.23.11.63.17,1.21.17v.42h-5.62v-.42h.29c.43,0,.8-.07,1.1-.24.15-.08.26-.22.34-.4.08-.18.12-.66.12-1.41v-9.83c0-.67-.03-1.1-.09-1.28-.06-.18-.16-.32-.3-.41-.14-.09-.32-.14-.55-.14-.19,0-.43.06-.72.16l-.14-.36Z"/>
        <path class="cls-9" d="M621.96,1000.62c-.42,0-.83.12-1.25.36-.42.24-.76.65-1.02,1.25-.25.6-.38,1.37-.38,2.3,0,1.51.31,2.82.93,3.91.62,1.1,1.44,1.65,2.46,1.65.76,0,1.38-.3,1.87-.91.49-.61.74-1.65.74-3.12,0-1.85-.41-3.3-1.23-4.36-.55-.73-1.26-1.09-2.12-1.09M622.33,999.88c1.62,0,2.93.6,3.91,1.79.84,1.02,1.26,2.2,1.26,3.52,0,.93-.23,1.87-.69,2.82-.46.95-1.1,1.67-1.91,2.16-.81.48-1.71.73-2.7.73-1.62,0-2.9-.62-3.85-1.87-.81-1.05-1.21-2.23-1.21-3.54,0-.95.24-1.9.73-2.84.49-.95,1.13-1.64,1.93-2.09.8-.45,1.64-.68,2.53-.68"/>
        <path class="cls-9" d="M628.86,1000.19h4.5v.42c-.41.03-.69.1-.81.21-.13.11-.2.28-.2.49,0,.24.07.52.2.85l2.3,5.98,2.31-4.87-.61-1.53c-.19-.45-.43-.77-.74-.94-.17-.11-.49-.17-.96-.19v-.42h5.11v.42c-.56.02-.96.12-1.2.29-.16.12-.23.32-.23.58,0,.15.03.31.09.47l2.44,5.97,2.26-5.75c.16-.41.23-.73.23-.98,0-.14-.07-.27-.23-.38-.16-.11-.45-.18-.9-.19v-.42h3.39v.42c-.68.1-1.18.54-1.5,1.34l-3.59,8.96h-.48l-2.68-6.64-3.13,6.64h-.44l-3.44-8.74c-.23-.55-.45-.93-.67-1.12-.22-.19-.56-.34-1.03-.44v-.42Z"/>
        <path class="cls-9" d="M648.97,1003.45h4.97c-.04-.67-.12-1.14-.25-1.41-.2-.42-.48-.75-.87-1-.39-.24-.79-.36-1.21-.36-.65,0-1.23.24-1.74.73-.51.49-.81,1.17-.9,2.04M648.97,1004.1c0,1.54.38,2.75,1.16,3.63.78.88,1.7,1.32,2.75,1.32.71,0,1.31-.19,1.84-.56.52-.37.95-1.01,1.3-1.92l.37.23c-.17,1.04-.64,1.98-1.43,2.83-.79.85-1.78,1.27-2.97,1.27-1.29,0-2.39-.48-3.31-1.45-.92-.97-1.38-2.28-1.38-3.92,0-1.78.47-3.16,1.41-4.16.94-1,2.12-1.49,3.54-1.49,1.2,0,2.19.38,2.97,1.15.77.77,1.16,1.79,1.16,3.08h-7.42Z"/>
        <path class="cls-9" d="M661.33,999.88v2.34c.9-1.56,1.82-2.34,2.76-2.34.43,0,.79.13,1.07.38.28.25.42.55.42.88,0,.3-.1.54-.3.75-.2.2-.45.31-.73.31s-.58-.13-.92-.39c-.34-.26-.59-.39-.75-.39-.14,0-.3.07-.46.23-.35.31-.71.82-1.09,1.53v4.98c0,.58.07,1.01.22,1.3.1.21.28.38.54.51.26.14.63.2,1.11.2v.41h-5.49v-.41c.55,0,.95-.08,1.22-.25.2-.12.33-.31.41-.58.04-.13.06-.49.06-1.1v-4.03c0-1.21-.03-1.93-.08-2.16-.05-.23-.14-.4-.28-.51-.14-.11-.31-.16-.51-.16-.24,0-.52.06-.82.17l-.12-.41,3.25-1.27h.49Z"/>
        <path class="cls-9" d="M668.37,1003.45h4.97c-.04-.67-.12-1.14-.25-1.41-.2-.42-.48-.75-.87-1-.39-.24-.79-.36-1.21-.36-.65,0-1.23.24-1.74.73-.51.49-.81,1.17-.9,2.04M668.37,1004.1c0,1.54.38,2.75,1.16,3.63.78.88,1.7,1.32,2.75,1.32.7,0,1.31-.19,1.83-.56.52-.37.95-1.01,1.31-1.92l.36.23c-.16,1.04-.64,1.98-1.43,2.83-.79.85-1.78,1.27-2.97,1.27-1.29,0-2.39-.48-3.31-1.45-.92-.97-1.37-2.28-1.37-3.92,0-1.78.47-3.16,1.41-4.16.94-1,2.12-1.49,3.55-1.49,1.2,0,2.19.38,2.96,1.15.77.77,1.16,1.79,1.16,3.08h-7.42Z"/>
        <path class="cls-9" d="M685.18,1008.62v-5.35c-.05-.52-.19-.99-.42-1.41-.24-.42-.55-.75-.93-.96-.39-.21-.76-.32-1.13-.32-.69,0-1.3.3-1.84.9-.71.79-1.07,1.94-1.07,3.45s.34,2.7,1.03,3.51c.69.82,1.45,1.22,2.3,1.22.71,0,1.4-.34,2.06-1.03M685.18,1009.41c-.52.53-1.03.91-1.53,1.14-.5.23-1.04.35-1.62.35-1.17,0-2.19-.48-3.07-1.43-.88-.95-1.31-2.17-1.31-3.66s.49-2.85,1.45-4.09c.97-1.24,2.22-1.85,3.74-1.85.95,0,1.72.29,2.34.87v-1.92c0-1.19-.03-1.92-.09-2.19-.06-.27-.15-.46-.27-.55-.13-.1-.28-.15-.47-.15-.2,0-.47.06-.81.18l-.15-.4,3.2-1.27h.52v12.02c0,1.22.03,1.96.09,2.23s.16.45.28.56c.13.11.28.16.45.16.21,0,.49-.06.85-.19l.13.4-3.19,1.29h-.54v-1.49Z"/>
      </g>
    </g>
  </g>
  <g>
    <g>
      <path class="cls-9" d="M306.77,890.21h8.34c4.28,0,7.2,2.39,7.2,6.37,0,4.3-3.13,6.52-7.37,6.52h-4.95v8.73h-3.23v-21.61ZM309.99,900.44h4.73c2.81,0,4.3-1.33,4.3-3.79s-1.76-3.78-4.19-3.78h-4.84v7.56Z"/>
      <path class="cls-9" d="M339.35,903.87c0,4.61-2.66,8.33-7.54,8.33-4.61,0-7.38-3.52-7.38-8.26s2.74-8.32,7.56-8.32c4.45,0,7.36,3.29,7.36,8.25ZM327.56,903.91c0,3.38,1.65,5.78,4.36,5.78s4.3-2.28,4.3-5.77-1.54-5.8-4.36-5.8-4.29,2.22-4.29,5.79Z"/>
      <path class="cls-9" d="M344.7,895.98c1.87,7.23,2.92,11.35,3.2,13.04h.04c.29-1.52,1.29-5.2,3.47-13.04h2.95c2.34,8.74,3.04,11.28,3.3,12.77h.03c.38-1.68.98-4.07,3.33-12.77h3.08l-4.84,15.85h-3.3c-1.5-5.82-2.87-10.75-3.21-12.54h-.03c-.28,1.79-1.59,6.37-3.3,12.54h-3.38l-4.58-15.85h3.23Z"/>
      <path class="cls-9" d="M369.14,904.49c.02,2.98,1.52,5.2,4.11,5.2,2.37,0,3.13-1.18,3.62-2.3h3.07c-.61,2.01-2.31,4.81-6.78,4.81-5.03,0-7.11-4.02-7.11-8.11,0-4.76,2.41-8.47,7.28-8.47,5.17,0,6.88,4.07,6.88,7.55,0,.5,0,.89-.05,1.32h-11.03ZM377.12,902.41c-.03-2.46-1.23-4.45-3.83-4.45s-3.8,1.84-4.06,4.45h7.89Z"/>
      <path class="cls-9" d="M384.02,900.29c0-2.09-.01-3.37-.03-4.31h2.99c.05.43.09,1.74.09,3.15.8-2.08,2.65-3.45,5.29-3.52v3c-3.24.07-5.29,1.6-5.29,5.67v7.54h-3.06v-11.54Z"/>
      <path class="cls-9" d="M397.36,904.49c.02,2.98,1.52,5.2,4.11,5.2,2.37,0,3.13-1.18,3.62-2.3h3.07c-.61,2.01-2.31,4.81-6.78,4.81-5.03,0-7.11-4.02-7.11-8.11,0-4.76,2.41-8.47,7.28-8.47,5.17,0,6.88,4.07,6.88,7.55,0,.5,0,.89-.05,1.32h-11.03ZM405.35,902.41c-.03-2.46-1.23-4.45-3.83-4.45s-3.8,1.84-4.06,4.45h7.89Z"/>
      <path class="cls-9" d="M425.87,889.01v18.37c0,1.48,0,2.94.03,4.45h-2.94c-.08-.43-.14-1.57-.15-2.13-.78,1.57-2.34,2.51-4.89,2.51-4.06,0-6.57-3.29-6.57-8.13s2.7-8.45,7.11-8.45c2.7,0,3.95,1.07,4.36,1.92v-8.53h3.05ZM414.52,903.98c0,3.68,1.7,5.67,4.12,5.67,3.57,0,4.29-2.69,4.29-5.94s-.67-5.55-4.1-5.55c-2.7,0-4.31,2.14-4.31,5.81Z"/>
      <path class="cls-9" d="M438.98,889.01h3.06v9.12c.7-1.29,2.13-2.51,4.95-2.51,4.04,0,6.48,3.33,6.48,7.97s-2.4,8.61-6.89,8.61c-2.5,0-3.77-.89-4.56-2.36,0,.76-.06,1.56-.12,1.98h-2.94c.03-1.76.03-3.53.03-5.29v-17.53ZM450.33,903.65c0-3.26-1.45-5.49-4.12-5.49-3.2,0-4.32,2.14-4.32,5.81,0,3.18,1,5.69,4.21,5.69,2.69,0,4.24-2.31,4.24-6.01Z"/>
      <path class="cls-9" d="M458.77,895.98c2.38,7.18,3.79,11.52,4.18,13.1h.03c.48-1.76,1.57-5.37,4.02-13.1h3.07l-5.62,16.52c-1.59,4.62-2.8,5.83-6.15,5.83-.48,0-1.13-.04-1.77-.11v-2.6c.38.05.85.07,1.28.07,1.93,0,2.7-.81,3.57-3.29l-5.9-16.43h3.3Z"/>
    </g>
    <g>
      <rect class="cls-9" x="193.58" y="900.8" width="107.41" height="1.11"/>
      <rect class="cls-9" x="471.52" y="900.8" width="107.41" height="1.11"/>
    </g>
  </g>
  <g>
    <path class="cls-10" d="M250.19,117.93h64.95S250.59,6.12,250.59,6.12c0,0-9.04,17.58-23.64,43.45-3.99,7.08-18.97,33.57-11.09,72.03,10.78-2.43,22.25-3.68,34.33-3.68Z"/>
    <path class="cls-8" d="M220.81,293.32l32.48-56.25H124.18s10.71,16.63,25.81,42.2c4.13,7,19.57,33.2,56.8,45.61,3.3-10.54,7.97-21.08,14.02-31.56Z"/>
    <path class="cls-7" d="M378.37,434.36c-7.49-8.12-14.31-17.43-20.35-27.89l-32.48-56.25-64.55,111.81s19.75-.96,49.45-1.25c8.13-.08,38.56-.35,67.93-26.41Z"/>
    <path class="cls-6" d="M524.61,344.21h-64.96s64.55,111.81,64.55,111.81c0,0,9.04-17.58,23.64-43.45,3.99-7.08,18.97-33.57,11.09-72.03-10.78,2.43-22.25,3.68-34.33,3.68Z"/>
    <path class="cls-3" d="M553.99,168.81l-32.48,56.25h129.11s-10.71-16.63-25.81-42.2c-4.13-7-19.57-33.2-56.8-45.61-3.3,10.54-7.97,21.08-14.02,31.56Z"/>
    <path class="cls-4" d="M396.43,27.78c7.49,8.12,14.31,17.43,20.35,27.89l32.48,56.25L513.81.11s-19.75.96-49.45,1.25c-8.13.08-38.56.35-67.93,26.41Z"/>
    <path class="cls-2" d="M548.04,49.68c-14.59-25.87-23.64-43.45-23.64-43.45l-71.25,123.4-7.38,67.86,61.15,26.96h.5l35.73-61.89c34.73-60.15,10.17-103.51,4.88-112.88Z"/>
    <path class="cls-1" d="M387.61,163.91l53.56-39.21.51-.88-35.73-61.89C371.22,1.77,321.39,1.36,310.63,1.25c-29.7-.3-49.45-1.25-49.45-1.25l71.35,123.59,55.07,40.32Z"/>
    <path class="cls-5" d="M329.45,197.49l-7.18-65.99-.62-1.07h-71.47c-69.46,0-94.72,42.95-100.2,52.21-15.11,25.57-25.81,42.2-25.81,42.2h143.23l62.04-27.35Z"/>
    <path class="cls-11" d="M329.45,264.65l-61.15-26.96h-.92l-35.73,61.89c-34.73,60.15-10.17,103.51-4.88,112.88,14.59,25.87,23.64,43.45,23.64,43.45l71.77-124.31,7.28-66.95Z"/>
    <path class="cls-12" d="M387.61,298.23l-54.3,39.75-.2.35,35.73,61.89c34.73,60.15,84.56,60.56,95.32,60.66,29.7.3,49.45,1.25,49.45,1.25l-71.66-124.12-54.34-39.78Z"/>
    <path class="cls-13" d="M507.81,237.29l-62.04,27.35,7.27,66.89.09.16h71.47c69.46,0,94.72-42.95,100.2-52.21,15.11-25.57,25.81-42.2,25.81-42.2h-142.8Z"/>
  </g>
</svg>